<svg width="38" height="46" viewBox="0 0 38 46" fill="none" xmlns="http://www.w3.org/2000/svg">
<path d="M19 0.0830078L0.25 8.41634V20.9163C0.25 32.4788 8.25 43.2913 19 45.9163C29.75 43.2913 37.75 32.4788 37.75 20.9163V8.41634L19 0.0830078ZM19 8.41634C20.6576 8.41634 22.2473 9.07482 23.4194 10.2469C24.5915 11.419 25.25 13.0087 25.25 14.6663C25.25 16.3239 24.5915 17.9137 23.4194 19.0858C22.2473 20.2579 20.6576 20.9163 19 20.9163C17.3424 20.9163 15.7527 20.2579 14.5806 19.0858C13.4085 17.9137 12.75 16.3239 12.75 14.6663C12.75 13.0087 13.4085 11.419 14.5806 10.2469C15.7527 9.07482 17.3424 8.41634 19 8.41634ZM29.6875 33.4163C27.162 37.2791 23.3905 40.161 19 41.583C14.6095 40.161 10.838 37.2791 8.3125 33.4163C7.60417 32.3747 7 31.333 6.5 30.2288C6.5 26.7913 12.1458 23.9788 19 23.9788C25.8542 23.9788 31.5 26.7288 31.5 30.2288C31 31.333 30.3958 32.3747 29.6875 33.4163Z" fill="white"/>
</svg>
