<svg width="23" height="23" viewBox="0 0 23 23" fill="none" xmlns="http://www.w3.org/2000/svg">
<path opacity="0.5" d="M20.5648 9.34867H1.86719V17.7626C1.86719 18.5064 2.16268 19.2198 2.68865 19.7458C3.21462 20.2718 3.92799 20.5672 4.67183 20.5672H17.7602C18.504 20.5672 19.2174 20.2718 19.7433 19.7458C20.2693 19.2198 20.5648 18.5064 20.5648 17.7626V9.34867ZM6.54159 7.47891C6.29364 7.47891 6.05585 7.38042 5.88053 7.20509C5.70521 7.02977 5.60671 6.79198 5.60671 6.54403V2.80451C5.60671 2.55656 5.70521 2.31877 5.88053 2.14345C6.05585 1.96812 6.29364 1.86963 6.54159 1.86963C6.78954 1.86963 7.02733 1.96812 7.20265 2.14345C7.37797 2.31877 7.47647 2.55656 7.47647 2.80451V6.54403C7.47647 6.79198 7.37797 7.02977 7.20265 7.20509C7.02733 7.38042 6.78954 7.47891 6.54159 7.47891ZM15.8904 7.47891C15.6425 7.47891 15.4047 7.38042 15.2293 7.20509C15.054 7.02977 14.9555 6.79198 14.9555 6.54403V2.80451C14.9555 2.55656 15.054 2.31877 15.2293 2.14345C15.4047 1.96812 15.6425 1.86963 15.8904 1.86963C16.1383 1.86963 16.3761 1.96812 16.5515 2.14345C16.7268 2.31877 16.8253 2.55656 16.8253 2.80451V6.54403C16.8253 6.79198 16.7268 7.02977 16.5515 7.20509C16.3761 7.38042 16.1383 7.47891 15.8904 7.47891Z" fill="#249EFF"/>
<path d="M17.7602 3.73975H16.8253V6.54439C16.8253 6.79233 16.7268 7.03012 16.5515 7.20545C16.3761 7.38077 16.1383 7.47927 15.8904 7.47927C15.6425 7.47927 15.4047 7.38077 15.2293 7.20545C15.054 7.03012 14.9555 6.79233 14.9555 6.54439V3.73975H7.47647V6.54439C7.47647 6.79233 7.37797 7.03012 7.20265 7.20545C7.02733 7.38077 6.78954 7.47927 6.54159 7.47927C6.29364 7.47927 6.05585 7.38077 5.88053 7.20545C5.70521 7.03012 5.60671 6.79233 5.60671 6.54439V3.73975H4.67183C3.92799 3.73975 3.21462 4.03523 2.68865 4.56121C2.16268 5.08718 1.86719 5.80055 1.86719 6.54439V9.34903H20.5648V6.54439C20.5648 5.80055 20.2693 5.08718 19.7433 4.56121C19.2174 4.03523 18.504 3.73975 17.7602 3.73975Z" fill="#249EFF"/>
</svg>
