<svg width="18" height="21" viewBox="0 0 18 21" fill="none" xmlns="http://www.w3.org/2000/svg">
<path fill-rule="evenodd" clip-rule="evenodd" d="M14.375 8.625C15.1375 8.625 15.8688 8.9279 16.4079 9.46707C16.9471 10.0062 17.25 10.7375 17.25 11.5V17.25C17.25 18.0125 16.9471 18.7438 16.4079 19.2829C15.8688 19.8221 15.1375 20.125 14.375 20.125H2.875C2.1125 20.125 1.38124 19.8221 0.842068 19.2829C0.302901 18.7438 0 18.0125 0 17.25V11.5C0 10.7375 0.302901 10.0062 0.842068 9.46707C1.38124 8.9279 2.1125 8.625 2.875 8.625V5.75C2.875 4.22501 3.4808 2.76247 4.55914 1.68414C5.63747 0.605802 7.10001 0 8.625 0C10.15 0 11.6125 0.605802 12.6909 1.68414C13.7692 2.76247 14.375 4.22501 14.375 5.75V8.625ZM8.625 1.91667C9.64166 1.91667 10.6167 2.32053 11.3356 3.03942C12.0545 3.75831 12.4583 4.73334 12.4583 5.75V8.625H4.79167V5.75C4.79167 4.73334 5.19553 3.75831 5.91442 3.03942C6.63331 2.32053 7.60834 1.91667 8.625 1.91667ZM14.375 10.5417H2.875C2.62083 10.5417 2.37708 10.6426 2.19736 10.8224C2.01763 11.0021 1.91667 11.2458 1.91667 11.5V17.25C1.91667 17.5042 2.01763 17.7479 2.19736 17.9276C2.37708 18.1074 2.62083 18.2083 2.875 18.2083H14.375C14.6292 18.2083 14.8729 18.1074 15.0526 17.9276C15.2324 17.7479 15.3333 17.5042 15.3333 17.25V11.5C15.3333 11.2458 15.2324 11.0021 15.0526 10.8224C14.8729 10.6426 14.6292 10.5417 14.375 10.5417Z" fill="white"/>
</svg>
