<svg width="14" height="14" viewBox="0 0 14 14" fill="none" xmlns="http://www.w3.org/2000/svg">
<path d="M11.3753 2.33317H9.62532V1.45817C9.62532 1.38082 9.59459 1.30663 9.5399 1.25193C9.4852 1.19723 9.41101 1.1665 9.33366 1.1665C9.2563 1.1665 9.18212 1.19723 9.12742 1.25193C9.07272 1.30663 9.04199 1.38082 9.04199 1.45817V2.33317H4.95866V1.45817C4.95866 1.38082 4.92793 1.30663 4.87323 1.25193C4.81853 1.19723 4.74435 1.1665 4.66699 1.1665C4.58964 1.1665 4.51545 1.19723 4.46075 1.25193C4.40605 1.30663 4.37532 1.38082 4.37532 1.45817V2.33317H2.62533C2.23869 2.33363 1.86803 2.48743 1.59464 2.76082C1.32125 3.03421 1.16746 3.40487 1.16699 3.7915V11.3748C1.16746 11.7615 1.32125 12.1321 1.59464 12.4055C1.86803 12.6789 2.23869 12.8327 2.62533 12.8332H11.3753C11.7621 12.8332 12.133 12.6795 12.4065 12.406C12.68 12.1325 12.8337 11.7616 12.8337 11.3748V3.7915C12.8337 3.40473 12.68 3.0338 12.4065 2.76031C12.133 2.48682 11.7621 2.33317 11.3753 2.33317ZM12.2503 11.3748C12.2503 11.6069 12.1581 11.8295 11.994 11.9936C11.8299 12.1576 11.6074 12.2498 11.3753 12.2498H2.62533C2.39326 12.2498 2.1707 12.1576 2.00661 11.9936C1.84251 11.8295 1.75033 11.6069 1.75033 11.3748V6.4165H12.2503V11.3748ZM12.2503 5.83317H1.75033V3.7915C1.75033 3.3085 2.14116 2.9165 2.62533 2.9165H4.37532V3.7915C4.37532 3.86886 4.40605 3.94304 4.46075 3.99774C4.51545 4.05244 4.58964 4.08317 4.66699 4.08317C4.74435 4.08317 4.81853 4.05244 4.87323 3.99774C4.92793 3.94304 4.95866 3.86886 4.95866 3.7915V2.9165H9.04199V3.7915C9.04199 3.86886 9.07272 3.94304 9.12742 3.99774C9.18212 4.05244 9.2563 4.08317 9.33366 4.08317C9.41101 4.08317 9.4852 4.05244 9.5399 3.99774C9.59459 3.94304 9.62532 3.86886 9.62532 3.7915V2.9165H11.3753C11.6074 2.9165 11.8299 3.00869 11.994 3.17278C12.1581 3.33688 12.2503 3.55944 12.2503 3.7915V5.83317Z" fill="white"/>
</svg>
