<svg width="17" height="17" viewBox="0 0 17 17" fill="none" xmlns="http://www.w3.org/2000/svg">
<path d="M10.625 13.8125H1.0625V10.625C1.62609 10.625 2.16659 10.4011 2.5651 10.0026C2.96362 9.60409 3.1875 9.06359 3.1875 8.5C3.1875 7.93641 2.96362 7.39591 2.5651 6.9974C2.16659 6.59888 1.62609 6.375 1.0625 6.375V3.1875H10.625V5.84375H11.6875V3.1875H15.9375V6.375C15.3739 6.375 14.8334 6.59888 14.4349 6.9974C14.0364 7.39591 13.8125 7.93641 13.8125 8.5C13.8125 9.06359 14.0364 9.60409 14.4349 10.0026C14.8334 10.4011 15.3739 10.625 15.9375 10.625V13.8125H11.6875V11.1562H10.625V13.8125ZM10.625 6.90625V10.0938H11.6875V6.90625H10.625Z" fill="white"/>
</svg>
