<svg width="16" height="17" viewBox="0 0 16 17" fill="none" xmlns="http://www.w3.org/2000/svg">
<path d="M12.6667 13.1667H3.33333V3.83333H7.33333V2.5H3.33333C2.98004 2.50106 2.64151 2.64187 2.39169 2.89169C2.14187 3.14151 2.00106 3.48004 2 3.83333V13.1667C2.00106 13.52 2.14187 13.8585 2.39169 14.1083C2.64151 14.3581 2.98004 14.4989 3.33333 14.5H12.6667C13.02 14.4989 13.3585 14.3581 13.6083 14.1083C13.8581 13.8585 13.9989 13.52 14 13.1667V10.5H12.6667V13.1667Z" fill="white"/>
<path d="M9.99967 3.83331H13.9997V7.83331C13.9997 8.01012 13.9294 8.17969 13.8044 8.30472C13.6794 8.42974 13.5098 8.49998 13.333 8.49998H10.6663C10.4895 8.49998 10.32 8.42974 10.1949 8.30472C10.0699 8.17969 9.99967 8.01012 9.99967 7.83331V3.83331ZM14.6663 2.49998H13.333L12.9523 1.83331H11.047L10.6663 2.49998H9.33301V3.16665H14.6663V2.49998Z" fill="white"/>
</svg>
