<svg width="16" height="16" viewBox="0 0 16 16" fill="none" xmlns="http://www.w3.org/2000/svg">
<path fill-rule="evenodd" clip-rule="evenodd" d="M2 6.16669C1.72386 6.16669 1.5 6.39055 1.5 6.66669V12.6667C1.5 13.6792 2.32081 14.5 3.33333 14.5H7.66667V12.1668C7.66667 9.68155 9.6814 7.66682 12.1667 7.66682C13.0209 7.66682 13.8196 7.98189 14.5 8.39549V6.66669C14.5 6.39055 14.2761 6.16669 14 6.16669H2Z" fill="white"/>
<path fill-rule="evenodd" clip-rule="evenodd" d="M4.66667 0.833313C4.94281 0.833313 5.16667 1.05717 5.16667 1.33331V3.99998C5.16667 4.27612 4.94281 4.49998 4.66667 4.49998C4.39053 4.49998 4.16667 4.27612 4.16667 3.99998V3.16665H3.33333C2.87309 3.16665 2.5 3.53974 2.5 3.99998V6.66665C2.5 6.94278 2.27614 7.16665 2 7.16665C1.72386 7.16665 1.5 6.94278 1.5 6.66665V3.99998C1.5 2.98746 2.32081 2.16665 3.33333 2.16665H4.16667V1.33331C4.16667 1.05717 4.39053 0.833313 4.66667 0.833313ZM10 0.833313C10.2761 0.833313 10.5 1.05717 10.5 1.33331V3.99998C10.5 4.27612 10.2761 4.49998 10 4.49998C9.72387 4.49998 9.5 4.27612 9.5 3.99998V3.16665H7C6.72387 3.16665 6.5 2.94279 6.5 2.66665C6.5 2.39051 6.72387 2.16665 7 2.16665H9.5V1.33331C9.5 1.05717 9.72387 0.833313 10 0.833313ZM11.8333 2.66665C11.8333 2.39051 12.0572 2.16665 12.3333 2.16665H12.6667C13.6792 2.16665 14.5 2.98746 14.5 3.99998V6.66665C14.5 6.94278 14.2761 7.16665 14 7.16665C13.7239 7.16665 13.5 6.94278 13.5 6.66665V3.99998C13.5 3.53974 13.1269 3.16665 12.6667 3.16665H12.3333C12.0572 3.16665 11.8333 2.94279 11.8333 2.66665Z" fill="white"/>
<path d="M10.5412 10.6237H13.7888V13.8712C13.7888 14.0148 13.7317 14.1525 13.6302 14.254C13.5287 14.3555 13.391 14.4125 13.2475 14.4125H11.0825C10.939 14.4125 10.8013 14.3555 10.6998 14.254C10.5983 14.1525 10.5412 14.0148 10.5412 13.8712V10.6237ZM14.33 9.54125H13.2475L12.9384 9H11.3916L11.0825 9.54125H10V10.0825H14.33V9.54125Z" fill="white"/>
</svg>
