<svg width="37" height="36" viewBox="0 0 37 36" fill="none" xmlns="http://www.w3.org/2000/svg">
<path fill-rule="evenodd" clip-rule="evenodd" d="M2.44686 5.85611C2.089 10.1229 2.20067 14.4162 2.77986 18.6586C2.78305 18.8217 2.85089 18.9769 2.96848 19.09C3.08606 19.2031 3.24375 19.2648 3.40686 19.2616C3.56997 19.2584 3.72513 19.1906 3.83822 19.073C3.9513 18.9554 4.01305 18.7977 4.00986 18.6346C4.40373 14.3637 4.27276 10.0606 3.61986 5.82161C3.61529 5.66606 3.54911 5.5187 3.43588 5.41194C3.32266 5.30519 3.17166 5.24778 3.01611 5.25236C2.86056 5.25693 2.7132 5.32311 2.60645 5.43634C2.49969 5.54956 2.44229 5.70056 2.44686 5.85611ZM10.8649 0.774108C9.30036 18.2461 12.0394 14.5606 12.0049 14.0326C12.3529 9.62261 12.3619 5.19311 12.0319 0.781608C12.0329 0.626854 11.9723 0.478044 11.8636 0.367913C11.7549 0.257782 11.6069 0.195353 11.4521 0.194358C11.2974 0.193364 11.1485 0.253885 11.0384 0.36261C10.9283 0.471334 10.8659 0.619354 10.8649 0.774108ZM20.0374 3.92711C19.5474 7.09391 19.5951 10.3207 20.1784 13.4716C20.1839 13.6347 20.2541 13.7889 20.3733 13.9003C20.4926 14.0117 20.6513 14.0712 20.8144 14.0656C20.9775 14.06 21.1317 13.9899 21.2431 13.8706C21.3545 13.7514 21.4139 13.5927 21.4084 13.4296C21.7849 10.2646 21.7159 7.06511 21.2044 3.91961C21.1929 3.77212 21.1259 3.63447 21.017 3.53436C20.9081 3.43425 20.7653 3.37912 20.6174 3.38007C20.4694 3.38102 20.3274 3.43798 20.2197 3.53948C20.1121 3.64098 20.047 3.77949 20.0374 3.92711ZM28.4674 5.19911C28.4696 5.27987 28.4878 5.3594 28.5208 5.43315C28.5538 5.50689 28.601 5.57342 28.6597 5.62893C28.7184 5.68443 28.7875 5.72783 28.8629 5.75665C28.9384 5.78546 29.0188 5.79912 29.0996 5.79686C29.1804 5.79459 29.2599 5.77644 29.3336 5.74344C29.4074 5.71044 29.4739 5.66324 29.5294 5.60453C29.5849 5.54582 29.6283 5.47675 29.6572 5.40127C29.686 5.32579 29.6996 5.24537 29.6974 5.16461C30.9574 -1.19839 26.6944 -1.90789 28.4674 5.19911ZM3.18036 26.2621C2.72026 29.2599 2.75471 32.3129 3.28236 35.2996C3.29323 35.4549 3.36259 35.6003 3.47644 35.7065C3.5903 35.8126 3.74019 35.8717 3.89586 35.8717C4.05154 35.8717 4.20142 35.8126 4.31528 35.7065C4.42914 35.6003 4.4985 35.4549 4.50936 35.2996C4.95636 32.2966 4.89936 29.2411 4.34586 26.2561C4.35254 26.1752 4.34233 26.0939 4.31587 26.0172C4.28942 25.9405 4.24729 25.8701 4.19218 25.8106C4.13707 25.751 4.07017 25.7036 3.99574 25.6713C3.92131 25.639 3.84097 25.6225 3.75984 25.6229C3.6787 25.6234 3.59854 25.6407 3.52445 25.6737C3.45035 25.7068 3.38395 25.7549 3.32945 25.815C3.27495 25.8751 3.23356 25.9459 3.20789 26.0229C3.18222 26.0999 3.17285 26.1813 3.18036 26.2621ZM11.3299 20.6731C10.9809 24.3134 11.1212 27.984 11.7469 31.5871C11.758 31.7463 11.8306 31.8949 11.9492 32.0016C12.0679 32.1083 12.2234 32.1647 12.3829 32.1588C12.5424 32.153 12.6933 32.0854 12.8039 31.9703C12.9144 31.8552 12.9759 31.7017 12.9754 31.5421C13.3215 27.899 13.161 24.2256 12.4984 20.6266C12.5001 20.5468 12.4855 20.4675 12.4555 20.3936C12.4254 20.3197 12.3806 20.2527 12.3237 20.1967C12.2668 20.1408 12.1991 20.0971 12.1246 20.0683C12.0502 20.0395 11.9707 20.0262 11.891 20.0293C11.8112 20.0323 11.733 20.0517 11.661 20.0861C11.589 20.1206 11.5248 20.1694 11.4724 20.2296C11.42 20.2897 11.3804 20.36 11.3562 20.436C11.3319 20.512 11.3235 20.5922 11.3314 20.6716M20.3299 21.1291C19.811 24.9553 19.8767 28.8382 20.5249 32.6446C20.5306 32.7253 20.5521 32.804 20.5883 32.8764C20.6244 32.9487 20.6745 33.0132 20.7355 33.0662C20.7966 33.1192 20.8675 33.1597 20.9442 33.1852C21.0209 33.2108 21.1019 33.2211 21.1826 33.2154C21.2633 33.2096 21.342 33.1881 21.4144 33.152C21.4867 33.1158 21.5512 33.0658 21.6042 33.0047C21.6572 32.9436 21.6977 32.8727 21.7233 32.796C21.7488 32.7193 21.7591 32.6383 21.7534 32.5576C22.0361 28.7402 21.9492 24.9043 21.4939 21.1036C21.4781 20.9579 21.4082 20.8234 21.298 20.7267C21.1877 20.6301 21.0453 20.5783 20.8987 20.5817C20.7522 20.5851 20.6122 20.6434 20.5066 20.745C20.401 20.8467 20.3374 20.9843 20.3284 21.1306M28.9474 14.8021C28.5107 21.6021 28.5623 28.4246 29.1019 35.2171C29.1019 35.3802 29.1667 35.5366 29.282 35.652C29.3973 35.7673 29.5538 35.8321 29.7169 35.8321C29.88 35.8321 30.0364 35.7673 30.1517 35.652C30.2671 35.5366 30.3319 35.3802 30.3319 35.2171C30.7864 28.4153 30.7156 21.5886 30.1204 14.7976C30.1092 14.6497 30.0424 14.5116 29.9335 14.4109C29.8246 14.3103 29.6816 14.2547 29.5333 14.2552C29.385 14.2558 29.2424 14.3125 29.1342 14.414C29.0261 14.5155 28.9604 14.6541 28.9504 14.8021H28.9474Z" fill="#717171"/>
<path fill-rule="evenodd" clip-rule="evenodd" d="M30.8147 10.7506C30.0168 10.6567 29.2158 10.5906 28.4132 10.5526C28.3336 10.558 28.2536 10.5472 28.1783 10.5209C28.1029 10.4946 28.0336 10.4532 27.9747 10.3994C27.9157 10.3455 27.8683 10.2803 27.8352 10.2076C27.8022 10.1349 27.7842 10.0563 27.7824 9.97648C27.7805 9.89666 27.7949 9.81729 27.8246 9.74318C27.8543 9.66906 27.8987 9.60173 27.9551 9.54524C28.0116 9.48876 28.0789 9.4443 28.153 9.41454C28.2271 9.38479 28.3064 9.37035 28.3862 9.37211C30.7391 9.10437 33.1086 9.01112 35.4752 9.09311C36.8462 9.08711 36.5702 11.2531 36.1907 14.2111C36.0663 15.1451 35.9588 16.0812 35.8682 17.0191C35.8682 17.1822 35.8034 17.3386 35.6881 17.454C35.5728 17.5693 35.4163 17.6341 35.2532 17.6341C35.0901 17.6341 34.9337 17.5693 34.8184 17.454C34.703 17.3386 34.6382 17.1822 34.6382 17.0191C34.4957 14.8336 34.5137 14.0551 34.5332 13.1146C34.5422 12.8206 34.5482 12.5116 34.5512 12.1366C34.1222 12.4666 33.5537 12.8896 32.8052 13.4461C31.4522 14.4511 29.5127 15.8941 26.7662 18.0031C22.6052 21.1981 21.3362 22.8196 20.3597 22.6591C19.5257 22.5241 18.9047 21.0886 16.8842 18.2266C11.5517 21.9616 9.18923 23.5036 6.90623 24.9916C5.34173 26.0116 3.81323 27.0091 1.39073 28.6711C1.26506 28.7481 1.11494 28.7749 0.970399 28.746C0.825854 28.7171 0.697538 28.6348 0.611112 28.5154C0.524685 28.396 0.48652 28.2483 0.504248 28.102C0.521977 27.9557 0.594292 27.8214 0.706731 27.7261C4.02561 25.1596 7.39425 22.6582 10.8107 20.2231C14.9612 17.2516 16.3157 15.8191 17.3192 16.0336C18.1847 16.2181 18.7892 17.6371 20.7122 20.3596C25.3727 16.6711 28.6727 14.4841 33.7067 11.1451L33.9392 10.9906C32.6192 10.9426 31.6937 10.8436 30.8147 10.7506Z" fill="#717171"/>
</svg>
