<svg width="16" height="17" viewBox="0 0 16 17" fill="none" xmlns="http://www.w3.org/2000/svg">
<path d="M8 1.5H2C1.73478 1.5 1.48043 1.60536 1.29289 1.79289C1.10536 1.98043 1 2.23478 1 2.5V8.5C1 10.3925 1.5715 12.148 2.757 13.435C2.81433 13.4977 2.87333 13.559 2.934 13.619C3.0635 13.5435 3.214 13.5 3.375 13.5C3.6 13.5 3.8135 13.37 3.9235 13.172C3.77169 13.0426 3.62777 12.9041 3.4925 12.7575C2.5115 11.6925 2 10.1975 2 8.5C2 8.13233 2.02383 7.77517 2.0715 7.4285L6.9335 2.5665C7.28725 2.52199 7.64346 2.49978 8 2.5C9.892 2.5 11.302 3.083 12.2745 4.0055C12.3075 4.00217 12.341 4.00033 12.375 4C12.699 4 13 3.7295 13 3.375C13 3.356 13.0007 3.337 13.002 3.318C11.818 2.1735 10.136 1.5 8 1.5ZM2 2.5H3.207L2 3.707V2.5ZM4.293 2.5H5.586L2 6.086V4.793L4.293 2.5ZM8 15.5C6.74 15.5 5.638 15.2655 4.7025 14.8385C5.00156 14.6377 5.25157 14.3721 5.434 14.0615C6.163 14.3425 7.0165 14.5 8 14.5C10.049 14.5 11.5325 13.816 12.5075 12.7575C12.8033 12.4352 13.0569 12.0764 13.262 11.69C13.7837 11.5801 14.2635 11.3244 14.6455 10.9525C14.3575 11.884 13.8925 12.7295 13.243 13.435C12.0515 14.729 10.2855 15.5 8 15.5Z" fill="white"/>
<path d="M11.432 7.3645C11.6355 7.093 11.902 6.871 12.2095 6.72C12.1669 6.65683 12.1196 6.59699 12.068 6.541C11.781 6.226 11.348 6 10.75 6C10.158 6 9.7265 6.2155 9.438 6.53C9.164 6.828 9.0535 7.1765 9.0095 7.405C8.99529 7.47012 8.99424 7.53743 9.00642 7.60296C9.01861 7.66849 9.04377 7.73093 9.08043 7.7866C9.11709 7.84226 9.16451 7.89004 9.2199 7.92711C9.27529 7.96419 9.33754 7.98981 9.40298 8.00248C9.46842 8.01515 9.53573 8.0146 9.60096 8.00088C9.66618 7.98715 9.72801 7.96053 9.78279 7.92256C9.83758 7.8846 9.88422 7.83606 9.91998 7.77981C9.95573 7.72356 9.97988 7.66072 9.991 7.595C10.015 7.472 10.07 7.32 10.1745 7.2065C10.2645 7.1085 10.4235 7 10.75 7C11.071 7 11.2345 7.111 11.3285 7.2145C11.3715 7.261 11.4055 7.313 11.432 7.3645ZM14.9105 7.2315C14.6019 6.89399 14.1978 6.65854 13.752 6.5565C13.6568 6.20207 13.5292 5.85712 13.371 5.526C13.6816 5.38059 13.9583 5.17158 14.183 4.9125C14.5495 5.6205 14.7905 6.404 14.9105 7.2315ZM5.1745 7.2065C5.0695 7.32 5.0145 7.4715 4.991 7.5955C4.96567 7.72572 4.88965 7.84055 4.77966 7.91472C4.66967 7.98889 4.53472 8.01633 4.4045 7.991C4.27428 7.96567 4.15945 7.88965 4.08528 7.77966C4.01111 7.66967 3.98367 7.53472 4.009 7.4045C4.0535 7.1765 4.164 6.828 4.438 6.53C4.7265 6.2155 5.158 6 5.75 6C6.3475 6 6.781 6.226 7.068 6.541C7.34 6.8395 7.453 7.187 7.493 7.4145C7.51568 7.54519 7.48551 7.67953 7.40913 7.78797C7.33276 7.89641 7.21644 7.97007 7.08575 7.99275C6.95506 8.01543 6.82072 7.98526 6.71228 7.90888C6.60384 7.83251 6.53018 7.71619 6.5075 7.5855C6.48239 7.44795 6.42054 7.31976 6.3285 7.2145C6.235 7.111 6.071 7 5.75 7C5.4235 7 5.264 7.1085 5.1745 7.206M13 2.5C13.1326 2.5 13.2598 2.44732 13.3536 2.35355C13.4473 2.25979 13.5 2.13261 13.5 2C13.5 1.86739 13.4473 1.74021 13.3536 1.64645C13.2598 1.55268 13.1326 1.5 13 1.5C12.8674 1.5 12.7402 1.55268 12.6464 1.64645C12.5527 1.74021 12.5 1.86739 12.5 2C12.5 2.13261 12.5527 2.25979 12.6464 2.35355C12.7402 2.44732 12.8674 2.5 13 2.5ZM13.875 3C13.9745 3 14.0698 3.03951 14.1402 3.10983C14.2105 3.18016 14.25 3.27554 14.25 3.375C14.25 4.474 13.334 5.25 12.375 5.25C12.2755 5.25 12.1802 5.21049 12.1098 5.14016C12.0395 5.06984 12 4.97446 12 4.875C12 4.77554 12.0395 4.68016 12.1098 4.60984C12.1802 4.53951 12.2755 4.5 12.375 4.5C12.9545 4.5 13.5 4.026 13.5 3.375C13.5 3.27554 13.5395 3.18016 13.6098 3.10983C13.6802 3.03951 13.7755 3 13.875 3ZM4.875 12.5C4.97446 12.5 5.06984 12.5395 5.14016 12.6098C5.21049 12.6802 5.25 12.7755 5.25 12.875C5.25 13.974 4.334 14.75 3.375 14.75C3.27554 14.75 3.18016 14.7105 3.10983 14.6402C3.03951 14.5698 3 14.4745 3 14.375C3 14.2755 3.03951 14.1802 3.10983 14.1098C3.18016 14.0395 3.27554 14 3.375 14C3.9545 14 4.5 13.526 4.5 12.875C4.5 12.7755 4.53951 12.6802 4.60984 12.6098C4.68016 12.5395 4.77554 12.5 4.875 12.5ZM13.5 15C13.6326 15 13.7598 14.9473 13.8536 14.8536C13.9473 14.7598 14 14.6326 14 14.5C14 14.3674 13.9473 14.2402 13.8536 14.1464C13.7598 14.0527 13.6326 14 13.5 14C13.3674 14 13.2402 14.0527 13.1464 14.1464C13.0527 14.2402 13 14.3674 13 14.5C13 14.6326 13.0527 14.7598 13.1464 14.8536C13.2402 14.9473 13.3674 15 13.5 15ZM5 10.5C5 10.6326 4.94732 10.7598 4.85355 10.8536C4.75979 10.9473 4.63261 11 4.5 11C4.36739 11 4.24021 10.9473 4.14645 10.8536C4.05268 10.7598 4 10.6326 4 10.5C4 10.3674 4.05268 10.2402 4.14645 10.1464C4.24021 10.0527 4.36739 10 4.5 10C4.63261 10 4.75979 10.0527 4.85355 10.1464C4.94732 10.2402 5 10.3674 5 10.5ZM13.1605 7C12.9424 6.99993 12.7265 7.04284 12.525 7.12626C12.3235 7.20969 12.1404 7.332 11.9862 7.4862C11.832 7.64041 11.7097 7.82349 11.6263 8.02498C11.5428 8.22647 11.4999 8.44242 11.5 8.6605V8.875C11.5 9.02274 11.5291 9.16903 11.5856 9.30552C11.6422 9.44201 11.725 9.56603 11.8295 9.6705C11.934 9.77496 12.058 9.85783 12.1945 9.91436C12.331 9.9709 12.4773 10 12.625 10C12.8571 10 13.0796 9.90781 13.2437 9.74372C13.4078 9.57962 13.5 9.35706 13.5 9.125V8.875C13.5 8.77554 13.4605 8.68016 13.3902 8.60983C13.3198 8.53951 13.2245 8.5 13.125 8.5C13.0255 8.5 12.9302 8.53951 12.8598 8.60983C12.7895 8.68016 12.75 8.77554 12.75 8.875V9.125C12.75 9.15815 12.7368 9.18995 12.7134 9.21339C12.6899 9.23683 12.6582 9.25 12.625 9.25C12.5255 9.25 12.4302 9.21049 12.3598 9.14017C12.2895 9.06984 12.25 8.97446 12.25 8.875V8.6605C12.25 8.1575 12.658 7.75 13.1605 7.75H13.25C13.5152 7.75 13.7696 7.85536 13.9571 8.04289C14.1446 8.23043 14.25 8.48478 14.25 8.75V8.9305C14.2499 9.34672 14.0845 9.74585 13.7902 10.0402C13.4958 10.3345 13.0967 10.4999 12.6805 10.5H10.064C10.0843 10.41 10.0947 10.3167 10.095 10.22C10.095 10.0545 10.0624 9.89069 9.99909 9.73782C9.93577 9.58495 9.84296 9.44605 9.72596 9.32905C9.60895 9.21204 9.47005 9.11923 9.31718 9.05591C9.16431 8.99259 9.00047 8.96 8.835 8.96C8.70239 8.96 8.57521 9.01268 8.48145 9.10645C8.38768 9.20021 8.335 9.32739 8.335 9.46C8.335 9.59261 8.38768 9.71979 8.48145 9.81355C8.57521 9.90732 8.70239 9.96 8.835 9.96C8.86914 9.96 8.90295 9.96673 8.9345 9.97979C8.96604 9.99286 8.9947 10.012 9.01885 10.0362C9.04299 10.0603 9.06214 10.089 9.07521 10.1205C9.08827 10.152 9.095 10.1859 9.095 10.22C9.095 10.2541 9.08827 10.288 9.07521 10.3195C9.06214 10.351 9.04299 10.3797 9.01885 10.4038C8.9947 10.428 8.96604 10.4471 8.9345 10.4602C8.90295 10.4733 8.86914 10.48 8.835 10.48C8.70239 10.48 8.57521 10.5327 8.48145 10.6264C8.38768 10.7202 8.335 10.8474 8.335 10.98C8.335 11.1126 8.38768 11.2398 8.48145 11.3336C8.57521 11.4273 8.70239 11.48 8.835 11.48C8.90396 11.48 8.97009 11.5074 9.01885 11.5562C9.06761 11.6049 9.095 11.671 9.095 11.74C9.095 11.809 9.06761 11.8751 9.01885 11.9238C8.97009 11.9726 8.90396 12 8.835 12C8.70239 12 8.57521 12.0527 8.48145 12.1464C8.38768 12.2402 8.335 12.3674 8.335 12.5C8.335 12.6326 8.38768 12.7598 8.48145 12.8536C8.57521 12.9473 8.70239 13 8.835 13C9.04294 13 9.24766 12.9486 9.43089 12.8503C9.61412 12.752 9.77017 12.6098 9.88513 12.4366C10.0001 12.2633 10.0704 12.0643 10.0897 11.8572C10.1091 11.6502 10.0769 11.4416 9.996 11.25H12.681C13.296 11.2497 13.8858 11.0053 14.3207 10.5703C14.7555 10.1354 14.9999 9.54554 15 8.9305V8.75C15 8.28587 14.8156 7.84075 14.4874 7.51256C14.1592 7.18437 13.7141 7 13.25 7H13.1605Z" fill="white"/>
</svg>
