<svg width="16" height="17" viewBox="0 0 16 17" fill="none" xmlns="http://www.w3.org/2000/svg">
<path d="M2 14.5V2.5H14V14.5H2ZM3.33333 13.1667H12.6667V5.16667H3.33333V13.1667ZM8 11.8333C7.08889 11.8333 6.27511 11.5862 5.55867 11.092C4.84222 10.5978 4.32267 9.956 4 9.16667C4.32222 8.37778 4.84178 7.73622 5.55867 7.242C6.27556 6.74778 7.08933 6.50044 8 6.5C8.91067 6.49956 9.72467 6.74689 10.442 7.242C11.1593 7.73711 11.6787 8.37867 12 9.16667C11.6778 9.95556 11.1584 10.5973 10.442 11.092C9.72556 11.5867 8.91156 11.8338 8 11.8333ZM8 10.8333C8.62222 10.8333 9.18889 10.686 9.7 10.3913C10.2111 10.0967 10.6111 9.68844 10.9 9.16667C10.6111 8.64444 10.2111 8.236 9.7 7.94133C9.18889 7.64667 8.62222 7.49956 8 7.5C7.37778 7.50044 6.81111 7.64778 6.3 7.942C5.78889 8.23622 5.38889 8.64444 5.1 9.16667C5.38889 9.68889 5.78889 10.0973 6.3 10.392C6.81111 10.6867 7.37778 10.8338 8 10.8333ZM8 10.1667C8.27778 10.1667 8.514 10.0696 8.70867 9.87533C8.90333 9.68111 9.00044 9.44489 9 9.16667C8.99956 8.88844 8.90244 8.65244 8.70867 8.45867C8.51489 8.26489 8.27867 8.16756 8 8.16667C7.72133 8.16578 7.48533 8.26311 7.292 8.45867C7.09867 8.65422 7.00133 8.89022 7 9.16667C6.99867 9.44311 7.096 9.67933 7.292 9.87533C7.488 10.0713 7.724 10.1684 8 10.1667Z" fill="white"/>
</svg>
