<svg width="26" height="26" viewBox="0 0 26 26" fill="none" xmlns="http://www.w3.org/2000/svg">
<path d="M23.8337 13.2208V14.8686C23.8337 19.0936 23.8337 21.2072 22.564 22.5202C21.2943 23.8332 19.2522 23.8332 15.167 23.8332H10.8337C6.74841 23.8332 4.70524 23.8332 3.43666 22.5202C2.16808 21.2072 2.16699 19.0947 2.16699 14.8686V13.2208C2.16699 10.7411 2.16699 9.50175 2.73033 8.47475C3.29149 7.44667 4.31958 6.80967 6.37466 5.5335L8.54133 4.18909C10.7134 2.84034 11.8 2.1665 13.0003 2.1665C14.2007 2.1665 15.2862 2.84034 17.4593 4.18909L19.626 5.5335C21.6811 6.80967 22.7092 7.44667 23.2714 8.47475" fill="white"/>
<path d="M9.75098 17.333C10.6718 18.0155 11.7931 18.4163 13.001 18.4163C14.2089 18.4163 15.3301 18.0155 16.251 17.333" stroke="black" stroke-linecap="round"/>
</svg>
