<svg width="22" height="20" viewBox="0 0 22 20" fill="none" xmlns="http://www.w3.org/2000/svg">
<path fill-rule="evenodd" clip-rule="evenodd" d="M2.99663 5.55956L9.35502 1.10731C9.69638 0.868362 10.1187 0.774771 10.529 0.847116C10.9394 0.919461 11.3042 1.15182 11.5432 1.49309L12.5462 2.92506C12.5609 2.94601 12.5749 2.96736 12.5882 2.98909L2.99663 5.55956ZM0.843773 10.7229L0.40888 9.0996C0.30115 8.697 0.357762 8.26809 0.566262 7.90723C0.774761 7.54637 1.11807 7.28312 1.52067 7.17538L17.4581 2.90502C17.8606 2.79715 18.2896 2.85359 18.6505 3.06194C19.0114 3.27029 19.2748 3.61348 19.3827 4.01602L19.8349 5.70452C19.8988 5.9429 19.8911 6.1948 19.8127 6.42884C19.7344 6.66287 19.589 6.86867 19.3945 7.0206C19.0889 7.25897 18.8606 7.58242 18.7383 7.95024C18.6161 8.31807 18.6054 8.71383 18.7076 9.08772C18.8097 9.46162 19.0202 9.79693 19.3125 10.0515C19.6049 10.306 19.9659 10.4684 20.3503 10.5182C20.5877 10.5492 20.8106 10.6499 20.9907 10.8076C21.1709 10.9653 21.3002 11.1729 21.3623 11.4041L21.8227 13.1236C21.9306 13.5262 21.8742 13.9551 21.6658 14.316C21.4575 14.6769 21.1143 14.9403 20.7117 15.0482L4.77352 19.3186C4.37103 19.4264 3.94222 19.3698 3.58138 19.1615C3.22054 18.9532 2.95722 18.61 2.84931 18.2076L2.41599 16.5898C2.3475 16.3352 2.35408 16.0663 2.43493 15.8154C2.51579 15.5644 2.66747 15.3422 2.8717 15.1755C3.16517 14.936 3.38313 14.6167 3.49932 14.2561C3.61551 13.8956 3.62498 13.5091 3.52659 13.1433C3.4282 12.7774 3.22615 12.4479 2.94476 12.1942C2.66338 11.9406 2.31467 11.7737 1.94063 11.7137C1.68188 11.6719 1.44071 11.5563 1.24617 11.3806C1.05163 11.205 0.912027 10.9768 0.844166 10.7237M14.782 8.09585C14.9332 8.05742 15.0753 7.98934 15.2001 7.89554C15.3248 7.80175 15.4297 7.68411 15.5086 7.54946C15.5875 7.41481 15.6389 7.26583 15.6598 7.11116C15.6807 6.95649 15.6706 6.79922 15.6302 6.64847C15.5898 6.49772 15.5199 6.35649 15.4244 6.23299C15.329 6.10949 15.21 6.00616 15.0744 5.92902C14.9387 5.85188 14.789 5.80245 14.6341 5.7836C14.4792 5.76476 14.3221 5.77687 14.1718 5.81924C13.8736 5.90337 13.6205 6.10159 13.4673 6.37099C13.3141 6.64039 13.2732 6.95929 13.3534 7.25863C13.4336 7.55797 13.6285 7.81367 13.8959 7.97037C14.1633 8.12706 14.4816 8.17214 14.782 8.09585ZM15.5952 11.1318C15.7447 11.0918 15.8848 11.0227 16.0076 10.9285C16.1305 10.8343 16.2335 10.7168 16.3109 10.5828C16.3883 10.4488 16.4386 10.3008 16.4588 10.1474C16.479 9.99393 16.4688 9.838 16.4288 9.68849C16.3888 9.53898 16.3197 9.39882 16.2255 9.27601C16.1313 9.1532 16.0138 9.05015 15.8798 8.97274C15.7458 8.89533 15.5978 8.84507 15.4443 8.82484C15.2909 8.80462 15.135 8.81481 14.9855 8.85485C14.6835 8.93575 14.4261 9.13329 14.2698 9.40401C14.1135 9.67473 14.0711 9.99645 14.152 10.2984C14.2329 10.6003 14.4305 10.8578 14.7012 11.0141C14.9719 11.1704 15.2932 11.2128 15.5952 11.1318ZM16.4092 14.1675C16.5608 14.1294 16.7034 14.0616 16.8286 13.9679C16.9538 13.8743 17.0591 13.7566 17.1384 13.6218C17.2177 13.4871 17.2694 13.3379 17.2904 13.1829C17.3115 13.028 17.3015 12.8704 17.261 12.7194C17.2206 12.5683 17.1505 12.4268 17.0548 12.3032C16.9591 12.1795 16.8398 12.0761 16.7038 11.999C16.5678 11.9219 16.4177 11.8726 16.2625 11.854C16.1072 11.8355 15.9498 11.848 15.7995 11.8908C15.502 11.9756 15.2498 12.174 15.0973 12.4431C14.9448 12.7121 14.9041 13.0304 14.9841 13.3292C15.0641 13.6279 15.2584 13.8833 15.525 14.0401C15.7916 14.1969 16.1092 14.2427 16.4092 14.1675Z" fill="#00FFC4"/>
</svg>
