<svg width="26" height="26" viewBox="0 0 26 26" fill="none" xmlns="http://www.w3.org/2000/svg">
<path d="M12.9276 12.4943C14.8776 12.4943 16.3942 10.9054 16.3942 8.95544C16.3942 7.00544 14.8053 5.48877 12.8553 5.48877C10.9053 5.48877 9.38867 7.07766 9.38867 8.95544C9.38867 10.9054 10.9776 12.4943 12.9276 12.4943ZM12.8553 6.93321C12.9276 6.93321 12.9276 6.93321 12.8553 6.93321C14.0109 6.93321 14.9498 7.8721 14.9498 9.02766C14.9498 10.1832 14.0109 11.0499 12.8553 11.0499C11.6998 11.0499 10.8331 10.111 10.8331 9.02766C10.8331 7.8721 11.772 6.93321 12.8553 6.93321Z" fill="white"/>
<path d="M23.6163 12.061C22.2441 10.8332 20.4386 10.1832 18.5608 10.2554H17.983C17.8386 10.8332 17.6219 11.3388 17.333 11.7721C17.7663 11.6999 18.1275 11.6999 18.5608 11.6999C19.933 11.6277 21.3052 12.061 22.3886 12.8554V18.0554H23.833V12.2777L23.6163 12.061Z" fill="white"/>
<path d="M16.8998 5.63325C17.2609 4.76658 18.272 4.33325 19.2109 4.69436C20.0776 5.05547 20.5109 6.06658 20.1498 7.00547C19.8609 7.65547 19.2109 8.0888 18.5609 8.0888C18.4165 8.0888 18.1998 8.0888 18.0553 8.01658C18.1276 8.37769 18.1276 8.7388 18.1276 9.02769V9.46102C18.272 9.46102 18.4165 9.53325 18.5609 9.53325C20.3665 9.53325 21.8109 8.0888 21.8109 6.35547C21.8109 4.54991 20.3664 3.10547 18.6331 3.10547C17.4776 3.10547 16.4664 3.68325 15.8887 4.69436C16.2498 4.91102 16.6109 5.19991 16.8998 5.63325Z" fill="white"/>
<path d="M8.66699 11.8444C8.3781 11.411 8.16144 10.9055 8.01699 10.3277H7.43921C5.56144 10.2555 3.75588 10.9055 2.38366 12.061L2.16699 12.2777V18.0555H3.61144V12.8555C4.76699 12.061 6.06699 11.6277 7.43921 11.6999C7.87255 11.6999 8.30588 11.7722 8.66699 11.8444Z" fill="white"/>
<path d="M7.43894 9.46096C7.58338 9.46096 7.72783 9.46095 7.87227 9.38873V8.9554C7.87227 8.59429 7.87227 8.23318 7.94449 7.94429C7.80005 8.01651 7.58338 8.01651 7.43894 8.01651C6.50005 8.01651 5.70561 7.22207 5.70561 6.28318C5.70561 5.34429 6.50005 4.54984 7.43894 4.54984C8.16116 4.54984 8.81116 4.98318 9.10005 5.63318C9.38894 5.27207 9.82227 4.91096 10.1834 4.62207C9.24449 3.1054 7.29449 2.59984 5.77783 3.53873C4.26116 4.47762 3.75561 6.42762 4.69449 7.94429C5.27227 8.88318 6.28338 9.46096 7.43894 9.46096Z" fill="white"/>
<path d="M18.8504 16.3944L18.706 16.1777C17.2615 14.5888 15.2393 13.6499 13.0727 13.7221C10.906 13.6499 8.81155 14.5888 7.3671 16.1777L7.22266 16.3944V21.8833C7.22266 22.5333 7.72821 23.111 8.45043 23.111H17.6949C18.3449 23.111 18.9227 22.5333 18.9227 21.8833V16.3944H18.8504ZM17.406 21.6666H8.6671V16.8999C9.82266 15.7444 11.4115 15.1666 13.0727 15.1666C14.6615 15.0944 16.2504 15.7444 17.406 16.8999V21.6666Z" fill="white"/>
</svg>
