<svg width="16" height="17" viewBox="0 0 16 17" fill="none" xmlns="http://www.w3.org/2000/svg">
<path d="M11.962 11.6984H3.74234C3.49365 11.6984 3.29199 11.4968 3.29199 11.248C3.29199 10.9993 3.49365 10.7977 3.74234 10.7977H11.962C13.6918 10.7977 15.099 9.39044 15.099 7.66068V6.86378C15.099 5.13402 13.6918 3.72677 11.962 3.72677H9.30766V5.04052H11.962C12.2107 5.04052 12.4124 5.24215 12.4124 5.49087C12.4124 5.73959 12.2107 5.94121 11.962 5.94121H8.85735C8.60866 5.94121 8.407 5.73959 8.407 5.49087V3.27646C8.407 3.02774 8.60866 2.82611 8.85735 2.82611H11.962C14.1884 2.82611 15.9997 4.6374 15.9997 6.86378V7.66068C15.9997 9.88709 14.1884 11.6984 11.962 11.6984Z" fill="white"/>
<path d="M11.9623 9.48399H8.30093C8.05224 9.48399 7.85059 9.28236 7.85059 9.03364C7.85059 8.78493 8.05224 8.5833 8.30093 8.5833H11.9623C12.4538 8.5833 12.8849 8.15214 12.8849 7.6607V6.8638C12.8849 6.61508 13.0866 6.41345 13.3353 6.41345C13.5839 6.41345 13.7856 6.61508 13.7856 6.8638V7.6607C13.7856 8.64902 12.9506 9.48399 11.9623 9.48399Z" fill="white"/>
<path d="M6.25521 13.7235L0.450195 10.1065L6.25521 6.4895V13.7235Z" fill="white"/>
<path d="M6.25536 14.1739C6.17257 14.1739 6.08995 14.1511 6.01723 14.1058L0.212188 10.4887C0.0802189 10.4065 0 10.262 0 10.1065C0 9.95102 0.0802189 9.80655 0.212188 9.72433L6.01723 6.10732C6.15601 6.02076 6.33092 6.01641 6.47395 6.09579C6.61701 6.17519 6.7057 6.32591 6.7057 6.48951V13.7236C6.7057 13.8872 6.61698 14.0379 6.47395 14.1173C6.40586 14.1551 6.33058 14.1739 6.25536 14.1739ZM1.30191 10.1065L5.80504 12.9123V7.30067L1.30191 10.1065Z" fill="white"/>
</svg>
