<svg width="16" height="16" viewBox="0 0 16 16" fill="none" xmlns="http://www.w3.org/2000/svg">
<path fill-rule="evenodd" clip-rule="evenodd" d="M2 6.16669C1.72386 6.16669 1.5 6.39055 1.5 6.66669V12.6667C1.5 13.6792 2.32081 14.5 3.33333 14.5H7.66667V12.1668C7.66667 9.68155 9.6814 7.66682 12.1667 7.66682C13.0209 7.66682 13.8196 7.98189 14.5 8.39549V6.66669C14.5 6.39055 14.2761 6.16669 14 6.16669H2Z" fill="white"/>
<path fill-rule="evenodd" clip-rule="evenodd" d="M4.66667 0.833313C4.94281 0.833313 5.16667 1.05717 5.16667 1.33331V3.99998C5.16667 4.27612 4.94281 4.49998 4.66667 4.49998C4.39053 4.49998 4.16667 4.27612 4.16667 3.99998V3.16665H3.33333C2.87309 3.16665 2.5 3.53974 2.5 3.99998V6.66665C2.5 6.94278 2.27614 7.16665 2 7.16665C1.72386 7.16665 1.5 6.94278 1.5 6.66665V3.99998C1.5 2.98746 2.32081 2.16665 3.33333 2.16665H4.16667V1.33331C4.16667 1.05717 4.39053 0.833313 4.66667 0.833313ZM10 0.833313C10.2761 0.833313 10.5 1.05717 10.5 1.33331V3.99998C10.5 4.27612 10.2761 4.49998 10 4.49998C9.72387 4.49998 9.5 4.27612 9.5 3.99998V3.16665H7C6.72387 3.16665 6.5 2.94279 6.5 2.66665C6.5 2.39051 6.72387 2.16665 7 2.16665H9.5V1.33331C9.5 1.05717 9.72387 0.833313 10 0.833313ZM11.8333 2.66665C11.8333 2.39051 12.0572 2.16665 12.3333 2.16665H12.6667C13.6792 2.16665 14.5 2.98746 14.5 3.99998V6.66665C14.5 6.94278 14.2761 7.16665 14 7.16665C13.7239 7.16665 13.5 6.94278 13.5 6.66665V3.99998C13.5 3.53974 13.1269 3.16665 12.6667 3.16665H12.3333C12.0572 3.16665 11.8333 2.94279 11.8333 2.66665Z" fill="white"/>
<path fill-rule="evenodd" clip-rule="evenodd" d="M11.9939 9.83331C11.0749 9.83331 10.249 10.4924 9.94258 11.4813C9.86084 11.7451 9.58078 11.8926 9.31698 11.8109C9.05324 11.7292 8.90564 11.449 8.98738 11.1853C9.40218 9.84685 10.5684 8.83331 11.9939 8.83331C13.3261 8.83331 14.434 9.72038 14.9099 10.9277C15.0112 11.1846 14.885 11.475 14.6281 11.5762C14.3712 11.6775 14.0808 11.5514 13.9796 11.2944C13.6304 10.4089 12.8541 9.83331 11.9939 9.83331Z" fill="white"/>
<path fill-rule="evenodd" clip-rule="evenodd" d="M14.6667 9.19989C14.9429 9.19989 15.1667 9.42376 15.1667 9.69989V10.7814C15.1667 11.2784 14.7638 11.6814 14.2667 11.6814H13.3301C13.0539 11.6814 12.8301 11.4575 12.8301 11.1814C12.8301 10.9052 13.0539 10.6814 13.3301 10.6814H14.1667V9.69989C14.1667 9.42376 14.3906 9.19989 14.6667 9.19989Z" fill="white"/>
<path fill-rule="evenodd" clip-rule="evenodd" d="M12.0066 14.1666C12.9256 14.1666 13.7515 13.5075 14.058 12.5186C14.1397 12.2548 14.4198 12.1073 14.6836 12.189C14.9473 12.2708 15.0949 12.5509 15.0131 12.8146C14.5984 14.1531 13.4321 15.1666 12.0066 15.1666C10.6744 15.1666 9.56657 14.2796 9.09064 13.0722C8.98937 12.8153 9.1155 12.525 9.37244 12.4237C9.6293 12.3224 9.9197 12.4486 10.021 12.7055C10.37 13.591 11.1464 14.1666 12.0066 14.1666Z" fill="white"/>
<path fill-rule="evenodd" clip-rule="evenodd" d="M9.33301 14.8001C9.05687 14.8001 8.83301 14.5763 8.83301 14.3001V13.2187C8.83301 12.7216 9.23594 12.3187 9.73301 12.3187H10.6697C10.9458 12.3187 11.1697 12.5425 11.1697 12.8187C11.1697 13.0948 10.9458 13.3187 10.6697 13.3187H9.83301V14.3001C9.83301 14.5763 9.60914 14.8001 9.33301 14.8001Z" fill="white"/>
</svg>
