<svg width="24" height="25" viewBox="0 0 24 25" fill="none" xmlns="http://www.w3.org/2000/svg">
<path d="M7 14.4258L8.797 12.2698C9.509 11.4148 9.865 10.9878 10.333 10.9878C10.802 10.9878 11.158 11.4148 11.87 12.2698L12.13 12.5818C12.842 13.4368 13.198 13.8638 13.667 13.8638C14.136 13.8638 14.491 13.4368 15.203 12.5818L17 10.4258" stroke="#6CD68C" stroke-width="1.5" stroke-linecap="round"/>
<path d="M22 12.4258C22 17.1398 22 19.4968 20.535 20.9608C19.072 22.4258 16.714 22.4258 12 22.4258C7.286 22.4258 4.929 22.4258 3.464 20.9608C2 19.4978 2 17.1398 2 12.4258C2 7.71178 2 5.35478 3.464 3.88978C4.93 2.42578 7.286 2.42578 12 2.42578C16.714 2.42578 19.071 2.42578 20.535 3.88978C21.509 4.86378 21.835 6.23278 21.945 8.42578" stroke="#6CD68C" stroke-width="1.5" stroke-linecap="round"/>
</svg>
