<svg width="26" height="27" viewBox="0 0 26 27" fill="none" xmlns="http://www.w3.org/2000/svg">
<path d="M22.7502 23.2502L18.0453 18.5453M18.0453 18.5453C18.8501 17.7405 19.4885 16.7851 19.9241 15.7336C20.3596 14.682 20.5838 13.555 20.5838 12.4169C20.5838 11.2787 20.3596 10.1517 19.9241 9.10021C19.4885 8.0487 18.8501 7.09327 18.0453 6.28847C17.2405 5.48368 16.2851 4.84528 15.2336 4.40973C14.182 3.97418 13.055 3.75 11.9169 3.75C10.7787 3.75 9.65173 3.97418 8.60021 4.40973C7.5487 4.84528 6.59327 5.48368 5.78847 6.28847C4.16312 7.91383 3.25 10.1183 3.25 12.4169C3.25 14.7155 4.16312 16.9199 5.78847 18.5453C7.41383 20.1707 9.61829 21.0838 11.9169 21.0838C14.2155 21.0838 16.4199 20.1707 18.0453 18.5453Z" stroke="white" stroke-linecap="round" stroke-linejoin="round"/>
</svg>
