<svg width="16" height="17" viewBox="0 0 16 17" fill="none" xmlns="http://www.w3.org/2000/svg">
<path d="M12.6667 13.1667H3.33333V5.83335H12.6667M12.6667 2.50002H12V1.16669H10.6667V2.50002H5.33333V1.16669H4V2.50002H3.33333C2.97971 2.50002 2.64057 2.6405 2.39052 2.89054C2.14048 3.14059 2 3.47973 2 3.83335V13.1667C2 13.5203 2.14048 13.8594 2.39052 14.1095C2.64057 14.3595 2.97971 14.5 3.33333 14.5H12.6667C13.0203 14.5 13.3594 14.3595 13.6095 14.1095C13.8595 13.8594 14 13.5203 14 13.1667V3.83335C14 3.47973 13.8595 3.14059 13.6095 2.89054C13.3594 2.6405 13.0203 2.50002 12.6667 2.50002ZM11.02 7.87335L10.3133 7.16669L7.06 10.42L5.64667 9.00669L4.94 9.71335L7.06 11.8334L11.02 7.87335Z" fill="white"/>
</svg>
