<svg width="16" height="16" viewBox="0 0 16 16" fill="none" xmlns="http://www.w3.org/2000/svg">
<path fill-rule="evenodd" clip-rule="evenodd" d="M2 6.16669C1.72386 6.16669 1.5 6.39055 1.5 6.66669V12.6667C1.5 13.6792 2.32081 14.5 3.33333 14.5H9.71207L9.60607 14.394C9.02027 13.8082 9.02027 12.8585 9.60607 12.2727C10.1919 11.6869 11.1416 11.6869 11.7274 12.2727L12.0001 12.5454L13.6061 10.9394C13.8565 10.689 14.1734 10.5456 14.5 10.5093V6.66669C14.5 6.39055 14.2761 6.16669 14 6.16669H2Z" fill="white"/>
<path fill-rule="evenodd" clip-rule="evenodd" d="M4.66667 0.833313C4.94281 0.833313 5.16667 1.05717 5.16667 1.33331V3.99998C5.16667 4.27612 4.94281 4.49998 4.66667 4.49998C4.39053 4.49998 4.16667 4.27612 4.16667 3.99998V3.16665H3.33333C2.87309 3.16665 2.5 3.53974 2.5 3.99998V6.66665C2.5 6.94278 2.27614 7.16665 2 7.16665C1.72386 7.16665 1.5 6.94278 1.5 6.66665V3.99998C1.5 2.98746 2.32081 2.16665 3.33333 2.16665H4.16667V1.33331C4.16667 1.05717 4.39053 0.833313 4.66667 0.833313ZM10 0.833313C10.2761 0.833313 10.5 1.05717 10.5 1.33331V3.99998C10.5 4.27612 10.2761 4.49998 10 4.49998C9.72387 4.49998 9.5 4.27612 9.5 3.99998V3.16665H7C6.72387 3.16665 6.5 2.94279 6.5 2.66665C6.5 2.39051 6.72387 2.16665 7 2.16665H9.5V1.33331C9.5 1.05717 9.72387 0.833313 10 0.833313ZM11.8333 2.66665C11.8333 2.39051 12.0572 2.16665 12.3333 2.16665H12.6667C13.6792 2.16665 14.5 2.98746 14.5 3.99998V6.66665C14.5 6.94278 14.2761 7.16665 14 7.16665C13.7239 7.16665 13.5 6.94278 13.5 6.66665V3.99998C13.5 3.53974 13.1269 3.16665 12.6667 3.16665H12.3333C12.0572 3.16665 11.8333 2.94279 11.8333 2.66665Z" fill="white"/>
<path fill-rule="evenodd" clip-rule="evenodd" d="M10.3134 12.9798C10.5087 12.7845 10.8253 12.7845 11.0205 12.9798L12.0003 13.9595L14.3134 11.6465C14.5087 11.4512 14.8253 11.4512 15.0205 11.6465C15.2158 11.8417 15.2158 12.1583 15.0205 12.3535L12.3538 15.0202C12.1586 15.2155 11.842 15.2155 11.6468 15.0202L10.3134 13.6869C10.1182 13.4916 10.1182 13.1751 10.3134 12.9798Z" fill="white"/>
</svg>
