<svg width="36" height="19" viewBox="0 0 36 19" fill="none" xmlns="http://www.w3.org/2000/svg">
<path d="M24.362 9.5851C24.6686 9.5851 24.8886 9.65176 25.022 9.7851C25.1686 9.91843 25.242 10.0918 25.242 10.3051C25.242 10.6518 25.1353 10.9584 24.922 11.2251C24.722 11.4918 24.402 11.6318 23.962 11.6451C22.9086 11.6584 21.962 11.5784 21.122 11.4051C20.1886 13.3918 19.062 15.0451 17.742 16.3651C16.4353 17.6718 15.142 18.3251 13.862 18.3251C12.6886 18.3251 11.8086 17.7051 11.222 16.4651C10.6353 15.2118 10.302 13.5384 10.222 11.4451C9.42195 13.7651 8.51529 15.4918 7.50195 16.6251C6.50195 17.7584 5.43529 18.3251 4.30195 18.3251C3.02195 18.3251 2.05529 17.5318 1.40195 15.9451C0.74862 14.3451 0.421953 12.1984 0.421953 9.5051C0.421953 7.5451 0.595287 5.39176 0.941953 3.0451C1.03529 2.37843 1.20195 1.91843 1.44195 1.6651C1.69529 1.39843 2.08862 1.2651 2.62195 1.2651C3.02195 1.2651 3.32862 1.35176 3.54195 1.5251C3.76862 1.69843 3.88195 2.01843 3.88195 2.4851C3.88195 2.57843 3.86862 2.75843 3.84195 3.0251C3.44195 5.75843 3.24195 8.0851 3.24195 10.0051C3.24195 11.7918 3.39529 13.1718 3.70195 14.1451C4.00862 15.1184 4.42195 15.6051 4.94195 15.6051C5.40862 15.6051 5.96862 15.1184 6.62195 14.1451C7.28862 13.1584 7.94862 11.7051 8.60195 9.7851C9.25529 7.85176 9.80862 5.55176 10.262 2.8851C10.3686 2.27176 10.562 1.85176 10.842 1.6251C11.1353 1.3851 11.5286 1.2651 12.022 1.2651C12.4353 1.2651 12.7353 1.35843 12.922 1.5451C13.122 1.71843 13.222 1.9851 13.222 2.3451C13.222 2.55843 13.2086 2.7251 13.182 2.8451C12.8086 5.01843 12.622 7.19176 12.622 9.3651C12.622 10.8451 12.6686 12.0251 12.762 12.9051C12.8686 13.7851 13.062 14.4584 13.342 14.9251C13.6353 15.3784 14.0553 15.6051 14.602 15.6051C15.242 15.6051 15.9553 15.1251 16.742 14.1651C17.5286 13.1918 18.2486 11.9851 18.902 10.5451C18.0886 10.0384 17.4753 9.3851 17.062 8.5851C16.6486 7.77176 16.442 6.83843 16.442 5.7851C16.442 4.73176 16.602 3.8451 16.922 3.1251C17.2553 2.39176 17.702 1.8451 18.262 1.4851C18.8353 1.1251 19.4686 0.945097 20.162 0.945097C21.0153 0.945097 21.6886 1.25176 22.182 1.8651C22.6886 2.47843 22.942 3.31843 22.942 4.3851C22.942 5.89176 22.6153 7.5651 21.962 9.4051C22.642 9.5251 23.442 9.5851 24.362 9.5851ZM18.462 5.6451C18.462 6.95176 18.882 7.91843 19.722 8.5451C20.242 7.05176 20.502 5.81843 20.502 4.8451C20.502 4.2851 20.4286 3.87843 20.282 3.6251C20.1353 3.35843 19.9353 3.2251 19.682 3.2251C19.322 3.2251 19.0286 3.43843 18.802 3.8651C18.5753 4.27843 18.462 4.87176 18.462 5.6451ZM25.9179 7.5851C25.3579 7.5851 24.9379 7.45843 24.6579 7.2051C24.3779 6.93843 24.2379 6.57176 24.2379 6.1051C24.2379 5.63843 24.4179 5.25176 24.7779 4.9451C25.1512 4.6251 25.6112 4.4651 26.1579 4.4651C26.6512 4.4651 27.0512 4.5851 27.3579 4.8251C27.6646 5.0651 27.8179 5.4051 27.8179 5.8451C27.8179 6.37843 27.6446 6.8051 27.2979 7.1251C26.9512 7.43176 26.4912 7.5851 25.9179 7.5851ZM25.7579 18.3251C24.8912 18.3251 24.2579 18.0184 23.8579 17.4051C23.4712 16.7918 23.2779 15.9784 23.2779 14.9651C23.2779 14.3651 23.3512 13.5984 23.4979 12.6651C23.6579 11.7184 23.8579 10.8384 24.0979 10.0251C24.2179 9.59843 24.3779 9.3051 24.5779 9.1451C24.7779 8.9851 25.0979 8.9051 25.5379 8.9051C26.2179 8.9051 26.5579 9.13176 26.5579 9.5851C26.5579 9.91843 26.4312 10.6918 26.1779 11.9051C25.8579 13.3718 25.6979 14.3651 25.6979 14.8851C25.6979 15.2851 25.7512 15.5918 25.8579 15.8051C25.9646 16.0184 26.1446 16.1251 26.3979 16.1251C26.6379 16.1251 26.9379 15.9584 27.2979 15.6251C27.6579 15.2918 28.1379 14.7651 28.7379 14.0451C28.8979 13.8584 29.0779 13.7651 29.2779 13.7651C29.4512 13.7651 29.5846 13.8451 29.6779 14.0051C29.7846 14.1651 29.8379 14.3851 29.8379 14.6651C29.8379 15.1984 29.7112 15.6118 29.4579 15.9051C28.1379 17.5184 26.9046 18.3251 25.7579 18.3251ZM35.3798 14.3651C35.5531 14.3651 35.6864 14.4451 35.7798 14.6051C35.8864 14.7651 35.9398 14.9851 35.9398 15.2651C35.9398 15.7451 35.8264 16.1584 35.5998 16.5051C35.2264 17.0784 34.7331 17.5251 34.1198 17.8451C33.5198 18.1651 32.7998 18.3251 31.9598 18.3251C30.6798 18.3251 29.6864 17.9451 28.9798 17.1851C28.2731 16.4118 27.9198 15.3718 27.9198 14.0651C27.9198 13.1451 28.1131 12.2918 28.4998 11.5051C28.8864 10.7051 29.4198 10.0718 30.0998 9.6051C30.7931 9.13843 31.5731 8.9051 32.4398 8.9051C33.2131 8.9051 33.8331 9.13843 34.2998 9.6051C34.7664 10.0584 34.9998 10.6784 34.9998 11.4651C34.9998 12.3851 34.6664 13.1784 33.9998 13.8451C33.3464 14.4984 32.2264 15.0184 30.6398 15.4051C30.9598 16.0184 31.4998 16.3251 32.2598 16.3251C32.8064 16.3251 33.2531 16.1984 33.5998 15.9451C33.9598 15.6918 34.3731 15.2651 34.8398 14.6651C34.9998 14.4651 35.1798 14.3651 35.3798 14.3651ZM32.0998 10.8651C31.6064 10.8651 31.1864 11.1518 30.8398 11.7251C30.5064 12.2984 30.3398 12.9918 30.3398 13.8051V13.8451C31.1264 13.6584 31.7464 13.3784 32.1998 13.0051C32.6531 12.6318 32.8798 12.1984 32.8798 11.7051C32.8798 11.4518 32.8064 11.2518 32.6598 11.1051C32.5264 10.9451 32.3398 10.8651 32.0998 10.8651Z" fill="white"/>
</svg>
