<svg width="40" height="39" viewBox="0 0 40 39" fill="none" xmlns="http://www.w3.org/2000/svg">
<path d="M7.14063 29.25C6.68021 29.25 6.29455 29.094 5.98363 28.782C5.67271 28.47 5.51671 28.0843 5.51563 27.625C5.51455 27.1657 5.67055 26.78 5.98363 26.468C6.29671 26.156 6.68238 26 7.14063 26H33.1406C33.601 26 33.9873 26.156 34.2993 26.468C34.6113 26.78 34.7667 27.1657 34.7656 27.625C34.7645 28.0843 34.6085 28.4705 34.2976 28.7836C33.9867 29.0967 33.601 29.2522 33.1406 29.25H7.14063ZM7.14063 21.125C6.68021 21.125 6.29455 20.969 5.98363 20.657C5.67271 20.345 5.51671 19.9593 5.51563 19.5C5.51455 19.0407 5.67055 18.655 5.98363 18.343C6.29671 18.031 6.68238 17.875 7.14063 17.875H33.1406C33.601 17.875 33.9873 18.031 34.2993 18.343C34.6113 18.655 34.7667 19.0407 34.7656 19.5C34.7645 19.9593 34.6085 20.3455 34.2976 20.6586C33.9867 20.9717 33.601 21.1272 33.1406 21.125H7.14063ZM7.14063 13C6.68021 13 6.29455 12.844 5.98363 12.532C5.67271 12.22 5.51671 11.8343 5.51563 11.375C5.51455 10.9157 5.67055 10.53 5.98363 10.218C6.29671 9.906 6.68238 9.75 7.14063 9.75H33.1406C33.601 9.75 33.9873 9.906 34.2993 10.218C34.6113 10.53 34.7667 10.9157 34.7656 11.375C34.7645 11.8343 34.6085 12.2205 34.2976 12.5336C33.9867 12.8467 33.601 13.0022 33.1406 13H7.14063Z" fill="white"/>
</svg>
