<svg width="22" height="22" viewBox="0 0 22 22" fill="none" xmlns="http://www.w3.org/2000/svg">
<path fill-rule="evenodd" clip-rule="evenodd" d="M10.6575 0H10.5473C9.59412 0 8.8 4.42865e-08 8.17022 0.0848193C7.50439 0.17388 6.90323 0.371084 6.42082 0.853494C5.93735 1.33696 5.74014 1.93812 5.65108 2.60289C5.59065 3.05561 5.57263 4.136 5.56839 5.06265C3.42458 5.13369 2.13639 5.3839 1.2426 6.27875C-1.01226e-07 7.52029 0 9.5199 0 13.5181C0 17.5162 -1.01226e-07 19.5159 1.2426 20.7574C2.4852 21.9989 4.48376 22 8.48193 22H12.7229C16.7211 22 18.7207 22 19.9622 20.7574C21.2038 19.5148 21.2048 17.5162 21.2048 13.5181C21.2048 9.5199 21.2048 7.52029 19.9622 6.27875C19.0684 5.3839 17.7802 5.13369 15.6364 5.06371C15.6322 4.136 15.6152 3.05561 15.5537 2.60395C15.4647 1.93812 15.2675 1.33696 14.784 0.854554C14.3016 0.371084 13.7004 0.17388 13.0346 0.0848193C12.4048 4.42865e-08 11.6096 0 10.6575 0ZM14.0461 5.03827C14.0408 4.14024 14.0259 3.17436 13.9782 2.81494C13.9114 2.32617 13.798 2.11624 13.6601 1.97841C13.5223 1.84058 13.3124 1.72713 12.8226 1.66034C12.3115 1.59248 11.6245 1.59036 10.6024 1.59036C9.58034 1.59036 8.8933 1.59248 8.3812 1.6614C7.89243 1.72713 7.68251 1.84058 7.54468 1.97947C7.40684 2.11836 7.2934 2.32617 7.2266 2.81494C7.17889 3.17542 7.16299 4.14024 7.15875 5.03827C7.57436 5.03614 8.01542 5.03544 8.48193 5.03614H12.7229C13.1908 5.03614 13.6319 5.03685 14.0461 5.03827ZM10.6024 8.48193C10.8133 8.48193 11.0156 8.56571 11.1647 8.71483C11.3138 8.86396 11.3976 9.06621 11.3976 9.27711V9.28771C12.5522 9.57822 13.5181 10.489 13.5181 11.7507C13.5181 11.9615 13.4343 12.1638 13.2852 12.3129C13.136 12.4621 12.9338 12.5458 12.7229 12.5458C12.512 12.5458 12.3097 12.4621 12.1606 12.3129C12.0115 12.1638 11.9277 11.9615 11.9277 11.7507C11.9277 11.3435 11.476 10.7795 10.6024 10.7795C9.72877 10.7795 9.27711 11.3435 9.27711 11.7507C9.27711 12.1578 9.72877 12.7229 10.6024 12.7229C12.0708 12.7229 13.5181 13.7407 13.5181 15.2855C13.5181 16.5472 12.5522 17.4569 11.3976 17.7484V17.759C11.3976 17.9699 11.3138 18.1722 11.1647 18.3213C11.0156 18.4704 10.8133 18.5542 10.6024 18.5542C10.3915 18.5542 10.1893 18.4704 10.0401 18.3213C9.89101 18.1722 9.80723 17.9699 9.80723 17.759V17.7484C8.65263 17.4579 7.68675 16.5472 7.68675 15.2855C7.68675 15.0746 7.77053 14.8723 7.91965 14.7232C8.06878 14.5741 8.27103 14.4903 8.48193 14.4903C8.69282 14.4903 8.89508 14.5741 9.04421 14.7232C9.19333 14.8723 9.27711 15.0746 9.27711 15.2855C9.27711 15.6926 9.72877 16.2567 10.6024 16.2567C11.476 16.2567 11.9277 15.6926 11.9277 15.2855C11.9277 14.8784 11.476 14.3133 10.6024 14.3133C9.13398 14.3133 7.68675 13.2954 7.68675 11.7507C7.68675 10.489 8.65263 9.57822 9.80723 9.28771V9.27711C9.80723 9.06621 9.89101 8.86396 10.0401 8.71483C10.1893 8.56571 10.3915 8.48193 10.6024 8.48193Z" fill="#FFEE00"/>
</svg>
