<svg width="26" height="27" viewBox="0 0 26 27" fill="none" xmlns="http://www.w3.org/2000/svg">
<g clip-path="url(#clip0_639_6461)">
<path d="M23.0212 13.5002H9.63658M4.91216 13.5002H2.97949M4.91216 13.5002C4.91216 12.8739 5.16098 12.2732 5.60387 11.8303C6.04677 11.3874 6.64747 11.1385 7.27383 11.1385C7.90018 11.1385 8.50088 11.3874 8.94378 11.8303C9.38667 12.2732 9.63549 12.8739 9.63549 13.5002C9.63549 14.1266 9.38667 14.7273 8.94378 15.1702C8.50088 15.6131 7.90018 15.8619 7.27383 15.8619C6.64747 15.8619 6.04677 15.6131 5.60387 15.1702C5.16098 14.7273 4.91216 14.1266 4.91216 13.5002ZM23.0212 20.6578H16.7942M16.7942 20.6578C16.7942 21.2843 16.5447 21.8857 16.1017 22.3287C15.6587 22.7717 15.0579 23.0205 14.4314 23.0205C13.8051 23.0205 13.2044 22.7706 12.7615 22.3277C12.3186 21.8848 12.0697 21.2841 12.0697 20.6578M16.7942 20.6578C16.7942 20.0313 16.5447 19.431 16.1017 18.988C15.6587 18.545 15.0579 18.2961 14.4314 18.2961C13.8051 18.2961 13.2044 18.5449 12.7615 18.9878C12.3186 19.4307 12.0697 20.0314 12.0697 20.6578M12.0697 20.6578H2.97949M23.0212 6.34262H19.6574M14.933 6.34262H2.97949M14.933 6.34262C14.933 5.71627 15.1818 5.11557 15.6247 4.67267C16.0676 4.22977 16.6683 3.98096 17.2947 3.98096C17.6048 3.98096 17.9119 4.04204 18.1984 4.16073C18.485 4.27941 18.7453 4.45337 18.9646 4.67267C19.1839 4.89197 19.3579 5.15232 19.4766 5.43885C19.5952 5.72538 19.6563 6.03249 19.6563 6.34262C19.6563 6.65276 19.5952 6.95986 19.4766 7.24639C19.3579 7.53292 19.1839 7.79327 18.9646 8.01257C18.7453 8.23187 18.485 8.40583 18.1984 8.52452C17.9119 8.6432 17.6048 8.70429 17.2947 8.70429C16.6683 8.70429 16.0676 8.45547 15.6247 8.01257C15.1818 7.56968 14.933 6.96898 14.933 6.34262Z" stroke="white" stroke-width="1.5" stroke-miterlimit="10" stroke-linecap="round"/>
</g>
<defs>
<clipPath id="clip0_639_6461">
<rect width="26" height="26" fill="white" transform="translate(0 0.5)"/>
</clipPath>
</defs>
</svg>
