<svg width="15" height="11" viewBox="0 0 15 11" fill="none" xmlns="http://www.w3.org/2000/svg">
<path d="M2.21354 0C1.62647 0 1.06345 0.233212 0.648331 0.648331C0.233212 1.06345 0 1.62647 0 2.21354V3.36458H14.1667V2.21354C14.1667 1.62647 13.9335 1.06345 13.5183 0.648331C13.1032 0.233212 12.5402 0 11.9531 0H2.21354ZM0 8.41146V4.25H14.1667V8.41146C14.1667 8.99853 13.9335 9.56155 13.5183 9.97667C13.1032 10.3918 12.5402 10.625 11.9531 10.625H2.21354C1.62647 10.625 1.06345 10.3918 0.648331 9.97667C0.233212 9.56155 0 8.99853 0 8.41146ZM9.65104 7.26042C9.53363 7.26042 9.42102 7.30706 9.338 7.39008C9.25498 7.47311 9.20833 7.58571 9.20833 7.70312C9.20833 7.82054 9.25498 7.93314 9.338 8.01617C9.42102 8.09919 9.53363 8.14583 9.65104 8.14583H11.599C11.7164 8.14583 11.829 8.09919 11.912 8.01617C11.995 7.93314 12.0417 7.82054 12.0417 7.70312C12.0417 7.58571 11.995 7.47311 11.912 7.39008C11.829 7.30706 11.7164 7.26042 11.599 7.26042H9.65104Z" fill="#E6E6E6"/>
</svg>
