<svg width="17" height="15" viewBox="0 0 17 15" fill="none" xmlns="http://www.w3.org/2000/svg">
<g clip-path="url(#clip0_1030_32001)">
<path fill-rule="evenodd" clip-rule="evenodd" d="M15.067 7.5C15.067 8.48491 14.8721 9.46018 14.4935 10.3701C14.1149 11.2801 13.56 12.1069 12.8605 12.8033C12.1609 13.4997 11.3304 14.0522 10.4164 14.4291C9.50242 14.806 8.52279 15 7.53348 15C6.54417 15 5.56455 14.806 4.65054 14.4291C3.73654 14.0522 2.90605 13.4997 2.20651 12.8033C1.50696 12.1069 0.952045 11.2801 0.573452 10.3701C0.194859 9.46018 -1.47419e-08 8.48491 0 7.5C2.97726e-08 5.51088 0.793704 3.60322 2.20651 2.1967C3.61931 0.790176 5.53548 0 7.53348 0C9.53149 0 11.4477 0.790176 12.8605 2.1967C14.2733 3.60322 15.067 5.51088 15.067 7.5ZM11.0257 9.7975C11.5583 8.99626 11.7964 8.03639 11.6996 7.08043C11.6029 6.12446 11.1773 5.23115 10.4949 4.55176C9.81246 3.87238 8.91516 3.44866 7.95493 3.35236C6.9947 3.25606 6.03054 3.4931 5.22573 4.02333L11.0257 9.7975ZM4.0413 5.2025L9.84208 10.9767C9.03726 11.5069 8.0731 11.7439 7.11287 11.6476C6.15264 11.5513 5.25535 11.1276 4.57292 10.4482C3.8905 9.76885 3.46489 8.87554 3.36816 7.91957C3.27143 6.96361 3.50869 6.00374 4.0413 5.2025ZM7.53348 1.66667C6.76402 1.66667 6.00209 1.81755 5.2912 2.1107C4.5803 2.40385 3.93437 2.83353 3.39028 3.37521C2.84619 3.91688 2.41459 4.55995 2.12013 5.26768C1.82566 5.97541 1.67411 6.73396 1.67411 7.5C1.67411 8.26604 1.82566 9.02459 2.12013 9.73232C2.41459 10.4401 2.84619 11.0831 3.39028 11.6248C3.93437 12.1665 4.5803 12.5961 5.2912 12.8893C6.00209 13.1825 6.76402 13.3333 7.53348 13.3333C9.08749 13.3333 10.5778 12.7188 11.6767 11.6248C12.7755 10.5308 13.3929 9.0471 13.3929 7.5C13.3929 5.9529 12.7755 4.46917 11.6767 3.37521C10.5778 2.28125 9.08749 1.66667 7.53348 1.66667Z" fill="#F24822"/>
</g>
<defs>
<clipPath id="clip0_1030_32001">
<rect width="16.0714" height="15" fill="white"/>
</clipPath>
</defs>
</svg>
