<svg width="26" height="26" viewBox="0 0 26 26" fill="none" xmlns="http://www.w3.org/2000/svg">
<path d="M20.5831 4.77197H10.4355C9.78908 4.77197 9.16909 5.02878 8.71197 5.4859C8.25485 5.94302 7.99805 6.56301 7.99805 7.20947V14.3833C7.99805 15.0298 8.25485 15.6498 8.71197 16.1069C9.16909 16.564 9.78908 16.8208 10.4355 16.8208H13.841L19.0155 19.1635V16.8213H20.5831C21.2296 16.8213 21.8496 16.5645 22.3067 16.1074C22.7638 15.6503 23.0206 15.0303 23.0206 14.3838V7.20947C23.0206 6.56301 22.7638 5.94302 22.3067 5.4859C21.8496 5.02878 21.2296 4.77197 20.5831 4.77197Z" stroke="white" stroke-linecap="round" stroke-linejoin="round"/>
<path d="M13.0924 16.8818V17.9077C13.0924 18.861 12.3232 19.6302 11.3753 19.6302H9.16533L5.72574 21.2281V19.6302H4.69658C3.74866 19.6302 2.97949 18.861 2.97949 17.9077V13.1844C2.97949 12.2365 3.74866 11.4673 4.69658 11.4673H7.90324" stroke="white" stroke-linecap="round" stroke-linejoin="round"/>
</svg>
