<svg width="11" height="10" viewBox="0 0 11 10" fill="none" xmlns="http://www.w3.org/2000/svg">
<g filter="url(#filter0_ii_1030_32089)">
<path d="M2.10739 2.68287C2.24001 1.93355 2.65389 1.25248 3.27523 0.761109C3.89658 0.269735 4.685 0 5.49991 0C6.31482 0 7.10325 0.269735 7.7246 0.761109C8.34594 1.25248 8.75982 1.93355 8.89244 2.68287C9.45994 2.8448 9.96263 3.16097 10.3361 3.59086C10.7095 4.02075 10.9368 4.54476 10.9886 5.09576C11.0405 5.64676 10.9146 6.19963 10.6271 6.68353C10.3396 7.16743 9.90365 7.56031 9.37505 7.81182L8.96714 8.00617L8.55007 7.24588L8.95798 7.05111C9.34216 6.86832 9.65522 6.57791 9.85313 6.22072C10.051 5.86353 10.1239 5.45752 10.0613 5.05977C9.99882 4.66202 9.80411 4.29252 9.50459 4.00324C9.20506 3.71395 8.81579 3.51943 8.39149 3.447L8.03812 3.3872L8.01566 3.05362C7.97514 2.45747 7.69246 1.8981 7.22512 1.48928C6.75778 1.08047 6.14088 0.852914 5.49991 0.852914C4.85894 0.852914 4.24205 1.08047 3.77471 1.48928C3.30737 1.8981 3.02469 2.45747 2.98417 3.05362L2.96171 3.38763L2.6088 3.44743C2.18461 3.5199 1.79545 3.71441 1.496 4.00363C1.19656 4.29285 1.00187 4.66224 0.939314 5.05989C0.876753 5.45754 0.94946 5.86346 1.14722 6.22062C1.34497 6.57777 1.65784 6.86821 2.04185 7.05111L2.44976 7.24545L2.03269 8.00574L1.62478 7.81182C1.09619 7.56028 0.660235 7.16736 0.372795 6.68343C0.0853545 6.19951 -0.0404807 5.64662 0.0114158 5.09561C0.0633123 4.54461 0.290576 4.0206 0.664082 3.59074C1.03759 3.16088 1.53986 2.84475 2.10739 2.68287ZM5.95824 4.2705V8.36495L7.33321 7.08357L7.98129 7.68753L5.49991 10L3.01854 7.68753L3.66661 7.08357L5.04159 8.36495V4.2705H5.95824Z" fill="#3EB489"/>
</g>
<defs>
<filter id="filter0_ii_1030_32089" x="-2" y="0" width="19" height="17" filterUnits="userSpaceOnUse" color-interpolation-filters="sRGB">
<feFlood flood-opacity="0" result="BackgroundImageFix"/>
<feBlend mode="normal" in="SourceGraphic" in2="BackgroundImageFix" result="shape"/>
<feColorMatrix in="SourceAlpha" type="matrix" values="0 0 0 0 0 0 0 0 0 0 0 0 0 0 0 0 0 0 127 0" result="hardAlpha"/>
<feOffset dx="6" dy="7"/>
<feGaussianBlur stdDeviation="5"/>
<feComposite in2="hardAlpha" operator="arithmetic" k2="-1" k3="1"/>
<feColorMatrix type="matrix" values="0 0 0 0 0 0 0 0 0 0 0 0 0 0 0 0 0 0 0.27 0"/>
<feBlend mode="normal" in2="shape" result="effect1_innerShadow_1030_32089"/>
<feColorMatrix in="SourceAlpha" type="matrix" values="0 0 0 0 0 0 0 0 0 0 0 0 0 0 0 0 0 0 127 0" result="hardAlpha"/>
<feOffset dx="-2"/>
<feGaussianBlur stdDeviation="4"/>
<feComposite in2="hardAlpha" operator="arithmetic" k2="-1" k3="1"/>
<feColorMatrix type="matrix" values="0 0 0 0 1 0 0 0 0 1 0 0 0 0 1 0 0 0 0.05 0"/>
<feBlend mode="normal" in2="effect1_innerShadow_1030_32089" result="effect2_innerShadow_1030_32089"/>
</filter>
</defs>
</svg>
