<svg width="16" height="16" viewBox="0 0 16 16" fill="none" xmlns="http://www.w3.org/2000/svg">
<path d="M7.28 13.6H8.68V12.6C9.34666 12.48 9.91999 12.22 10.4 11.82C10.88 11.42 11.12 10.8267 11.12 10.04C11.12 9.48 10.96 8.96666 10.64 8.5C10.32 8.03333 9.67999 7.62666 8.71999 7.28C7.92 7.01333 7.36666 6.78 7.06 6.58C6.75333 6.38 6.6 6.10666 6.6 5.76C6.6 5.41333 6.72346 5.14 6.9704 4.94C7.21733 4.74 7.57386 4.64 8.04 4.64C8.46666 4.64 8.8 4.7432 9.04 4.9496C9.27999 5.156 9.45333 5.4128 9.55999 5.72L10.84 5.2C10.6933 4.73333 10.4235 4.32667 10.0304 3.98C9.63733 3.63333 9.20053 3.44 8.71999 3.4V2.4H7.32V3.4C6.65333 3.54667 6.13333 3.84 5.76 4.28C5.38666 4.72 5.2 5.21333 5.2 5.76C5.2 6.38666 5.38346 6.89333 5.7504 7.28C6.11733 7.66666 6.69386 8 7.48 8.28C8.32 8.58666 8.90346 8.86 9.23039 9.1C9.55733 9.34 9.72053 9.65333 9.71999 10.04C9.71999 10.48 9.56346 10.8035 9.25039 11.0104C8.93733 11.2173 8.56053 11.3205 8.12 11.32C7.67946 11.3195 7.28933 11.1829 6.9496 10.9104C6.60986 10.6379 6.36 10.2277 6.2 9.68L4.88 10.2C5.06666 10.84 5.3568 11.3568 5.7504 11.7504C6.144 12.144 6.65386 12.4139 7.28 12.56V13.6ZM8 16C6.89333 16 5.85333 15.7899 4.88 15.3696C3.90667 14.9493 3.06 14.3795 2.34 13.66C1.62 12.9405 1.05013 12.0939 0.630401 11.12C0.210668 10.1461 0.000534346 9.10613 1.01266e-06 8C-0.00053232 6.89386 0.209601 5.85387 0.630401 4.88C1.0512 3.90613 1.62107 3.05947 2.34 2.34C3.05893 1.62053 3.9056 1.05067 4.88 0.6304C5.8544 0.210133 6.8944 0 8 0C9.10559 0 10.1456 0.210133 11.12 0.6304C12.0944 1.05067 12.9411 1.62053 13.66 2.34C14.3789 3.05947 14.9491 3.90613 15.3704 4.88C15.7917 5.85387 16.0016 6.89386 16 8C15.9984 9.10613 15.7883 10.1461 15.3696 11.12C14.9509 12.0939 14.3811 12.9405 13.66 13.66C12.9389 14.3795 12.0923 14.9496 11.12 15.3704C10.1477 15.7912 9.10773 16.0011 8 16Z" fill="#3EB489"/>
</svg>
