<svg width="33" height="45" viewBox="0 0 33 45" fill="none" xmlns="http://www.w3.org/2000/svg">
<path d="M9.1582 33.0416C10.5142 34.6778 11.7485 36.4011 12.852 38.1993C13.7941 39.8904 14.1869 41.0372 14.8754 43.0749C15.2976 44.2007 15.6793 44.5367 16.4998 44.5367C17.3939 44.5367 17.7995 43.9651 18.1129 43.081C18.7638 41.1567 19.2744 39.6881 20.0801 38.3004C21.6611 35.6213 23.6256 33.2406 25.5558 30.9526C26.0784 30.305 29.457 26.5324 30.978 23.5556C30.978 23.5556 32.8474 20.2857 32.8474 15.7189C32.8474 11.4471 31.0038 8.48438 31.0038 8.48438L25.6959 9.83009L22.4724 17.8675L21.6749 18.9758L21.5154 19.1765L21.3033 19.4279L20.931 19.8293L20.399 20.3328L17.5285 22.5468L10.352 26.4695L9.1582 33.0416Z" fill="#34A853"/>
<path d="M1.61133 22.848C3.36285 26.6354 6.74042 29.9647 9.0256 32.8864L21.1633 19.2752C21.1633 19.2752 19.4533 21.3924 16.3515 21.3924C12.8963 21.3924 10.1051 18.7804 10.1051 15.4869C10.1051 13.2283 11.5404 11.6768 11.5404 11.6768L3.30101 13.7668L1.61133 22.848Z" fill="#FBBC04"/>
<path d="M21.3008 0.699219C25.332 1.92966 28.7824 4.51284 30.8694 8.32198L21.1689 19.2655C21.1689 19.2655 22.6042 17.6859 22.6042 15.4413C22.6042 12.0711 19.6065 9.5534 16.3681 9.5534C13.3057 9.5534 11.5469 11.667 11.5469 11.667V4.77277L21.3008 0.699219Z" fill="#4285F4"/>
<path d="M3.83594 5.53537C6.24365 2.80827 10.4803 0 16.3212 0C19.155 0 21.2899 0.704304 21.2899 0.704304L11.5369 11.6738H4.6268L3.83594 5.53537Z" fill="#1A73E8"/>
<path d="M1.61136 22.8476C1.61136 22.8476 0 19.8604 0 15.5327C0 11.4425 1.67959 7.86712 3.83484 5.53613L11.5413 11.6755L1.61136 22.8476Z" fill="#EA4335"/>
</svg>
