<svg width="22" height="24" viewBox="0 0 22 24" fill="none" xmlns="http://www.w3.org/2000/svg">
<path d="M19.8922 16.6847C19.017 15.6201 17.8185 14.1126 17.8185 12.5747V7.67724C17.8185 3.45812 14.6629 0.0253906 10.6305 0.0253906C6.59737 0.0253906 3.4665 3.45814 3.4665 7.67724V12.5747C3.4665 14.0867 2.16597 15.5158 1.34137 16.6247C0.599598 17.6211 0.0142468 18.4082 0.409497 19.195C0.757122 19.8872 1.6275 19.9761 2.34672 19.9761H6.64422C6.64535 22.1841 8.43597 23.974 10.6443 23.974C12.8531 23.974 14.6437 22.1841 14.6448 19.9761H19.0432C19.5007 19.9761 20.5702 19.9761 20.9384 19.198C21.3101 18.4101 20.7153 17.6859 19.8922 16.6847L19.8922 16.6847ZM10.6436 22.4027C9.3026 22.4027 8.21472 21.3164 8.21285 19.9761H13.0743C13.0725 21.3164 11.9853 22.4027 10.6436 22.4027ZM19.0432 18.3793H2.3467C2.23195 18.3793 2.13597 18.3756 2.05685 18.3707C2.21135 18.1315 2.4382 17.8258 2.6227 17.5772C3.5366 16.3491 5.0636 14.6154 5.0636 12.5751V7.67757C5.0636 4.33857 7.4786 1.62245 10.6305 1.62245C13.7824 1.62245 16.2218 4.33857 16.2218 7.67757V12.5751C16.2218 14.6848 17.6299 16.4481 18.6585 17.6987C18.8318 17.9095 19.0392 18.1618 19.2004 18.3774C19.1528 18.3786 19.1003 18.3793 19.0433 18.3793L19.0432 18.3793Z" fill="white"/>
</svg>
