<svg width="23" height="23" viewBox="0 0 23 23" fill="none" xmlns="http://www.w3.org/2000/svg">
<path d="M11.4993 21.0837C10.1737 21.0837 8.92782 20.8319 7.76185 20.3285C6.59588 19.825 5.58164 19.1424 4.71914 18.2805C3.85664 17.4187 3.17399 16.4044 2.67118 15.2378C2.16838 14.0712 1.91666 12.8254 1.91602 11.5003C1.91538 10.1753 2.1671 8.92944 2.67118 7.76283C3.17527 6.59621 3.85792 5.58198 4.71914 4.72012C5.58036 3.85826 6.5946 3.1756 7.76185 2.67216C8.9291 2.16871 10.1749 1.91699 11.4993 1.91699C12.8238 1.91699 14.0696 2.16871 15.2368 2.67216C16.4041 3.1756 17.4183 3.85826 18.2796 4.72012C19.1408 5.58198 19.8238 6.59621 20.3285 7.76283C20.8332 8.92944 21.0846 10.1753 21.0827 11.5003C21.0808 12.8254 20.829 14.0712 20.3275 15.2378C19.826 16.4044 19.1433 17.4187 18.2796 18.2805C17.4158 19.1424 16.4015 19.8254 15.2368 20.3294C14.0722 20.8335 12.8263 21.0849 11.4993 21.0837ZM10.541 19.1191V17.2503C10.0139 17.2503 9.56288 17.0628 9.18785 16.6878C8.81282 16.3128 8.62499 15.8614 8.62435 15.3337V14.3753L4.02435 9.77533C3.97643 10.0628 3.93267 10.3503 3.89306 10.6378C3.85345 10.9253 3.83332 11.2128 3.83268 11.5003C3.83268 13.433 4.46774 15.126 5.73785 16.5795C7.00796 18.033 8.60902 18.8795 10.541 19.1191ZM17.1535 16.6753C17.8084 15.9566 18.3077 15.1541 18.6514 14.268C18.9951 13.3819 19.1667 12.4593 19.166 11.5003C19.166 9.93505 18.7309 8.50553 17.8608 7.21178C16.9906 5.91803 15.8285 4.98366 14.3743 4.40866V4.79199C14.3743 5.31908 14.1868 5.77045 13.8118 6.14612C13.4368 6.52178 12.9854 6.7093 12.4577 6.70866H10.541V8.62533C10.541 8.89685 10.449 9.12462 10.265 9.30862C10.081 9.49262 9.85357 9.5843 9.58268 9.58366H7.66602V11.5003H13.416C13.6875 11.5003 13.9153 11.5923 14.0993 11.7763C14.2833 11.9603 14.375 12.1878 14.3743 12.4587V15.3337H15.3327C15.748 15.3337 16.1233 15.4576 16.4587 15.7055C16.7941 15.9534 17.0257 16.2767 17.1535 16.6753Z" fill="white"/>
</svg>
