<svg width="16" height="16" viewBox="0 0 16 16" fill="none" xmlns="http://www.w3.org/2000/svg">
<path d="M13.135 2.01207L2.1597 5.6714C2.11476 5.68635 2.07544 5.71461 2.04695 5.75244C2.01846 5.79027 2.00215 5.83587 2.0002 5.88319C1.99825 5.9305 2.01074 5.9773 2.03601 6.01734C2.06129 6.05739 2.09815 6.0888 2.1417 6.1074L6.17504 7.83607C6.19617 7.84522 6.21932 7.84874 6.24221 7.84628C6.26511 7.84383 6.28699 7.83549 6.3057 7.82207L10.2597 4.99673C10.3824 4.91007 10.533 5.06073 10.4464 5.1834L7.62104 9.1374C7.60784 9.1561 7.59969 9.17789 7.59735 9.20065C7.59502 9.22342 7.59858 9.24641 7.6077 9.2674L9.3357 13.3007C9.35424 13.3443 9.38559 13.3812 9.4256 13.4065C9.46561 13.4319 9.51237 13.4444 9.55969 13.4425C9.607 13.4407 9.65262 13.4244 9.69049 13.396C9.72836 13.3676 9.75669 13.3283 9.7717 13.2834L13.431 2.3074C13.4448 2.26626 13.4468 2.2221 13.4369 2.17987C13.427 2.13764 13.4054 2.09902 13.3748 2.06834C13.3441 2.03767 13.3055 2.01615 13.2632 2.00621C13.221 1.99627 13.1762 1.9983 13.135 2.01207Z" fill="white"/>
</svg>
