<svg width="12" height="12" viewBox="0 0 12 12" fill="none" xmlns="http://www.w3.org/2000/svg">
<path d="M0 1.33333C0 0.979711 0.140476 0.640573 0.390524 0.390524C0.640573 0.140476 0.979711 0 1.33333 0H10.6667C11.0203 0 11.3594 0.140476 11.6095 0.390524C11.8595 0.640573 12 0.979711 12 1.33333V10.6667C12 11.0203 11.8595 11.3594 11.6095 11.6095C11.3594 11.8595 11.0203 12 10.6667 12H1.33333C0.979711 12 0.640573 11.8595 0.390524 11.6095C0.140476 11.3594 0 11.0203 0 10.6667V1.33333ZM2.66667 10H4L4.23333 8.66667H6.9L6.66667 10H8L8.23333 8.66667H9.56667L9.80667 7.33333H8.47333L8.94 4.66667H10.2733L10.5067 3.33333H9.17333L9.41333 2H8.08L7.84 3.33333H5.17333L5.41333 2H4.08L3.84 3.33333H2.50667L2.27333 4.66667H3.60667L3.14 7.33333H1.80667L1.56667 8.66667H2.9L2.66667 10ZM4.94 4.66667H7.60667L7.14 7.33333H4.47333L4.94 4.66667Z" fill="white"/>
</svg>
