<svg width="31" height="20" viewBox="0 0 31 20" fill="none" xmlns="http://www.w3.org/2000/svg">
<path fill-rule="evenodd" clip-rule="evenodd" d="M29.4498 9.99687L30.3576 9.54187V9.5375L30.3511 9.53094L30.338 9.50469L30.292 9.41719L30.117 9.10219C29.9035 8.73382 29.6765 8.37337 29.4367 8.02156C28.6363 6.84677 27.7163 5.75813 26.6914 4.77312C24.2283 2.41062 20.4373 0 15.2311 0C10.0292 0 6.23608 2.40844 3.77295 4.77312C2.74802 5.75813 1.828 6.84677 1.02764 8.02156C0.702879 8.50073 0.402093 8.99571 0.12639 9.50469L0.113265 9.53094L0.10889 9.5375V9.53969C0.10889 9.53969 0.106702 9.54187 1.01451 9.99687L0.106702 9.53969C0.0365149 9.68148 0 9.83756 0 9.99578C0 10.154 0.0365149 10.3101 0.106702 10.4519L0.104515 10.4562L0.111077 10.4628L0.124202 10.4891C0.192412 10.6257 0.265374 10.76 0.342952 10.8916C1.28489 12.4828 2.43715 13.9397 3.76858 15.2228C6.23389 17.5853 10.0248 19.9916 15.2311 19.9916C20.4351 19.9916 24.2283 17.5853 26.6936 15.2206C27.7166 14.2344 28.6358 13.1459 29.4367 11.9722C29.7434 11.5206 30.0288 11.0549 30.292 10.5766L30.338 10.4891L30.3511 10.4628L30.3555 10.4562V10.4541C30.3555 10.4541 30.3576 10.4519 29.4498 9.99687ZM29.4498 9.99687L30.3576 10.4541C30.4278 10.3123 30.4643 10.1562 30.4643 9.99797C30.4643 9.83975 30.4278 9.68367 30.3576 9.54187L29.4498 9.99687ZM15.0998 6.63688C14.2087 6.63688 13.3541 6.99087 12.7239 7.621C12.0938 8.25112 11.7398 9.10575 11.7398 9.99687C11.7398 10.888 12.0938 11.7426 12.7239 12.3728C13.3541 13.0029 14.2087 13.3569 15.0998 13.3569C15.991 13.3569 16.8456 13.0029 17.4757 12.3728C18.1058 11.7426 18.4598 10.888 18.4598 9.99687C18.4598 9.10575 18.1058 8.25112 17.4757 7.621C16.8456 6.99087 15.991 6.63688 15.0998 6.63688ZM9.7142 9.99687C9.7142 8.56736 10.2821 7.19639 11.2929 6.18557C12.3037 5.17475 13.6747 4.60687 15.1042 4.60687C16.5337 4.60687 17.9047 5.17475 18.9155 6.18557C19.9263 7.19639 20.4942 8.56736 20.4942 9.99687C20.4942 11.4264 19.9263 12.7974 18.9155 13.8082C17.9047 14.819 16.5337 15.3869 15.1042 15.3869C13.6747 15.3869 12.3037 14.819 11.2929 13.8082C10.2821 12.7974 9.7142 11.4264 9.7142 9.99687Z" fill="#E6E6E6"/>
</svg>
