<svg width="48" height="48" viewBox="0 0 48 48" fill="none" xmlns="http://www.w3.org/2000/svg">
<path d="M28 12V10C28 7.79086 26.2092 6 24 6C21.7908 6 20 7.79086 20 10V12M18 22H30C31.1046 22 32 21.1046 32 20V14C32 12.8954 31.1046 12 30 12H18C16.8954 12 16 12.8954 16 14V20C16 21.1046 16.8954 22 18 22ZM10 42H38C40.2092 42 42 40.2092 42 38V32C42 29.7908 40.2092 28 38 28H10C7.79086 28 6 29.7908 6 32V38C6 40.2092 7.79086 42 10 42Z" stroke="white" stroke-width="2" stroke-linecap="round" stroke-linejoin="round"/>
<path d="M15 38C16.6569 38 18 36.6569 18 35C18 33.3431 16.6569 32 15 32C13.3431 32 12 33.3431 12 35C12 36.6569 13.3431 38 15 38Z" fill="white"/>
<path d="M24 38C25.6569 38 27 36.6569 27 35C27 33.3431 25.6569 32 24 32C22.3431 32 21 33.3431 21 35C21 36.6569 22.3431 38 24 38Z" fill="white"/>
<path d="M33 38C34.6569 38 36 36.6569 36 35C36 33.3431 34.6569 32 33 32C31.3431 32 30 33.3431 30 35C30 36.6569 31.3431 38 33 38Z" fill="white"/>
</svg>
