<svg width="34" height="44" viewBox="0 0 34 44" fill="none" xmlns="http://www.w3.org/2000/svg">
<path d="M29.5312 19.4902H4.21875C3.10087 19.4935 2.02972 19.939 1.23926 20.7295C0.448797 21.52 0.00327215 22.5911 0 23.709V38.8965C0.00327215 40.0144 0.448797 41.0855 1.23926 41.876C2.02972 42.6664 3.10087 43.112 4.21875 43.1152H29.5312C30.6491 43.112 31.7203 42.6664 32.5107 41.876C33.3012 41.0855 33.7467 40.0144 33.75 38.8965V23.709C33.7467 22.5911 33.3012 21.52 32.5107 20.7295C31.7203 19.939 30.6491 19.4935 29.5312 19.4902ZM10.1365 32.1869C10.2423 32.2477 10.3351 32.3288 10.4095 32.4254C10.4839 32.5221 10.5386 32.6325 10.5703 32.7503C10.602 32.8681 10.6101 32.991 10.5943 33.112C10.5784 33.233 10.5388 33.3496 10.4778 33.4553C10.4168 33.5609 10.3356 33.6535 10.2387 33.7277C10.1419 33.8019 10.0314 33.8563 9.91349 33.8877C9.79561 33.9192 9.67268 33.927 9.55175 33.9109C9.43082 33.8948 9.31426 33.8549 9.20874 33.7937L7.67781 32.9098V34.6778C7.67781 34.9239 7.58006 35.1599 7.40606 35.3339C7.23207 35.5079 6.99608 35.6056 6.75001 35.6056C6.50394 35.6056 6.26795 35.5079 6.09396 35.3339C5.91996 35.1599 5.82221 34.9239 5.82221 34.6778V32.9098L4.29128 33.7937C4.07824 33.9161 3.82537 33.9489 3.58813 33.8851C3.35089 33.8213 3.14867 33.6659 3.02582 33.4532C2.90296 33.2404 2.86952 32.9876 2.93283 32.7502C2.99613 32.5129 3.15101 32.3103 3.36349 32.1869L4.89484 31.3028L3.36349 30.4187C3.15101 30.2954 2.99613 30.0928 2.93283 29.8554C2.86952 29.618 2.90296 29.3652 3.02582 29.1525C3.14867 28.9397 3.35089 28.7844 3.58813 28.7205C3.82537 28.6567 4.07824 28.6896 4.29128 28.8119L5.82221 29.6958V27.9278C5.82221 27.6818 5.91996 27.4458 6.09396 27.2718C6.26795 27.0978 6.50394 27 6.75001 27C6.99608 27 7.23207 27.0978 7.40606 27.2718C7.58006 27.4458 7.67781 27.6818 7.67781 27.9278V29.6958L9.20874 28.8119C9.42177 28.6896 9.67465 28.6567 9.91189 28.7205C10.1491 28.7844 10.3514 28.9397 10.4742 29.1525C10.5971 29.3652 10.6305 29.618 10.5672 29.8554C10.5039 30.0928 10.349 30.2954 10.1365 30.4187L8.60518 31.3028L10.1365 32.1869ZM20.2615 32.1869C20.3673 32.2477 20.4601 32.3288 20.5345 32.4254C20.6089 32.5221 20.6636 32.6325 20.6953 32.7503C20.727 32.8681 20.7351 32.991 20.7193 33.112C20.7034 33.233 20.6638 33.3496 20.6028 33.4553C20.5418 33.5609 20.4606 33.6535 20.3637 33.7277C20.2669 33.8019 20.1564 33.8563 20.0385 33.8877C19.9206 33.9192 19.7977 33.927 19.6768 33.9109C19.5558 33.8948 19.4393 33.8549 19.3337 33.7937L17.8028 32.9098V34.6778C17.8028 34.9239 17.7051 35.1599 17.5311 35.3339C17.3571 35.5079 17.1211 35.6056 16.875 35.6056C16.6289 35.6056 16.393 35.5079 16.219 35.3339C16.045 35.1599 15.9472 34.9239 15.9472 34.6778V32.9098L14.4163 33.7937C14.2032 33.9161 13.9504 33.9489 13.7131 33.8851C13.4759 33.8213 13.2737 33.6659 13.1508 33.4532C13.028 33.2404 12.9945 32.9876 13.0578 32.7502C13.1211 32.5129 13.276 32.3103 13.4885 32.1869L15.0198 31.3028L13.4885 30.4187C13.276 30.2954 13.1211 30.0928 13.0578 29.8554C12.9945 29.618 13.028 29.3652 13.1508 29.1525C13.2737 28.9397 13.4759 28.7844 13.7131 28.7205C13.9504 28.6567 14.2032 28.6896 14.4163 28.8119L15.9472 29.6958V27.9278C15.9472 27.6818 16.045 27.4458 16.219 27.2718C16.393 27.0978 16.6289 27 16.875 27C17.1211 27 17.3571 27.0978 17.5311 27.2718C17.7051 27.4458 17.8028 27.6818 17.8028 27.9278V29.6958L19.3337 28.8119C19.5468 28.6896 19.7997 28.6567 20.0369 28.7205C20.2741 28.7844 20.4764 28.9397 20.5992 29.1525C20.7221 29.3652 20.7555 29.618 20.6922 29.8554C20.6289 30.0928 20.474 30.2954 20.2615 30.4187L18.7302 31.3028L20.2615 32.1869ZM30.3865 32.1869C30.4923 32.2477 30.5851 32.3288 30.6595 32.4254C30.7339 32.5221 30.7886 32.6325 30.8203 32.7503C30.852 32.8681 30.8601 32.991 30.8443 33.112C30.8284 33.233 30.7888 33.3496 30.7278 33.4553C30.6668 33.5609 30.5856 33.6535 30.4887 33.7277C30.3919 33.8019 30.2814 33.8563 30.1635 33.8877C30.0456 33.9192 29.9227 33.927 29.8018 33.9109C29.6808 33.8948 29.5643 33.8549 29.4587 33.7937L27.9278 32.9098V34.6778C27.9278 34.9239 27.8301 35.1599 27.6561 35.3339C27.4821 35.5079 27.2461 35.6056 27 35.6056C26.7539 35.6056 26.518 35.5079 26.344 35.3339C26.17 35.1599 26.0722 34.9239 26.0722 34.6778V32.9098L24.5413 33.7937C24.3282 33.9161 24.0754 33.9489 23.8381 33.8851C23.6009 33.8213 23.3987 33.6659 23.2758 33.4532C23.153 33.2404 23.1195 32.9876 23.1828 32.7502C23.2461 32.5129 23.401 32.3103 23.6135 32.1869L25.1448 31.3028L23.6135 30.4187C23.401 30.2954 23.2461 30.0928 23.1828 29.8554C23.1195 29.618 23.153 29.3652 23.2758 29.1525C23.3987 28.9397 23.6009 28.7844 23.8381 28.7205C24.0754 28.6567 24.3282 28.6896 24.5413 28.8119L26.0722 29.6958V27.9278C26.0722 27.6818 26.17 27.4458 26.344 27.2718C26.518 27.0978 26.7539 27 27 27C27.2461 27 27.4821 27.0978 27.6561 27.2718C27.8301 27.4458 27.9278 27.6818 27.9278 27.9278V29.6958L29.4587 28.8119C29.6718 28.6896 29.9247 28.6567 30.1619 28.7205C30.3991 28.7844 30.6014 28.9397 30.7242 29.1525C30.8471 29.3652 30.8805 29.618 30.8172 29.8554C30.7539 30.0928 30.599 30.2954 30.3865 30.4187L28.8552 31.3028L30.3865 32.1869Z" fill="white"/>
<path d="M7.67591 11.0528C7.67591 8.61355 8.6449 6.2742 10.3697 4.54939C12.0945 2.82458 14.4339 1.85559 16.8731 1.85559C19.3124 1.85559 21.6517 2.82458 23.3765 4.54939C25.1013 6.2742 26.0703 8.61355 26.0703 11.0528V17.6339H27.9259V11.0528C27.9259 8.12141 26.7614 5.31009 24.6886 3.23729C22.6158 1.16449 19.8045 0 16.8731 0C13.9417 0 11.1304 1.16449 9.0576 3.23729C6.9848 5.31009 5.82031 8.12141 5.82031 11.0528V17.6339H7.67591V11.0528Z" fill="white"/>
</svg>
