<svg width="48" height="48" viewBox="0 0 48 48" fill="none" xmlns="http://www.w3.org/2000/svg">
<path d="M38.7698 21.2305H9.23137C7.2006 21.2305 5.53906 22.892 5.53906 24.9228V42.4612C5.53906 44.492 7.2006 46.1535 9.23137 46.1535H38.7698C40.8006 46.1535 42.4621 44.492 42.4621 42.4612V24.9228C42.4621 22.892 40.8006 21.2305 38.7698 21.2305ZM28.616 41.0766C27.2314 41.9997 25.6621 42.4612 24.0006 42.4612C23.4468 42.4612 22.8929 42.3689 22.3391 42.2766C20.1237 41.8151 18.2775 40.6151 17.0775 38.7689L20.1237 36.7382C20.7698 37.7535 21.8775 38.492 23.0775 38.6766C24.2775 38.9535 25.4775 38.6766 26.5852 37.9382C28.7083 36.5535 29.2621 33.5997 27.8775 31.5689C27.2314 30.5535 26.1237 29.8151 24.9237 29.6305C23.7237 29.3535 22.5237 29.6305 21.416 30.3689C21.1391 30.5535 20.9544 30.7382 20.7698 30.9228L24.0006 34.1535H15.6929V25.8459L18.0929 28.2459C18.4621 27.8766 18.9237 27.5074 19.2929 27.2305C21.1391 26.0305 23.3544 25.5689 25.5698 25.9382C27.7852 26.3997 29.6314 27.5997 30.8314 29.4459C33.416 33.3228 32.4006 38.492 28.616 41.0766Z" fill="white"/>
<path d="M10.1535 17.5388H13.8459C14.3997 17.5388 14.7689 17.2619 14.7689 16.7081V16.6157C14.7689 11.3542 19.292 7.01574 24.6459 7.38498C29.5382 7.75421 33.2305 12.0004 33.2305 16.985V16.7081C33.2305 17.2619 33.5997 17.5388 34.1535 17.5388H37.8459C38.3997 17.5388 38.7689 17.2619 38.7689 16.7081V16.6157C38.7689 8.21574 31.7535 1.47728 23.2612 1.84651C15.4151 2.21574 9.41508 8.8619 9.23047 16.7081C9.32278 17.1696 9.69201 17.5388 10.1535 17.5388Z" fill="white"/>
</svg>
