<svg width="36" height="36" viewBox="0 0 36 36" fill="none" xmlns="http://www.w3.org/2000/svg">
<path fill-rule="evenodd" clip-rule="evenodd" d="M5.067 7.623C4.5 8.43 4.5 10.83 4.5 15.6255V17.9865C4.5 26.4435 10.8585 30.549 14.8485 32.2905C15.93 32.763 16.4715 33 18 33C19.53 33 20.07 32.763 21.1515 32.2905C25.1415 30.5475 31.5 26.445 31.5 17.9865V15.6255C31.5 10.8285 31.5 8.43 30.933 7.623C30.3675 6.8175 28.113 6.045 23.6025 4.5015L22.743 4.2075C20.3925 3.402 19.218 3 18 3C16.782 3 15.6075 3.402 13.257 4.2075L12.3975 4.5C7.887 6.045 5.6325 6.8175 5.067 7.623ZM15.045 13.455C14.942 13.3445 14.8178 13.2558 14.6798 13.1943C14.5418 13.1328 14.3928 13.0998 14.2418 13.0971C14.0907 13.0944 13.9407 13.1222 13.8006 13.1788C13.6605 13.2354 13.5333 13.3196 13.4264 13.4264C13.3196 13.5333 13.2354 13.6605 13.1788 13.8006C13.1222 13.9407 13.0944 14.0907 13.0971 14.2418C13.0998 14.3928 13.1328 14.5418 13.1943 14.6798C13.2558 14.8178 13.3445 14.942 13.455 15.045L16.41 18L13.455 20.955C13.3445 21.058 13.2558 21.1822 13.1943 21.3202C13.1328 21.4582 13.0998 21.6072 13.0971 21.7582C13.0944 21.9093 13.1222 22.0593 13.1788 22.1994C13.2354 22.3395 13.3196 22.4667 13.4264 22.5736C13.5333 22.6804 13.6605 22.7646 13.8006 22.8212C13.9407 22.8778 14.0907 22.9056 14.2418 22.9029C14.3928 22.9002 14.5418 22.8672 14.6798 22.8057C14.8178 22.7442 14.942 22.6555 15.045 22.545L18 19.59L20.955 22.545C21.1683 22.7437 21.4503 22.8519 21.7418 22.8468C22.0332 22.8416 22.3113 22.7236 22.5174 22.5174C22.7236 22.3113 22.8416 22.0332 22.8468 21.7418C22.8519 21.4503 22.7437 21.1683 22.545 20.955L19.59 18L22.545 15.045C22.6555 14.942 22.7442 14.8178 22.8057 14.6798C22.8672 14.5418 22.9002 14.3928 22.9029 14.2418C22.9056 14.0907 22.8778 13.9407 22.8212 13.8006C22.7646 13.6605 22.6804 13.5333 22.5736 13.4264C22.4667 13.3196 22.3395 13.2354 22.1994 13.1788C22.0593 13.1222 21.9093 13.0944 21.7582 13.0971C21.6072 13.0998 21.4582 13.1328 21.3202 13.1943C21.1822 13.2558 21.058 13.3445 20.955 13.455L18 16.41L15.045 13.455Z" fill="url(#paint0_linear_2511_35626)"/>
<defs>
<linearGradient id="paint0_linear_2511_35626" x1="18" y1="3" x2="18" y2="33" gradientUnits="userSpaceOnUse">
<stop stop-color="#FF6868"/>
<stop offset="0.519231" stop-color="#FF3434"/>
<stop offset="1" stop-color="#6E1111"/>
</linearGradient>
</defs>
</svg>
