<svg width="41" height="41" viewBox="0 0 41 41" fill="none" xmlns="http://www.w3.org/2000/svg">
<path fill-rule="evenodd" clip-rule="evenodd" d="M5.58427 12.2252L17.434 3.92783C18.0702 3.48252 18.8572 3.3081 19.6219 3.44293C20.3866 3.57775 21.0665 4.01079 21.512 4.6468L23.3812 7.31546C23.4085 7.35451 23.4346 7.39429 23.4595 7.4348L5.58427 12.2252ZM1.57213 21.8478L0.761649 18.8225C0.56088 18.0723 0.666383 17.2729 1.05495 16.6004C1.44352 15.9279 2.08332 15.4373 2.83361 15.2365L32.5352 7.27812C33.2854 7.07708 34.0847 7.18227 34.7574 7.57056C35.43 7.95885 35.9209 8.59843 36.122 9.34862L36.9646 12.4954C37.0837 12.9396 37.0693 13.4091 36.9234 13.8452C36.7774 14.2814 36.5064 14.6649 36.1439 14.948C35.5743 15.3923 35.1489 15.9951 34.9211 16.6806C34.6933 17.3661 34.6733 18.1036 34.8637 18.8004C35.0542 19.4972 35.4464 20.1221 35.9912 20.5965C36.536 21.0709 37.2089 21.3735 37.9252 21.4663C38.3677 21.524 38.783 21.7117 39.1187 22.0056C39.4545 22.2995 39.6955 22.6864 39.8112 23.1173L40.6693 26.3219C40.8703 27.0721 40.7651 27.8714 40.3769 28.5441C39.9886 29.2167 39.349 29.7076 38.5988 29.9087L8.89576 37.867C8.14566 38.0679 7.34651 37.9626 6.67404 37.5743C6.00156 37.186 5.51082 36.5466 5.30972 35.7965L4.50217 32.7816C4.37453 32.3071 4.38679 31.8059 4.53748 31.3383C4.68816 30.8706 4.97083 30.4565 5.35145 30.1459C5.89837 29.6994 6.30456 29.1044 6.5211 28.4324C6.73764 27.7605 6.75529 27.0402 6.57192 26.3585C6.38856 25.6767 6.01201 25.0625 5.48761 24.5898C4.96322 24.1171 4.31335 23.8061 3.61627 23.6942C3.13405 23.6164 2.6846 23.4009 2.32205 23.0735C1.95951 22.7462 1.69933 22.321 1.57286 21.8492M27.5478 16.9519C27.8297 16.8803 28.0946 16.7534 28.3271 16.5786C28.5596 16.4038 28.755 16.1846 28.9021 15.9337C29.0491 15.6827 29.1449 15.4051 29.1838 15.1168C29.2227 14.8286 29.2039 14.5355 29.1287 14.2545C29.0534 13.9736 28.923 13.7104 28.7452 13.4802C28.5674 13.2501 28.3456 13.0575 28.0928 12.9137C27.8399 12.77 27.561 12.6779 27.2723 12.6427C26.9836 12.6076 26.6907 12.6302 26.4108 12.7092C25.855 12.8659 25.3832 13.2354 25.0977 13.7374C24.8123 14.2395 24.736 14.8338 24.8855 15.3917C25.035 15.9495 25.3982 16.4261 25.8965 16.7181C26.3948 17.0101 26.9881 17.0941 27.5478 16.9519ZM29.0634 22.6099C29.342 22.5353 29.6032 22.4066 29.8321 22.231C30.0609 22.0554 30.253 21.8365 30.3973 21.5867C30.5415 21.337 30.6352 21.0612 30.6729 20.7752C30.7106 20.4893 30.6916 20.1987 30.617 19.92C30.5424 19.6414 30.4136 19.3802 30.238 19.1513C30.0625 18.9224 29.8436 18.7304 29.5938 18.5861C29.344 18.4419 29.0683 18.3482 28.7823 18.3105C28.4963 18.2728 28.2057 18.2918 27.9271 18.3664C27.3644 18.5172 26.8846 18.8853 26.5933 19.3899C26.302 19.8944 26.2231 20.494 26.3738 21.0567C26.5246 21.6194 26.8928 22.0992 27.3973 22.3905C27.9018 22.6818 28.5006 22.7607 29.0634 22.6099ZM30.5804 28.2672C30.863 28.1963 31.1288 28.0699 31.3621 27.8954C31.5954 27.7208 31.7917 27.5015 31.9394 27.2504C32.0872 26.9992 32.1835 26.7211 32.2227 26.4324C32.2619 26.1436 32.2433 25.85 32.1679 25.5685C32.0925 25.287 31.9619 25.0233 31.7836 24.7928C31.6053 24.5623 31.3829 24.3696 31.1294 24.2259C30.8759 24.0822 30.5963 23.9904 30.307 23.9558C30.0177 23.9212 29.7243 23.9445 29.4441 24.0244C28.8897 24.1825 28.4197 24.5521 28.1355 25.0535C27.8512 25.555 27.7755 26.1481 27.9246 26.7049C28.0737 27.2617 28.4358 27.7376 28.9326 28.0298C29.4294 28.3221 30.0212 28.4074 30.5804 28.2672Z" fill="white"/>
</svg>
