<svg width="41" height="35" viewBox="0 0 41 35" fill="none" xmlns="http://www.w3.org/2000/svg">
<path fill-rule="evenodd" clip-rule="evenodd" d="M5.58427 9.22521L17.434 0.927835C18.0702 0.482524 18.8572 0.308104 19.6219 0.442929C20.3866 0.577754 21.0665 1.01079 21.512 1.6468L23.3812 4.31546C23.4085 4.35451 23.4346 4.39429 23.4595 4.4348L5.58427 9.22521ZM1.57213 18.8478L0.761649 15.8225C0.56088 15.0723 0.666383 14.2729 1.05495 13.6004C1.44352 12.9279 2.08332 12.4373 2.83361 12.2365L32.5352 4.27812C33.2854 4.07708 34.0847 4.18227 34.7574 4.57056C35.43 4.95885 35.9209 5.59843 36.122 6.34862L36.9646 9.49537C37.0837 9.93962 37.0693 10.4091 36.9234 10.8452C36.7774 11.2814 36.5064 11.6649 36.1439 11.948C35.5743 12.3923 35.1489 12.9951 34.9211 13.6806C34.6933 14.3661 34.6733 15.1036 34.8637 15.8004C35.0542 16.4972 35.4464 17.1221 35.9912 17.5965C36.536 18.0709 37.2089 18.3735 37.9252 18.4663C38.3677 18.524 38.783 18.7117 39.1187 19.0056C39.4545 19.2995 39.6955 19.6864 39.8112 20.1173L40.6693 23.3219C40.8703 24.0721 40.7651 24.8714 40.3769 25.5441C39.9886 26.2167 39.349 26.7076 38.5988 26.9087L8.89576 34.867C8.14566 35.0679 7.34651 34.9626 6.67404 34.5743C6.00156 34.186 5.51082 33.5466 5.30972 32.7965L4.50217 29.7816C4.37453 29.3071 4.38679 28.8059 4.53748 28.3383C4.68816 27.8706 4.97083 27.4565 5.35145 27.1459C5.89837 26.6994 6.30456 26.1044 6.5211 25.4324C6.73764 24.7605 6.75529 24.0402 6.57192 23.3585C6.38856 22.6767 6.01201 22.0625 5.48761 21.5898C4.96322 21.1171 4.31335 20.8061 3.61627 20.6942C3.13405 20.6164 2.6846 20.4009 2.32205 20.0735C1.95951 19.7462 1.69933 19.321 1.57286 18.8492M27.5478 13.9519C27.8297 13.8803 28.0946 13.7534 28.3271 13.5786C28.5596 13.4038 28.755 13.1846 28.9021 12.9337C29.0491 12.6827 29.1449 12.4051 29.1838 12.1168C29.2227 11.8286 29.2039 11.5355 29.1287 11.2545C29.0534 10.9736 28.923 10.7104 28.7452 10.4802C28.5674 10.2501 28.3456 10.0575 28.0928 9.91375C27.8399 9.76998 27.561 9.67786 27.2723 9.64274C26.9836 9.60762 26.6907 9.63019 26.4108 9.70916C25.855 9.86595 25.3832 10.2354 25.0977 10.7374C24.8123 11.2395 24.736 11.8338 24.8855 12.3917C25.035 12.9495 25.3982 13.4261 25.8965 13.7181C26.3948 14.0101 26.9881 14.0941 27.5478 13.9519ZM29.0634 19.6099C29.342 19.5353 29.6032 19.4066 29.8321 19.231C30.0609 19.0554 30.253 18.8365 30.3973 18.5867C30.5415 18.337 30.6352 18.0612 30.6729 17.7752C30.7106 17.4893 30.6916 17.1987 30.617 16.92C30.5424 16.6414 30.4136 16.3802 30.238 16.1513C30.0625 15.9224 29.8436 15.7304 29.5938 15.5861C29.344 15.4419 29.0683 15.3482 28.7823 15.3105C28.4963 15.2728 28.2057 15.2918 27.9271 15.3664C27.3644 15.5172 26.8846 15.8853 26.5933 16.3899C26.302 16.8944 26.2231 17.494 26.3738 18.0567C26.5246 18.6194 26.8928 19.0992 27.3973 19.3905C27.9018 19.6818 28.5006 19.7607 29.0634 19.6099ZM30.5804 25.2672C30.863 25.1963 31.1288 25.0699 31.3621 24.8954C31.5954 24.7208 31.7917 24.5015 31.9394 24.2504C32.0872 23.9992 32.1835 23.7211 32.2227 23.4324C32.2619 23.1436 32.2433 22.85 32.1679 22.5685C32.0925 22.287 31.9619 22.0233 31.7836 21.7928C31.6053 21.5623 31.3829 21.3696 31.1294 21.2259C30.8759 21.0822 30.5963 20.9904 30.307 20.9558C30.0177 20.9212 29.7243 20.9445 29.4441 21.0244C28.8897 21.1825 28.4197 21.5521 28.1355 22.0535C27.8512 22.555 27.7755 23.1481 27.9246 23.7049C28.0737 24.2617 28.4358 24.7376 28.9326 25.0298C29.4294 25.3221 30.0212 25.4074 30.5804 25.2672Z" fill="white"/>
</svg>
