<svg width="44" height="45" viewBox="0 0 44 45" fill="none" xmlns="http://www.w3.org/2000/svg">
<path d="M22 0.5C33.8636 0.5 43.5 10.3391 43.5 22.5C43.5 34.6609 33.8636 44.5 22 44.5C10.1364 44.5 0.5 34.6609 0.5 22.5C0.5 10.3391 10.1364 0.5 22 0.5Z" fill="#1E1242" stroke="white"/>
<path fill-rule="evenodd" clip-rule="evenodd" d="M20.1496 30H23.853C26.4538 30 27.7546 30 28.6888 29.3875C29.092 29.1235 29.4392 28.7825 29.7105 28.3842C30.3346 27.4675 30.3346 26.19 30.3346 23.6367C30.3346 21.0834 30.3346 19.8059 29.7105 18.8892C29.4392 18.4909 29.092 18.1499 28.6888 17.8859C28.0888 17.4917 27.3371 17.3509 26.1863 17.3009C25.6371 17.3009 25.1646 16.8925 25.0571 16.3634C24.975 15.9758 24.7615 15.6284 24.4528 15.38C24.1442 15.1316 23.7592 14.9974 23.363 15H20.6396C19.8163 15 19.1071 15.5709 18.9455 16.3634C18.838 16.8925 18.3655 17.3009 17.8163 17.3009C16.6663 17.3509 15.9146 17.4925 15.3138 17.8859C14.9109 18.15 14.564 18.4909 14.293 18.8892C13.668 19.8059 13.668 21.0825 13.668 23.6367C13.668 26.1909 13.668 27.4667 14.2921 28.3842C14.5621 28.7809 14.9088 29.1217 15.3138 29.3875C16.248 30 17.5488 30 20.1496 30ZM22.0013 20.2275C20.0838 20.2275 18.5288 21.7534 18.5288 23.6359C18.5288 25.5184 20.0846 27.0467 22.0013 27.0467C23.918 27.0467 25.4738 25.52 25.4738 23.6375C25.4738 21.755 23.918 20.2275 22.0013 20.2275ZM22.0013 21.5909C20.8513 21.5909 19.918 22.5067 19.918 23.6367C19.918 24.7659 20.8513 25.6817 22.0013 25.6817C23.1513 25.6817 24.0846 24.7659 24.0846 23.6367C24.0846 22.5075 23.1513 21.5909 22.0013 21.5909ZM25.9363 20.9092C25.9363 20.5325 26.2471 20.2275 26.6313 20.2275H27.5563C27.9396 20.2275 28.2513 20.5325 28.2513 20.9092C28.2495 21.0916 28.1754 21.2659 28.0453 21.3937C27.9151 21.5215 27.7396 21.5924 27.5571 21.5909H26.6313C26.5409 21.5918 26.4512 21.5748 26.3674 21.541C26.2835 21.5073 26.2072 21.4573 26.1426 21.394C26.0781 21.3307 26.0266 21.2553 25.9912 21.1721C25.9558 21.0889 25.9372 20.9996 25.9363 20.9092Z" fill="white"/>
</svg>
