<svg width="23" height="21" viewBox="0 0 23 21" fill="none" xmlns="http://www.w3.org/2000/svg">
<path fill-rule="evenodd" clip-rule="evenodd" d="M10.2536 0.0761719C8.99841 0.0761719 7.79462 0.574797 6.90706 1.46236C6.01951 2.34991 5.52088 3.5537 5.52088 4.8089C5.52088 6.0641 6.01951 7.26788 6.90706 8.15544C7.79462 9.043 8.99841 9.54163 10.2536 9.54163C11.5088 9.54163 12.7126 9.043 13.6002 8.15544C14.4877 7.26788 14.9863 6.0641 14.9863 4.8089C14.9863 3.5537 14.4877 2.34991 13.6002 1.46236C12.7126 0.574797 11.5088 0.0761719 10.2536 0.0761719ZM1.05119 13.3537C3.78854 11.8288 6.87106 11.0308 10.0045 11.0362C11.9116 11.0362 13.7528 11.3261 15.4845 11.8651V14.5234H11.0009V18.0107H0.539062V13.6377L1.05119 13.3537ZM22.4591 17.0144L18.4736 20.9998H16.9791V18.0107H12.4954V16.018H16.9791V13.0289H18.4736L21.4627 16.018L22.4591 17.0144Z" fill="white"/>
</svg>
