<svg width="15" height="15" viewBox="0 0 15 15" fill="none" xmlns="http://www.w3.org/2000/svg">
<path d="M5.50058 6.77661H5.16225C4.70054 6.75993 4.24033 6.83831 3.81018 7.00689C3.38003 7.17547 2.98911 7.43066 2.66169 7.75661L2.56836 7.8655V11.0855H4.15503V9.25773L4.36891 9.01661L4.46614 8.90384C4.97244 8.3837 5.60277 8.00095 6.2978 7.79161C5.94995 7.52671 5.67553 7.17733 5.50058 6.77661Z" fill="white"/>
<path d="M13.0225 7.74489C12.6951 7.41894 12.3042 7.16375 11.874 6.99517C11.4439 6.82659 10.9837 6.74821 10.522 6.7649C10.3804 6.76565 10.2389 6.77344 10.0981 6.78823C9.91988 7.16416 9.65296 7.49114 9.32031 7.74101C10.0624 7.9461 10.7346 8.34942 11.2648 8.90767L11.362 9.01656L11.572 9.25767V11.0893H13.1042V7.85378L13.0225 7.74489Z" fill="white"/>
<path d="M5.14995 6.01809H5.27051C5.21449 5.53713 5.29888 5.05024 5.5135 4.61619C5.72811 4.18213 6.06377 3.81947 6.47995 3.57198C6.32909 3.34151 6.12095 3.15416 5.87593 3.0283C5.63091 2.90243 5.3574 2.84235 5.08218 2.85395C4.80696 2.86555 4.53948 2.94842 4.30591 3.09446C4.07235 3.24049 3.88072 3.44469 3.74978 3.68704C3.61884 3.92939 3.55309 4.20159 3.55895 4.47699C3.56482 4.75239 3.64212 5.02154 3.78326 5.25809C3.92441 5.49464 4.12457 5.69048 4.36414 5.82643C4.60371 5.96239 4.87449 6.03379 5.14995 6.03365V6.01809Z" fill="white"/>
<path d="M10.3347 5.72653C10.3391 5.81592 10.3391 5.90547 10.3347 5.99486C10.4093 6.00681 10.4847 6.01331 10.5603 6.0143H10.6341C10.9084 5.99968 11.1742 5.91429 11.4056 5.76646C11.6371 5.61862 11.8263 5.41337 11.9549 5.17069C12.0835 4.92802 12.1471 4.65618 12.1394 4.38164C12.1317 4.10711 12.0531 3.83924 11.9112 3.60411C11.7693 3.36898 11.5689 3.1746 11.3296 3.0399C11.0902 2.9052 10.8201 2.83476 10.5455 2.83545C10.2708 2.83615 10.001 2.90794 9.76238 3.04384C9.52373 3.17974 9.32432 3.37513 9.18359 3.61097C9.53557 3.84078 9.82499 4.15437 10.0259 4.5236C10.2268 4.89284 10.3329 5.30617 10.3347 5.72653Z" fill="white"/>
<path d="M7.78326 7.46885C8.74331 7.46885 9.52159 6.69058 9.52159 5.73052C9.52159 4.77047 8.74331 3.99219 7.78326 3.99219C6.8232 3.99219 6.04492 4.77047 6.04492 5.73052C6.04492 6.69058 6.8232 7.46885 7.78326 7.46885Z" fill="white"/>
<path d="M7.87589 8.3946C7.36805 8.37432 6.86134 8.45687 6.3862 8.63731C5.91105 8.81774 5.47727 9.09234 5.11089 9.4446L5.01367 9.55349V12.0152C5.01519 12.0953 5.03249 12.1744 5.06458 12.2479C5.09668 12.3214 5.14294 12.3879 5.20072 12.4435C5.2585 12.4991 5.32667 12.5428 5.40134 12.5721C5.47601 12.6013 5.55571 12.6156 5.63589 12.614H10.1042C10.1844 12.6156 10.2641 12.6013 10.3388 12.5721C10.4135 12.5428 10.4816 12.4991 10.5394 12.4435C10.5972 12.3879 10.6434 12.3214 10.6755 12.2479C10.7076 12.1744 10.7249 12.0953 10.7264 12.0152V9.56127L10.6331 9.4446C10.2692 9.09107 9.83699 8.81558 9.36287 8.63503C8.88876 8.45447 8.38275 8.37266 7.87589 8.3946Z" fill="white"/>
</svg>
