<svg width="42" height="42" viewBox="0 0 42 42" fill="none" xmlns="http://www.w3.org/2000/svg">
<path d="M7.00001 31.5C6.50417 31.5 6.08884 31.332 5.75401 30.996C5.41917 30.66 5.25117 30.2447 5.25001 29.75C5.24884 29.2553 5.41684 28.84 5.75401 28.504C6.09117 28.168 6.50651 28 7.00001 28H35C35.4958 28 35.9118 28.168 36.2478 28.504C36.5838 28.84 36.7512 29.2553 36.75 29.75C36.7488 30.2447 36.5808 30.6606 36.246 30.9977C35.9112 31.3349 35.4958 31.5023 35 31.5H7.00001ZM7.00001 22.75C6.50417 22.75 6.08884 22.582 5.75401 22.246C5.41917 21.91 5.25117 21.4947 5.25001 21C5.24884 20.5053 5.41684 20.09 5.75401 19.754C6.09117 19.418 6.50651 19.25 7.00001 19.25H35C35.4958 19.25 35.9118 19.418 36.2478 19.754C36.5838 20.09 36.7512 20.5053 36.75 21C36.7488 21.4947 36.5808 21.9106 36.246 22.2478C35.9112 22.5849 35.4958 22.7523 35 22.75H7.00001ZM7.00001 14C6.50417 14 6.08884 13.832 5.75401 13.496C5.41917 13.16 5.25117 12.7447 5.25001 12.25C5.24884 11.7553 5.41684 11.34 5.75401 11.004C6.09117 10.668 6.50651 10.5 7.00001 10.5H35C35.4958 10.5 35.9118 10.668 36.2478 11.004C36.5838 11.34 36.7512 11.7553 36.75 12.25C36.7488 12.7447 36.5808 13.1606 36.246 13.4977C35.9112 13.8349 35.4958 14.0023 35 14H7.00001Z" fill="white"/>
</svg>
