<svg width="40" height="39" viewBox="0 0 40 39" fill="none" xmlns="http://www.w3.org/2000/svg">
<path d="M23.25 16.25V22.75H16.75V16.25H23.25ZM26.5 16.25H34.625V22.75H26.5V16.25ZM23.25 34.125H16.75V26H23.25V34.125ZM26.5 34.125V26H34.625V32.5C34.625 32.931 34.4538 33.3443 34.149 33.649C33.8443 33.9538 33.431 34.125 33 34.125H26.5ZM23.25 4.875V13H16.75V4.875H23.25ZM26.5 4.875H33C33.431 4.875 33.8443 5.0462 34.149 5.35095C34.4538 5.6557 34.625 6.06902 34.625 6.5V13H26.5V4.875ZM13.5 16.25V22.75H5.375V16.25H13.5ZM13.5 34.125H7C6.56902 34.125 6.1557 33.9538 5.85095 33.649C5.5462 33.3443 5.375 32.931 5.375 32.5V26H13.5V34.125ZM13.5 4.875V13H5.375V6.5C5.375 6.06902 5.5462 5.6557 5.85095 5.35095C6.1557 5.0462 6.56902 4.875 7 4.875H13.5Z" fill="white"/>
</svg>
