<svg width="22" height="18" viewBox="0 0 22 18" fill="none" xmlns="http://www.w3.org/2000/svg">
<path d="M11 8.729V9.27067M11 4.6665V5.20817M11 12.7915V13.3332M18.5833 16.5832C19.158 16.5832 19.7091 16.3549 20.1154 15.9486C20.5217 15.5422 20.75 14.9911 20.75 14.4165V11.1665C20.1754 11.1665 19.6243 10.9382 19.2179 10.5319C18.8116 10.1256 18.5833 9.57447 18.5833 8.99984C18.5833 8.4252 18.8116 7.8741 19.2179 7.46777C19.6243 7.06144 20.1754 6.83317 20.75 6.83317V3.58317C20.75 3.00853 20.5217 2.45743 20.1154 2.05111C19.7091 1.64478 19.158 1.4165 18.5833 1.4165H3.41667C2.84203 1.4165 2.29093 1.64478 1.8846 2.05111C1.47827 2.45743 1.25 3.00853 1.25 3.58317V6.83317C1.82464 6.83317 2.37574 7.06144 2.78206 7.46777C3.18839 7.8741 3.41667 8.4252 3.41667 8.99984C3.41667 9.57447 3.18839 10.1256 2.78206 10.5319C2.37574 10.9382 1.82464 11.1665 1.25 11.1665V14.4165C1.25 14.9911 1.47827 15.5422 1.8846 15.9486C2.29093 16.3549 2.84203 16.5832 3.41667 16.5832H18.5833Z" stroke="white" stroke-linecap="round" stroke-linejoin="round"/>
</svg>
