<svg width="29" height="29" viewBox="0 0 29 29" fill="none" xmlns="http://www.w3.org/2000/svg">
<path d="M7.25 0.90625C7.25 0.665898 7.15452 0.435389 6.98457 0.265435C6.81461 0.0954797 6.5841 0 6.34375 0C6.1034 0 5.87289 0.0954797 5.70293 0.265435C5.53298 0.435389 5.4375 0.665898 5.4375 0.90625V1.8125H3.625C2.66359 1.8125 1.74156 2.19442 1.06174 2.87424C0.381919 3.55406 0 4.47609 0 5.4375L0 7.25H29V5.4375C29 4.47609 28.6181 3.55406 27.9383 2.87424C27.2584 2.19442 26.3364 1.8125 25.375 1.8125H23.5625V0.90625C23.5625 0.665898 23.467 0.435389 23.2971 0.265435C23.1271 0.0954797 22.8966 0 22.6562 0C22.4159 0 22.1854 0.0954797 22.0154 0.265435C21.8455 0.435389 21.75 0.665898 21.75 0.90625V1.8125H7.25V0.90625ZM17.0411 18.5709C18.1739 18.5709 19.1871 17.6936 19.1871 16.4321C19.1871 14.9241 18.2319 14.2028 17.0846 14.2028C16.0225 14.2028 14.9676 14.9042 14.9676 16.3959C14.9676 17.8767 15.9518 18.5709 17.0411 18.5709Z" fill="white"/>
<path d="M29 25.375V9.0625H0V25.375C0 26.3364 0.381919 27.2584 1.06174 27.9383C1.74156 28.6181 2.66359 29 3.625 29H25.375C26.3364 29 27.2584 28.6181 27.9383 27.9383C28.6181 27.2584 29 26.3364 29 25.375ZM16.9215 23.1819C14.9096 23.1819 13.92 21.7917 13.8348 20.6317H15.0728C15.1507 21.3023 15.7742 22.1179 16.9777 22.1179C18.5074 22.1179 19.3358 20.5809 19.343 18.1957H19.2941C19.0168 18.9461 18.1395 19.6276 16.7874 19.6276C15.2431 19.6276 13.7496 18.5219 13.7496 16.4194C13.7496 14.3586 15.3283 13.1406 17.0067 13.1406C19.1309 13.1406 20.5465 14.471 20.5465 17.9764C20.5465 21.2479 19.2016 23.1801 16.9215 23.1801V23.1819ZM11.6834 13.3309V22.9952H10.4581V14.6432H10.4364C9.91075 14.9259 8.83594 15.5857 8.15625 16.0515V14.79C8.91999 14.257 9.71465 13.7698 10.5361 13.3309H11.6834Z" fill="white"/>
</svg>
