<svg width="18" height="18" viewBox="0 0 18 18" fill="none" xmlns="http://www.w3.org/2000/svg">
<path d="M15.2515 2.41592L2.90427 6.53267C2.85372 6.54948 2.80948 6.58128 2.77743 6.62384C2.74537 6.66639 2.72703 6.7177 2.72483 6.77093C2.72264 6.82416 2.73669 6.8768 2.76512 6.92186C2.79356 6.96691 2.83503 7.00225 2.88402 7.02317L7.42152 8.96792C7.4453 8.97821 7.47134 8.98217 7.4971 8.97941C7.52286 8.97665 7.54747 8.96727 7.56853 8.95217L12.0168 5.77367C12.1548 5.67617 12.3243 5.84567 12.2268 5.98367L9.04827 10.4319C9.03343 10.453 9.02426 10.4775 9.02163 10.5031C9.019 10.5287 9.02301 10.5546 9.03327 10.5782L10.9773 15.1157C10.9981 15.1647 11.0334 15.2062 11.0784 15.2347C11.1234 15.2632 11.176 15.2773 11.2293 15.2752C11.2825 15.2731 11.3338 15.2548 11.3764 15.2229C11.419 15.1909 11.4509 15.1467 11.4678 15.0962L15.5845 2.74817C15.6 2.70189 15.6023 2.6522 15.5911 2.6047C15.5799 2.55719 15.5557 2.51374 15.5212 2.47923C15.4867 2.44472 15.4433 2.42051 15.3957 2.40933C15.3482 2.39814 15.2978 2.40043 15.2515 2.41592Z" fill="white"/>
</svg>
