<svg width="18" height="18" viewBox="0 0 18 18" fill="none" xmlns="http://www.w3.org/2000/svg">
<path d="M1.6875 5.25C1.6875 4.70299 1.9048 4.17839 2.29159 3.79159C2.67839 3.4048 3.20299 3.1875 3.75 3.1875H14.25C14.797 3.1875 15.3216 3.4048 15.7084 3.79159C16.0952 4.17839 16.3125 4.70299 16.3125 5.25V7.5C16.3125 7.64918 16.2532 7.79226 16.1477 7.89775C16.0423 8.00324 15.8992 8.0625 15.75 8.0625C15.5014 8.0625 15.2629 8.16127 15.0871 8.33709C14.9113 8.5129 14.8125 8.75136 14.8125 9C14.8125 9.24864 14.9113 9.4871 15.0871 9.66291C15.2629 9.83873 15.5014 9.9375 15.75 9.9375C15.8992 9.9375 16.0423 9.99676 16.1477 10.1023C16.2532 10.2077 16.3125 10.3508 16.3125 10.5V12.75C16.3125 13.297 16.0952 13.8216 15.7084 14.2084C15.3216 14.5952 14.797 14.8125 14.25 14.8125H3.75C3.20299 14.8125 2.67839 14.5952 2.29159 14.2084C1.9048 13.8216 1.6875 13.297 1.6875 12.75V10.5C1.6875 10.3508 1.74676 10.2077 1.85225 10.1023C1.95774 9.99676 2.10082 9.9375 2.25 9.9375C2.49864 9.9375 2.7371 9.83873 2.91291 9.66291C3.08873 9.4871 3.1875 9.24864 3.1875 9C3.1875 8.75136 3.08873 8.5129 2.91291 8.33709C2.7371 8.16127 2.49864 8.0625 2.25 8.0625C2.10082 8.0625 1.95774 8.00324 1.85225 7.89775C1.74676 7.79226 1.6875 7.64918 1.6875 7.5V5.25ZM9.5625 6C9.5625 5.85082 9.50324 5.70774 9.39775 5.60225C9.29226 5.49676 9.14918 5.4375 9 5.4375C8.85082 5.4375 8.70774 5.49676 8.60225 5.60225C8.49676 5.70774 8.4375 5.85082 8.4375 6V6.375C8.4375 6.52418 8.49676 6.66726 8.60225 6.77275C8.70774 6.87824 8.85082 6.9375 9 6.9375C9.14918 6.9375 9.29226 6.87824 9.39775 6.77275C9.50324 6.66726 9.5625 6.52418 9.5625 6.375V6ZM9.5625 8.8125C9.5625 8.66332 9.50324 8.52024 9.39775 8.41475C9.29226 8.30926 9.14918 8.25 9 8.25C8.85082 8.25 8.70774 8.30926 8.60225 8.41475C8.49676 8.52024 8.4375 8.66332 8.4375 8.8125V9.1875C8.4375 9.33668 8.49676 9.47976 8.60225 9.58525C8.70774 9.69074 8.85082 9.75 9 9.75C9.14918 9.75 9.29226 9.69074 9.39775 9.58525C9.50324 9.47976 9.5625 9.33668 9.5625 9.1875V8.8125ZM9.5625 11.625C9.5625 11.4758 9.50324 11.3327 9.39775 11.2273C9.29226 11.1218 9.14918 11.0625 9 11.0625C8.85082 11.0625 8.70774 11.1218 8.60225 11.2273C8.49676 11.3327 8.4375 11.4758 8.4375 11.625V12C8.4375 12.1492 8.49676 12.2923 8.60225 12.3977C8.70774 12.5032 8.85082 12.5625 9 12.5625C9.14918 12.5625 9.29226 12.5032 9.39775 12.3977C9.50324 12.2923 9.5625 12.1492 9.5625 12V11.625Z" fill="white"/>
</svg>
