<svg width="44" height="43" viewBox="0 0 44 43" fill="none" xmlns="http://www.w3.org/2000/svg">
<path d="M22.1641 26.875C25.1326 26.875 27.5391 24.4685 27.5391 21.5C27.5391 18.5315 25.1326 16.125 22.1641 16.125C19.1955 16.125 16.7891 18.5315 16.7891 21.5C16.7891 24.4685 19.1955 26.875 22.1641 26.875Z" fill="white"/>
<path d="M42.2391 21.0431C40.6587 16.955 37.9149 13.4195 34.347 10.8737C30.7791 8.32797 26.5434 6.88346 22.1635 6.71875C17.7836 6.88346 13.5479 8.32797 9.97998 10.8737C6.41208 13.4195 3.66833 16.955 2.08787 21.0431C1.98113 21.3384 1.98113 21.6616 2.08787 21.9569C3.66833 26.045 6.41208 29.5805 9.97998 32.1263C13.5479 34.672 17.7836 36.1165 22.1635 36.2812C26.5434 36.1165 30.7791 34.672 34.347 32.1263C37.9149 29.5805 40.6587 26.045 42.2391 21.9569C42.3459 21.6616 42.3459 21.3384 42.2391 21.0431ZM22.1635 30.2344C20.436 30.2344 18.7473 29.7221 17.3109 28.7624C15.8746 27.8026 14.7551 26.4385 14.094 24.8425C13.4329 23.2465 13.2599 21.4903 13.5969 19.796C13.934 18.1017 14.7658 16.5454 15.9874 15.3239C17.2089 14.1023 18.7652 13.2705 20.4595 12.9335C22.1538 12.5964 23.91 12.7694 25.506 13.4305C27.102 14.0916 28.4661 15.2111 29.4259 16.6474C30.3856 18.0838 30.8979 19.7725 30.8979 21.5C30.8943 23.8154 29.9729 26.035 28.3357 27.6722C26.6985 29.3095 24.4789 30.2308 22.1635 30.2344Z" fill="white"/>
</svg>
