<svg width="20" height="20" viewBox="0 0 20 20" fill="none" xmlns="http://www.w3.org/2000/svg">
<path d="M8.33008 3.83203H11.1729L11.1797 5.83301C11.1801 6.39292 11.5259 6.8699 12.0146 7.06738V7.92871C11.5254 8.12615 11.1798 8.60466 11.1797 9.16504V10.832C11.1797 11.3924 11.5256 11.8698 12.0146 12.0674V12.9287C11.5257 13.126 11.1802 13.6041 11.1797 14.1641L11.1748 15.833C11.1745 15.9327 11.1738 16.0114 11.1719 16.0791C11.171 16.11 11.1684 16.1361 11.167 16.1582C11.1445 16.1596 11.1177 16.1633 11.0859 16.1641C11.018 16.1658 10.9388 16.165 10.8389 16.165H8.33008C6.74106 16.165 5.59938 16.1644 4.73047 16.0479C3.87584 15.9332 3.36041 15.7149 2.97949 15.335C2.45287 14.8097 2.24185 14.0347 2.17676 12.4863C2.17099 12.3492 2.16819 12.2636 2.16895 12.2021C2.17929 12.1953 2.19072 12.1872 2.2041 12.1787C2.31216 12.1105 2.47078 12.022 2.70605 11.8906C3.36799 11.521 3.81824 10.813 3.81836 9.99902C3.81836 9.1849 3.36808 8.47615 2.70605 8.10645C2.47087 7.97509 2.31213 7.88651 2.2041 7.81836C2.19052 7.80979 2.17939 7.80087 2.16895 7.79395C2.16825 7.73259 2.17103 7.64702 2.17676 7.51074C2.24186 5.9625 2.45288 5.18741 2.97949 4.66211C3.3604 4.28232 3.87595 4.06382 4.73047 3.94922C5.59938 3.83272 6.74108 3.83203 8.33008 3.83203Z" stroke="white" stroke-opacity="0.5"/>
<path d="M13.8506 3.85254C15.6104 3.9035 16.4589 4.1 17.0244 4.66406C17.551 5.18937 17.7621 5.96446 17.8271 7.5127C17.8329 7.64893 17.8347 7.73455 17.834 7.7959C17.8235 7.80282 17.8124 7.81175 17.7988 7.82031L17.2979 8.1084C16.6359 8.47808 16.1855 9.18682 16.1855 10.001C16.1857 10.815 16.636 11.5229 17.2979 11.8926C17.5329 12.0238 17.6908 12.1126 17.7988 12.1807C17.8122 12.1891 17.8237 12.1973 17.834 12.2041C17.8347 12.2655 17.8329 12.3511 17.8271 12.4883C17.7621 14.0365 17.551 14.8116 17.0244 15.3369C16.4988 15.8613 15.7233 16.0722 14.1777 16.1377C14.0774 16.1419 13.9985 16.1454 13.9307 16.1465C13.9023 16.1469 13.8781 16.1449 13.8574 16.1445C13.8561 16.1226 13.8533 16.0968 13.8525 16.0664C13.8507 15.9972 13.8506 15.9165 13.8506 15.8145V14.167C13.8505 13.6066 13.5049 13.1281 13.0156 12.9307V12.0693C13.5048 11.8718 13.8506 11.3944 13.8506 10.834V9.16699C13.8505 8.60655 13.5049 8.12807 13.0156 7.93066V7.06934C13.5048 6.87177 13.8506 6.39438 13.8506 5.83398V3.85254Z" stroke="white" stroke-opacity="0.5"/>
</svg>
