<svg width="18" height="18" viewBox="0 0 18 18" fill="none" xmlns="http://www.w3.org/2000/svg">
<g clip-path="url(#clip0_1308_13972)">
<mask id="mask0_1308_13972" style="mask-type:luminance" maskUnits="userSpaceOnUse" x="0" y="0" width="18" height="18">
<path d="M18 0H0V18H18V0Z" fill="white"/>
</mask>
<g mask="url(#mask0_1308_13972)">
<path d="M12.33 2.32422C10.9725 2.32422 9.7575 2.98422 9 3.99672C8.2425 2.98422 7.0275 2.32422 5.67 2.32422C3.3675 2.32422 1.5 4.19922 1.5 6.51672C1.5 7.40922 1.6425 8.23421 1.89 8.99921C3.075 12.7492 6.7275 14.9917 8.535 15.6067C8.79 15.6967 9.21 15.6967 9.465 15.6067C11.2725 14.9917 14.925 12.7492 16.11 8.99921C16.3575 8.23421 16.5 7.40922 16.5 6.51672C16.5 4.19922 14.6325 2.32422 12.33 2.32422Z" fill="url(#paint0_linear_1308_13972)"/>
</g>
</g>
<defs>
<linearGradient id="paint0_linear_1308_13972" x1="4.76923" y1="3.35114" x2="12.8671" y2="17.7271" gradientUnits="userSpaceOnUse">
<stop stop-color="#2979FF"/>
<stop offset="0.471154" stop-color="#6B9CF0"/>
<stop offset="1" stop-color="#9DC1FF"/>
</linearGradient>
<clipPath id="clip0_1308_13972">
<rect width="18" height="18" fill="white"/>
</clipPath>
</defs>
</svg>
