<svg width="20" height="19" viewBox="0 0 20 19" fill="none" xmlns="http://www.w3.org/2000/svg">
<g opacity="0.5">
<path d="M8.33343 16.6244H11.6668C11.6668 17.0443 11.4912 17.447 11.1786 17.7439C10.866 18.0409 10.4421 18.2077 10.0001 18.2077C9.55807 18.2077 9.13415 18.0409 8.82159 17.7439C8.50902 17.447 8.33343 17.0443 8.33343 16.6244ZM2.56343 14.5526C2.50034 14.4079 2.48385 14.2486 2.51604 14.095C2.54823 13.9414 2.62765 13.8004 2.74426 13.6896L4.16676 12.3383V7.91602C4.16944 6.58483 4.67601 5.29896 5.59396 4.29318C6.51192 3.28741 7.78003 2.62883 9.16676 2.43768V1.58268C9.16676 1.37272 9.25456 1.17136 9.41084 1.02289C9.56712 0.874423 9.77908 0.791016 10.0001 0.791016C10.2211 0.791016 10.4331 0.874423 10.5894 1.02289C10.7456 1.17136 10.8334 1.37272 10.8334 1.58268V2.43768C12.2202 2.62883 13.4883 3.28741 14.4062 4.29318C15.3242 5.29896 15.8308 6.58483 15.8334 7.91602V12.3383L17.2559 13.6896C17.3724 13.8004 17.4518 13.9414 17.4839 14.0949C17.5161 14.2485 17.4996 14.4076 17.4365 14.5523C17.3734 14.6969 17.2667 14.8206 17.1296 14.9075C16.9926 14.9945 16.8316 15.041 16.6668 15.041H3.33343C3.16863 15.0411 3.00751 14.9947 2.87045 14.9077C2.73339 14.8208 2.62655 14.6972 2.56343 14.5526ZM5.3451 13.4577H14.6551L14.4109 13.2257C14.2546 13.0773 14.1668 12.876 14.1668 12.666V7.91602C14.1668 6.8662 13.7278 5.85938 12.9464 5.11705C12.165 4.37472 11.1052 3.95768 10.0001 3.95768C8.89503 3.95768 7.83522 4.37472 7.05382 5.11705C6.27242 5.85938 5.83343 6.8662 5.83343 7.91602V12.666C5.83338 12.876 5.74555 13.0773 5.58926 13.2257L5.3451 13.4577Z" fill="white"/>
</g>
</svg>
