<svg width="20" height="20" viewBox="0 0 20 20" fill="none" xmlns="http://www.w3.org/2000/svg">
<path d="M18.8535 10.3789C18.8535 13.2023 18.8527 14.6144 18.1064 15.5869C17.9145 15.837 17.6906 16.0609 17.4404 16.2529C16.4679 16.9992 15.0559 17 12.2324 17H8.62109C5.7975 17 4.38566 16.9992 3.41309 16.2529C3.16275 16.0608 2.93819 15.8372 2.74609 15.5869C1.99983 14.6144 2 13.2023 2 10.3789C2 9.94477 2.00119 9.54378 2.00391 9.17285H18.8496C18.8523 9.54377 18.8535 9.94477 18.8535 10.3789ZM12.2324 12.9189C12.2321 11.9516 10.0935 10.3832 9.39453 10.623C8.73705 10.8503 8.62111 12.0653 8.62109 12.9189C8.62109 13.7726 8.73185 14.9828 9.39453 15.2178C10.0936 15.4577 12.2324 13.8863 12.2324 12.9189ZM12.2324 3.75781C15.0559 3.75781 16.4679 3.75764 17.4404 4.50391C17.6908 4.696 17.9143 4.92056 18.1064 5.1709C18.6015 5.816 18.7652 6.65431 18.8213 7.96973H2.03125C2.08736 6.65444 2.2512 5.81598 2.74609 5.1709C2.93822 4.92051 3.1627 4.69603 3.41309 4.50391C4.38565 3.75778 5.7977 3.75781 8.62109 3.75781H12.2324ZM5.61035 4.96094C5.27809 4.96113 5.00879 5.2302 5.00879 5.5625V6.16406C5.00879 6.49636 5.27809 6.76641 5.61035 6.7666C5.94277 6.7666 6.21289 6.49648 6.21289 6.16406V5.5625C6.21289 5.23008 5.94277 4.96094 5.61035 4.96094ZM8.02051 4.96094C7.68809 4.96094 7.41797 5.23008 7.41797 5.5625V6.16406C7.41797 6.49648 7.68809 6.7666 8.02051 6.7666C8.35284 6.76651 8.62207 6.49642 8.62207 6.16406V5.5625C8.62207 5.23014 8.35284 4.96103 8.02051 4.96094ZM10.4258 4.96094C10.0934 4.96094 9.82422 5.23008 9.82422 5.5625V6.16406C9.82422 6.49648 10.0934 6.7666 10.4258 6.7666C10.7581 6.76653 11.0273 6.49644 11.0273 6.16406V5.5625C11.0273 5.23013 10.7581 4.96101 10.4258 4.96094ZM12.835 4.96094C12.5027 4.96111 12.2334 5.23019 12.2334 5.5625V6.16406C12.2334 6.49637 12.5027 6.76643 12.835 6.7666C13.1674 6.7666 13.4375 6.49648 13.4375 6.16406V5.5625C13.4375 5.23008 13.1674 4.96094 12.835 4.96094ZM15.2402 4.96094C14.908 4.96113 14.6387 5.2302 14.6387 5.5625V6.16406C14.6387 6.49636 14.908 6.7664 15.2402 6.7666C15.5727 6.7666 15.8428 6.49648 15.8428 6.16406V5.5625C15.8428 5.23008 15.5727 4.96094 15.2402 4.96094Z" fill="white" fill-opacity="0.5"/>
</svg>
