<svg width="18" height="18" viewBox="0 0 18 18" fill="none" xmlns="http://www.w3.org/2000/svg">
<path d="M15 9.375C15.0995 9.375 15.1948 9.33549 15.2652 9.26517C15.3355 9.19484 15.375 9.09946 15.375 9C15.375 8.90054 15.3355 8.80516 15.2652 8.73483C15.1948 8.66451 15.0995 8.625 15 8.625C14.9005 8.625 14.8052 8.66451 14.7348 8.73483C14.6645 8.80516 14.625 8.90054 14.625 9C14.625 9.09946 14.6645 9.19484 14.7348 9.26517C14.8052 9.33549 14.9005 9.375 15 9.375ZM9 9.375C9.09946 9.375 9.19484 9.33549 9.26517 9.26517C9.33549 9.19484 9.375 9.09946 9.375 9C9.375 8.90054 9.33549 8.80516 9.26517 8.73483C9.19484 8.66451 9.09946 8.625 9 8.625C8.90054 8.625 8.80516 8.66451 8.73483 8.73483C8.66451 8.80516 8.625 8.90054 8.625 9C8.625 9.09946 8.66451 9.19484 8.73483 9.26517C8.80516 9.33549 8.90054 9.375 9 9.375ZM3 9.375C3.09946 9.375 3.19484 9.33549 3.26516 9.26517C3.33549 9.19484 3.375 9.09946 3.375 9C3.375 8.90054 3.33549 8.80516 3.26516 8.73483C3.19484 8.66451 3.09946 8.625 3 8.625C2.90054 8.625 2.80516 8.66451 2.73484 8.73483C2.66451 8.80516 2.625 8.90054 2.625 9C2.625 9.09946 2.66451 9.19484 2.73484 9.26517C2.80516 9.33549 2.90054 9.375 3 9.375Z" fill="white" stroke="white" stroke-width="1.5" stroke-linecap="round" stroke-linejoin="round"/>
</svg>
