<svg width="38" height="38" viewBox="0 0 38 38" fill="none" xmlns="http://www.w3.org/2000/svg">
<g clip-path="url(#clip0_2087_35886)">
<mask id="mask0_2087_35886" style="mask-type:luminance" maskUnits="userSpaceOnUse" x="0" y="0" width="38" height="38">
<path d="M37.2414 0H0V37.2414H37.2414V0Z" fill="white"/>
</mask>
<g mask="url(#mask0_2087_35886)">
<path d="M22.558 2.91797C20.6494 2.91797 19.0977 4.46966 19.0977 6.37828V13.5783C19.0977 15.4869 20.6494 17.0387 22.558 17.0387C24.4666 17.0387 26.0183 15.4869 26.0183 13.5783V6.37828C26.0183 4.48518 24.4666 2.91797 22.558 2.91797Z" fill="white"/>
<path d="M31.3111 11.0312C29.6508 11.0312 28.3008 12.3813 28.3008 14.0416V16.4778C28.3008 16.8037 28.5646 17.0675 28.8904 17.0675H31.3266C32.987 17.0675 34.337 15.7175 34.337 14.0571C34.337 12.3968 32.9715 11.0312 31.3111 11.0312Z" fill="white"/>
<path d="M13.1877 10.8477H5.98769C4.07907 10.8477 2.52734 12.3994 2.52734 14.308C2.52734 16.2166 4.07907 17.7685 5.98769 17.7685H13.1877C15.0963 17.7685 16.6481 16.2166 16.6481 14.308C16.6481 12.3994 15.0963 10.8477 13.1877 10.8477Z" fill="white"/>
<path d="M13.6353 2.51172C11.975 2.51172 10.625 3.86172 10.625 5.52206C10.625 7.18241 11.975 8.53242 13.6353 8.53242H16.0716C16.3974 8.53242 16.6612 8.26862 16.6612 7.94275V5.50653C16.6457 3.87722 15.2957 2.51172 13.6353 2.51172Z" fill="white"/>
<path d="M14.6322 20.2188C12.7236 20.2188 11.1719 21.7705 11.1719 23.6791V30.8791C11.1719 32.7877 12.7236 34.3394 14.6322 34.3394C16.5408 34.3394 18.0926 32.7877 18.0926 30.8791V23.6791C18.0926 21.7705 16.5408 20.2188 14.6322 20.2188Z" fill="white"/>
<path d="M8.31372 20.2188H5.8775C4.21716 20.2188 2.86719 21.5688 2.86719 23.2291C2.86719 24.8894 4.21716 26.2394 5.8775 26.2394C7.53786 26.2394 8.88786 24.8894 8.88786 23.2291V20.7929C8.88786 20.4825 8.62407 20.2188 8.31372 20.2188Z" fill="white"/>
<path d="M31.2033 19.5059H24.0033C22.0947 19.5059 20.543 21.0576 20.543 22.9662C20.543 24.8748 22.0947 26.4265 24.0033 26.4265H31.2033C33.1119 26.4265 34.6637 24.8748 34.6637 22.9662C34.6637 21.0576 33.1119 19.5059 31.2033 19.5059Z" fill="white"/>
<path d="M23.5571 28.6621H21.1209C20.795 28.6621 20.5312 28.9259 20.5312 29.2518V31.688C20.5312 33.3483 21.8813 34.6983 23.5416 34.6983C25.2019 34.6983 26.5519 33.3483 26.5519 31.688C26.5675 30.0121 25.2175 28.6621 23.5571 28.6621Z" fill="white"/>
</g>
</g>
<defs>
<clipPath id="clip0_2087_35886">
<rect width="37.2414" height="37.2414" fill="white"/>
</clipPath>
</defs>
</svg>
