<svg width="21" height="17" viewBox="0 0 21 17" fill="none" xmlns="http://www.w3.org/2000/svg">
<path d="M21 6.375V13.8125C21 14.6579 20.6681 15.4686 20.0774 16.0664C19.4866 16.6642 18.6854 17 17.85 17H3.15C2.31457 17 1.51335 16.6642 0.922614 16.0664C0.331874 15.4686 0 14.6579 0 13.8125V6.375H21ZM16.8 10.625H13.65C13.3715 10.625 13.1045 10.7369 12.9075 10.9362C12.7106 11.1355 12.6 11.4057 12.6 11.6875C12.6 11.9693 12.7106 12.2395 12.9075 12.4388C13.1045 12.6381 13.3715 12.75 13.65 12.75H16.8C17.0785 12.75 17.3455 12.6381 17.5425 12.4388C17.7394 12.2395 17.85 11.9693 17.85 11.6875C17.85 11.4057 17.7394 11.1355 17.5425 10.9362C17.3455 10.7369 17.0785 10.625 16.8 10.625ZM17.85 0C18.6854 0 19.4866 0.335825 20.0774 0.933597C20.6681 1.53137 21 2.34212 21 3.1875V4.25H0V3.1875C0 2.34212 0.331874 1.53137 0.922614 0.933597C1.51335 0.335825 2.31457 0 3.15 0H17.85Z" fill="white"/>
</svg>
