<svg width="25" height="25" viewBox="0 0 25 25" fill="none" xmlns="http://www.w3.org/2000/svg">
<path d="M9.05957 10.2064C8.75541 10.2064 8.46372 10.3272 8.24865 10.5423C8.03358 10.7573 7.91275 11.049 7.91275 11.3532V15.9404H10.2064V12.5H13.6468V15.367L17.6607 11.3532L13.6468 7.33935V10.2064H9.05957ZM13.3108 0.335771L24.6642 11.6892C24.8792 11.9043 25 12.1959 25 12.5C25 12.8041 24.8792 13.0957 24.6642 13.3108L13.3108 24.6642C13.0957 24.8792 12.8041 25 12.5 25C12.1959 25 11.9043 24.8792 11.6892 24.6642L0.335771 13.3108C0.120777 13.0957 0 12.8041 0 12.5C0 12.1959 0.120777 11.9043 0.335771 11.6892L11.6892 0.335771C11.9043 0.120777 12.1959 0 12.5 0C12.8041 0 13.0957 0.120777 13.3108 0.335771Z" fill="#E6E6E6"/>
</svg>
