<svg width="20" height="20" viewBox="0 0 20 20" fill="none" xmlns="http://www.w3.org/2000/svg">
<path d="M9.61703 1.60303C5.19249 1.60303 1.60156 5.19396 1.60156 9.61849C1.60156 14.043 5.19249 17.634 9.61703 17.634C14.0416 17.634 17.6325 14.043 17.6325 9.61849C17.6325 5.19396 14.0416 1.60303 9.61703 1.60303ZM8.81548 15.9748C5.64937 15.582 3.20466 12.8888 3.20466 9.61849C3.20466 9.12153 3.26878 8.64862 3.37298 8.18372L7.21239 12.0231V12.8247C7.21239 13.7064 7.93378 14.4278 8.81548 14.4278V15.9748ZM14.3461 13.9388C14.1377 13.2896 13.5446 12.8247 12.8232 12.8247H12.0217V10.42C12.0217 9.97919 11.661 9.61849 11.2201 9.61849H6.41084V8.0154H8.01393C8.45478 8.0154 8.81548 7.6547 8.81548 7.21385V5.61076H10.4186C11.3003 5.61076 12.0217 4.88937 12.0217 4.00767V3.67903C14.3702 4.63287 16.0294 6.93331 16.0294 9.61849C16.0294 11.2857 15.3882 12.8006 14.3461 13.9388Z" fill="white"/>
</svg>
