<svg width="32" height="22" viewBox="0 0 32 22" fill="none" xmlns="http://www.w3.org/2000/svg">
<path d="M22.1578 18.8605V21.7621H0V18.8605C0 18.8605 0 13.0573 11.0789 13.0573C22.1578 13.0573 22.1578 18.8605 22.1578 18.8605ZM16.6183 5.07786C16.6183 4.07356 16.2934 3.09182 15.6848 2.25678C15.0761 1.42174 14.2109 0.770905 13.1987 0.386579C12.1865 0.00225149 11.0727 -0.098306 9.99818 0.0976222C8.92364 0.29355 7.93661 0.777165 7.1619 1.48731C6.3872 2.19745 5.85962 3.10223 5.64588 4.08723C5.43214 5.07223 5.54184 6.0932 5.9611 7.02105C6.38037 7.9489 7.09037 8.74194 8.00133 9.2999C8.91228 9.85785 9.98328 10.1557 11.0789 10.1557C12.548 10.1557 13.957 9.62068 14.9958 8.66841C16.0347 7.71614 16.6183 6.42458 16.6183 5.07786ZM22.0628 13.0573C23.0357 13.7475 23.8319 14.6248 24.3952 15.6274C24.9585 16.63 25.2752 17.7336 25.3231 18.8605V21.7621H31.6539V18.8605C31.6539 18.8605 31.6539 13.5941 22.0628 13.0573ZM20.5751 5.33844e-05C19.4858 -0.00459083 18.4207 0.293886 17.5205 0.856026C18.4818 2.08737 18.9988 3.56364 18.9988 5.07786C18.9988 6.59208 18.4818 8.06834 17.5205 9.29969C18.4207 9.86183 19.4858 10.1603 20.5751 10.1557C22.0442 10.1557 23.4532 9.62068 24.492 8.66841C25.5309 7.71614 26.1145 6.42458 26.1145 5.07786C26.1145 3.73114 25.5309 2.43958 24.492 1.48731C23.4532 0.535035 22.0442 5.33844e-05 20.5751 5.33844e-05Z" fill="#8D8D8D"/>
</svg>
