<svg width="18" height="18" viewBox="0 0 18 18" fill="none" xmlns="http://www.w3.org/2000/svg">
<path fill-rule="evenodd" clip-rule="evenodd" d="M16.5 5.99999V15H14.2486L14.25 17.25L10.5 15H7.50001V5.99999H16.5ZM10.5 3V5.25H6.74999V12.45L3.75 14.25L3.75141 12H1.5V3H10.5ZM12.4406 8.24999H11.5641L9.89999 12.75H10.6908L11.1512 11.4607H12.8407L13.3044 12.75H14.1428L12.4406 8.24999ZM11.996 9.00265C12.0639 9.23057 12.1366 9.45708 12.2138 9.68204L12.2468 9.77753L12.6248 10.8446H11.364L11.7419 9.77753C11.8478 9.48324 11.9325 9.22495 11.996 9.00265ZM5.61437 4.21426H4.86438V4.58924H2.98932V5.33926L5.78889 5.3393C5.74389 5.97802 5.58185 6.55335 5.30296 7.06877C5.00016 6.65228 4.79154 6.18677 4.67588 5.66934L4.66849 5.63552L3.9352 5.79302L3.99022 6.02196C4.15722 6.64876 4.44529 7.21355 4.85313 7.71312C4.4108 8.19043 3.77693 8.52523 2.93986 8.71602L2.90797 8.72319L3.07068 9.45532L3.29455 9.40146C4.16822 9.17449 4.86547 8.79129 5.37738 8.25066C5.73612 8.56007 6.1807 8.85257 6.711 9.12967L6.74995 9.14988V8.29583C6.38707 8.08683 6.08111 7.87192 5.83195 7.65198C6.2455 6.97993 6.48073 6.2201 6.538 5.37765L6.54046 5.33933L6.74992 5.33926V4.58924H5.6143L5.61437 4.21426Z" fill="white"/>
</svg>
