<svg width="18" height="23" viewBox="0 0 18 23" fill="none" xmlns="http://www.w3.org/2000/svg">
<path d="M4.83594 16.5408C5.55238 17.3599 6.20448 18.2226 6.78752 19.1228C7.28529 19.9694 7.49279 20.5435 7.85657 21.5636C8.07967 22.1272 8.2813 22.2954 8.7148 22.2954C9.18719 22.2954 9.40151 22.0093 9.5671 21.5667C9.91096 20.6033 10.1808 19.8681 10.6064 19.1734C11.4417 17.8322 12.4797 16.6404 13.4995 15.495C13.7756 15.1708 15.5606 13.2822 16.3643 11.792C16.3643 11.792 17.352 10.155 17.352 7.86878C17.352 5.73025 16.3779 4.24707 16.3779 4.24707L13.5735 4.92075L11.8704 8.94439L11.449 9.49922L11.3648 9.59973L11.2527 9.72556L11.056 9.92652L10.7749 10.1786L9.25834 11.2869L5.46669 13.2507L4.83594 16.5408Z" fill="#34A853"/>
<path d="M0.847656 11.4363C1.77306 13.3323 3.55757 14.999 4.76493 16.4616L11.1778 9.64765C11.1778 9.64765 10.2743 10.7075 8.6355 10.7075C6.81001 10.7075 5.33527 9.39994 5.33527 7.75115C5.33527 6.62049 6.0936 5.84375 6.0936 5.84375L1.74039 6.89006L0.847656 11.4363Z" fill="#FBBC04"/>
<path d="M11.2511 0.350586C13.3809 0.966566 15.2039 2.25974 16.3066 4.16666L11.1814 9.64514C11.1814 9.64514 11.9397 8.85435 11.9397 7.73072C11.9397 6.04354 10.3559 4.78312 8.64489 4.78312C7.0269 4.78312 6.09766 5.84124 6.09766 5.84124V2.38987L11.2511 0.350586Z" fill="#4285F4"/>
<path d="M2.02344 2.77109C3.29553 1.40586 5.53394 0 8.61991 0C10.1171 0 11.2451 0.352585 11.2451 0.352585L6.09219 5.84409H2.44128L2.02344 2.77109Z" fill="#1A73E8"/>
<path d="M0.85135 11.4389C0.85135 11.4389 0 9.94339 0 7.7769C0 5.72926 0.887396 3.93939 2.02611 2.77246L6.09776 5.84594L0.85135 11.4389Z" fill="#EA4335"/>
</svg>
