<svg width="21" height="21" viewBox="0 0 21 21" fill="none" xmlns="http://www.w3.org/2000/svg">
<path d="M15.538 17.0363H15.7759C16.6128 17.0363 17.4153 16.7039 18.007 16.1121C18.5987 15.5204 18.9312 14.7179 18.9312 13.8811V9.77927C18.9312 9.36086 18.7649 8.95959 18.4691 8.66373C18.1732 8.36787 17.772 8.20166 17.3535 8.20166H13.9604C13.542 8.20166 13.1407 8.36787 12.8449 8.66373C12.549 8.95959 12.3828 9.36086 12.3828 9.77927V13.8811C12.3828 14.7179 12.7152 15.5204 13.307 16.1121C13.8987 16.7039 14.7012 17.0363 15.538 17.0363Z" fill="url(#paint0_linear_2622_54523)"/>
<path d="M15.538 17.0363H15.7759C16.6128 17.0363 17.4153 16.7039 18.007 16.1121C18.5987 15.5204 18.9312 14.7179 18.9312 13.8811V9.77927C18.9312 9.36086 18.7649 8.95959 18.4691 8.66373C18.1732 8.36787 17.772 8.20166 17.3535 8.20166H13.9604C13.542 8.20166 13.1407 8.36787 12.8449 8.66373C12.549 8.95959 12.3828 9.36086 12.3828 9.77927V13.8811C12.3828 14.7179 12.7152 15.5204 13.307 16.1121C13.8987 16.7039 14.7012 17.0363 15.538 17.0363Z" fill="url(#paint1_radial_2622_54523)" fill-opacity="0.5"/>
<path d="M4.41694 17.0382H4.65484C5.49166 17.0382 6.29421 16.7058 6.88592 16.1141C7.47764 15.5224 7.81007 14.7198 7.81007 13.883V9.78122C7.81007 9.57405 7.76926 9.3689 7.68998 9.1775C7.6107 8.98609 7.49449 8.81218 7.348 8.66568C7.2015 8.51919 7.02759 8.40298 6.83618 8.3237C6.64478 8.24442 6.43963 8.20361 6.23246 8.20361H2.83933C2.42092 8.20361 2.01965 8.36983 1.72379 8.66568C1.42793 8.96154 1.26172 9.36282 1.26172 9.78122V13.883C1.26172 14.7198 1.59414 15.5224 2.18586 16.1141C2.77758 16.7058 3.58012 17.0382 4.41694 17.0382Z" fill="url(#paint2_linear_2622_54523)"/>
<path d="M4.41694 17.0382H4.65484C5.49166 17.0382 6.29421 16.7058 6.88592 16.1141C7.47764 15.5224 7.81007 14.7198 7.81007 13.883V9.78122C7.81007 9.57405 7.76926 9.3689 7.68998 9.1775C7.6107 8.98609 7.49449 8.81218 7.348 8.66568C7.2015 8.51919 7.02759 8.40298 6.83618 8.3237C6.64478 8.24442 6.43963 8.20361 6.23246 8.20361H2.83933C2.42092 8.20361 2.01965 8.36983 1.72379 8.66568C1.42793 8.96154 1.26172 9.36282 1.26172 9.78122V13.883C1.26172 14.7198 1.59414 15.5224 2.18586 16.1141C2.77758 16.7058 3.58012 17.0382 4.41694 17.0382Z" fill="url(#paint3_radial_2622_54523)" fill-opacity="0.5"/>
<path d="M7.8862 8.20361C7.4678 8.20361 7.06652 8.36983 6.77067 8.66568C6.47481 8.96154 6.30859 9.36282 6.30859 9.78122V14.5141C6.30859 15.5182 6.7075 16.4813 7.41757 17.1914C8.12763 17.9014 9.09068 18.3003 10.0949 18.3003C11.099 18.3003 12.0621 17.9014 12.7722 17.1914C13.4822 16.4813 13.8811 15.5182 13.8811 14.5141V9.78122C13.8811 9.36282 13.7149 8.96154 13.4191 8.66568C13.1232 8.36983 12.7219 8.20361 12.3035 8.20361H7.8862Z" fill="url(#paint4_linear_2622_54523)"/>
<path d="M7.8862 8.20361C7.4678 8.20361 7.06652 8.36983 6.77067 8.66568C6.47481 8.96154 6.30859 9.36282 6.30859 9.78122V14.5141C6.30859 15.5182 6.7075 16.4813 7.41757 17.1914C8.12763 17.9014 9.09068 18.3003 10.0949 18.3003C11.099 18.3003 12.0621 17.9014 12.7722 17.1914C13.4822 16.4813 13.8811 15.5182 13.8811 14.5141V9.78122C13.8811 9.36282 13.7149 8.96154 13.4191 8.66568C13.1232 8.36983 12.7219 8.20361 12.3035 8.20361H7.8862Z" fill="url(#paint5_linear_2622_54523)"/>
<path d="M18.2962 4.73258C18.2962 5.02263 18.2391 5.30983 18.1281 5.5778C18.0171 5.84576 17.8544 6.08924 17.6493 6.29434C17.4442 6.49943 17.2007 6.66212 16.9328 6.77311C16.6648 6.88411 16.3776 6.94124 16.0876 6.94124C15.7975 6.94124 15.5103 6.88411 15.2423 6.77311C14.9744 6.66212 14.7309 6.49943 14.5258 6.29434C14.3207 6.08924 14.158 5.84576 14.047 5.5778C13.936 5.30983 13.8789 5.02263 13.8789 4.73258C13.8789 4.14681 14.1116 3.58503 14.5258 3.17083C14.94 2.75662 15.5018 2.52393 16.0876 2.52393C16.6733 2.52393 17.2351 2.75662 17.6493 3.17083C18.0635 3.58503 18.2962 4.14681 18.2962 4.73258Z" fill="url(#paint6_linear_2622_54523)"/>
<path d="M6.30403 4.73258C6.30403 5.02263 6.2469 5.30983 6.13591 5.5778C6.02491 5.84576 5.86222 6.08924 5.65713 6.29434C5.45204 6.49943 5.20856 6.66212 4.94059 6.77311C4.67262 6.88411 4.38542 6.94124 4.09537 6.94124C3.80533 6.94124 3.51812 6.88411 3.25016 6.77311C2.98219 6.66212 2.73871 6.49943 2.53362 6.29434C2.32853 6.08924 2.16584 5.84576 2.05484 5.5778C1.94385 5.30983 1.88672 5.02263 1.88672 4.73258C1.88672 4.14681 2.11942 3.58503 2.53362 3.17083C2.94782 2.75662 3.5096 2.52393 4.09537 2.52393C4.68115 2.52393 5.24293 2.75662 5.65713 3.17083C6.07133 3.58503 6.30403 4.14681 6.30403 4.73258Z" fill="url(#paint7_linear_2622_54523)"/>
<path d="M10.0906 6.94142C10.76 6.94142 11.4021 6.67548 11.8754 6.20211C12.3488 5.72873 12.6148 5.0867 12.6148 4.41724C12.6148 3.74779 12.3488 3.10576 11.8754 2.63238C11.4021 2.15901 10.76 1.89307 10.0906 1.89307C9.42113 1.89307 8.7791 2.15901 8.30572 2.63238C7.83235 3.10576 7.56641 3.74779 7.56641 4.41724C7.56641 5.0867 7.83235 5.72873 8.30572 6.20211C8.7791 6.67548 9.42113 6.94142 10.0906 6.94142Z" fill="url(#paint8_linear_2622_54523)"/>
<defs>
<linearGradient id="paint0_linear_2622_54523" x1="13.9402" y1="9.37603" x2="18.8744" y2="15.2157" gradientUnits="userSpaceOnUse">
<stop offset="0.125" stop-color="#7A41DC"/>
<stop offset="1" stop-color="#5B2AB5"/>
</linearGradient>
<radialGradient id="paint1_radial_2622_54523" cx="0" cy="0" r="1" gradientUnits="userSpaceOnUse" gradientTransform="translate(11.3536 12.412) scale(5.26973 12.061)">
<stop offset="0.433" stop-color="#3B148A"/>
<stop offset="1" stop-color="#3B148A" stop-opacity="0"/>
</radialGradient>
<linearGradient id="paint2_linear_2622_54523" x1="2.81914" y1="9.37799" x2="7.75327" y2="15.2183" gradientUnits="userSpaceOnUse">
<stop offset="0.125" stop-color="#9C6CFE"/>
<stop offset="1" stop-color="#7A41DC"/>
</linearGradient>
<radialGradient id="paint3_radial_2622_54523" cx="0" cy="0" r="1" gradientUnits="userSpaceOnUse" gradientTransform="translate(9.93164 12.4139) rotate(180) scale(5.83183 13.3475)">
<stop offset="0.433" stop-color="#3B148A"/>
<stop offset="1" stop-color="#3B148A" stop-opacity="0"/>
</radialGradient>
<linearGradient id="paint4_linear_2622_54523" x1="8.10959" y1="9.54584" x2="13.7372" y2="16.2854" gradientUnits="userSpaceOnUse">
<stop offset="0.125" stop-color="#BD96FF"/>
<stop offset="1" stop-color="#9C6CFE"/>
</linearGradient>
<linearGradient id="paint5_linear_2622_54523" x1="10.0949" y1="7.00147" x2="18.7433" y2="19.1207" gradientUnits="userSpaceOnUse">
<stop stop-color="#885EDB" stop-opacity="0"/>
<stop offset="1" stop-color="#E362F8"/>
</linearGradient>
<linearGradient id="paint6_linear_2622_54523" x1="14.9296" y1="3.11143" x2="17.1805" y2="6.70586" gradientUnits="userSpaceOnUse">
<stop offset="0.125" stop-color="#7A41DC"/>
<stop offset="1" stop-color="#5B2AB5"/>
</linearGradient>
<linearGradient id="paint7_linear_2622_54523" x1="2.93741" y1="3.11143" x2="5.18834" y2="6.70586" gradientUnits="userSpaceOnUse">
<stop offset="0.125" stop-color="#9C6CFE"/>
<stop offset="1" stop-color="#7A41DC"/>
</linearGradient>
<linearGradient id="paint8_linear_2622_54523" x1="8.76665" y1="2.56387" x2="11.3401" y2="6.6726" gradientUnits="userSpaceOnUse">
<stop offset="0.125" stop-color="#BD96FF"/>
<stop offset="1" stop-color="#9C6CFE"/>
</linearGradient>
</defs>
</svg>
