<svg width="19" height="19" viewBox="0 0 19 19" fill="none" xmlns="http://www.w3.org/2000/svg">
<path d="M14.9892 17.108L12.9832 15.1399H4.92126C3.76054 15.1399 2.77645 14.7361 1.969 13.9287C1.16154 13.1212 0.757812 12.1371 0.757812 10.9764C0.757812 10.0075 1.05809 9.14449 1.65863 8.3875C2.25918 7.62547 3.0313 7.13847 3.97502 6.92651C4.01539 6.82558 4.05324 6.72717 4.08857 6.63129C4.13903 6.5354 4.17688 6.43195 4.20212 6.32092L1.06061 3.17941L2.12039 2.11963L16.049 16.0482M4.92126 13.6259H11.4692L5.37545 7.5321C5.35022 7.67341 5.33255 7.81219 5.32246 7.94845C5.30732 8.06452 5.29975 8.19069 5.29975 8.32694H4.92126C4.1895 8.32694 3.56624 8.58684 3.05149 9.10664C2.53169 9.6214 2.27179 10.2447 2.27179 10.9764C2.27179 11.7082 2.53169 12.339 3.05149 12.8689C3.56624 13.3735 4.1895 13.6259 4.92126 13.6259ZM16.3518 14.1936L15.2542 13.1338C15.4712 12.9572 15.6327 12.7528 15.7386 12.5207C15.8446 12.2885 15.8976 12.0261 15.8976 11.7334C15.8976 11.2035 15.7134 10.7569 15.345 10.3935C14.9816 10.0251 14.535 9.84092 14.0051 9.84092H12.8696V8.32694C12.8696 7.2823 12.5012 6.38905 11.7644 5.6472C11.0276 4.9104 10.1344 4.542 9.0847 4.542C8.74658 4.542 8.41855 4.58237 8.10061 4.66311C7.78268 4.74891 7.47988 4.88012 7.19222 5.05675L6.09459 3.95911C6.53869 3.65632 7.00802 3.42417 7.50259 3.26268C8.0022 3.10624 8.52957 3.02802 9.0847 3.02802C10.5634 3.02802 11.8149 3.54277 12.8394 4.57228C13.8689 5.59674 14.3836 6.84829 14.3836 8.32694C15.2567 8.42788 15.9784 8.80637 16.5486 9.46243C17.1239 10.1084 17.4116 10.8654 17.4116 11.7334C17.4116 12.2381 17.3182 12.6948 17.1315 13.1035C16.9397 13.5275 16.6798 13.8908 16.3518 14.1936Z" fill="white"/>
</svg>
