<svg width="36" height="21" viewBox="0 0 36 21" fill="none" xmlns="http://www.w3.org/2000/svg">
<path fill-rule="evenodd" clip-rule="evenodd" d="M17.925 3.00002C12.0141 2.99164 6.33224 5.28516 2.0835 9.39452L0 7.23452C4.80824 2.58589 11.237 -0.00876102 17.925 2.22267e-05C24.613 -0.00876102 31.0418 2.58589 35.85 7.23452L33.7665 9.39452C29.5178 5.28516 23.8359 2.99164 17.925 3.00002Z" fill="white"/>
<path fill-rule="evenodd" clip-rule="evenodd" d="M17.925 10.539C13.9811 10.5335 10.189 12.0585 7.34703 14.793L5.26953 12.627C8.67065 9.35741 13.2072 7.53409 17.925 7.54054C22.6433 7.53489 27.1799 9.35931 30.5805 12.63L28.503 14.7945C25.6613 12.0595 21.8691 10.5339 17.925 10.539ZM17.955 18.033C15.9363 18.0298 13.9958 18.8138 12.546 20.2185L10.461 18.06C12.4705 16.1151 15.1585 15.0294 17.955 15.033C20.8305 15.033 23.445 16.161 25.3785 17.9925L23.3145 20.1705C21.8695 18.7952 19.95 18.0297 17.955 18.033Z" fill="white"/>
</svg>
