<svg width="18" height="15" viewBox="0 0 18 15" fill="none" xmlns="http://www.w3.org/2000/svg">
<path fill-rule="evenodd" clip-rule="evenodd" d="M13.75 5.625C14.2473 5.625 14.7242 5.42746 15.0758 5.07583C15.4275 4.7242 15.625 4.24728 15.625 3.75C15.625 3.25272 15.4275 2.77581 15.0758 2.42418C14.7242 2.07255 14.2473 1.875 13.75 1.875C13.2527 1.875 12.7758 2.07255 12.4242 2.42418C12.0725 2.77581 11.875 3.25272 11.875 3.75C11.875 4.24728 12.0725 4.7242 12.4242 5.07583C12.7758 5.42746 13.2527 5.625 13.75 5.625ZM13.75 7.5C14.4514 7.49994 15.1387 7.30319 15.7338 6.9321C16.3289 6.56101 16.8081 6.03045 17.1168 5.40069C17.4256 4.77093 17.5515 4.06721 17.4803 3.36947C17.4091 2.67173 17.1437 2.00793 16.7142 1.45347C16.2847 0.899018 15.7083 0.476128 15.0505 0.232839C14.3927 -0.0104488 13.6798 -0.0643833 12.9929 0.0771622C12.3059 0.218708 11.6725 0.55006 11.1644 1.03358C10.6564 1.5171 10.2941 2.13341 10.1188 2.8125H0.9375C0.68886 2.8125 0.450403 2.91127 0.274588 3.08709C0.0987723 3.2629 2.16136e-07 3.50136 2.16136e-07 3.75C2.16136e-07 3.99864 0.0987723 4.2371 0.274588 4.41291C0.450403 4.58873 0.68886 4.6875 0.9375 4.6875H10.1188C10.3266 5.49252 10.7961 6.20563 11.4534 6.71474C12.1107 7.22384 12.9186 7.50007 13.75 7.5ZM5.625 11.25C5.625 11.7473 5.42746 12.2242 5.07583 12.5758C4.72419 12.9275 4.24728 13.125 3.75 13.125C3.25272 13.125 2.77581 12.9275 2.42418 12.5758C2.07254 12.2242 1.875 11.7473 1.875 11.25C1.875 10.7527 2.07254 10.2758 2.42418 9.92418C2.77581 9.57254 3.25272 9.375 3.75 9.375C4.24728 9.375 4.72419 9.57254 5.07583 9.92418C5.42746 10.2758 5.625 10.7527 5.625 11.25ZM7.38125 12.1875C7.15137 13.0696 6.60815 13.8378 5.85312 14.3486C5.09808 14.8594 4.18289 15.0777 3.27859 14.9629C2.37428 14.848 1.54274 14.4078 0.939364 13.7245C0.335987 13.0412 0.00206456 12.1616 2.16136e-07 11.25C-0.000309586 10.3371 0.332434 9.45535 0.935831 8.77023C1.53923 8.08511 2.37183 7.64364 3.2775 7.52861C4.18318 7.41358 5.09971 7.63289 5.85522 8.14541C6.61073 8.65794 7.15332 9.42846 7.38125 10.3125H16.5625C16.8111 10.3125 17.0496 10.4113 17.2254 10.5871C17.4012 10.7629 17.5 11.0014 17.5 11.25C17.5 11.4986 17.4012 11.7371 17.2254 11.9129C17.0496 12.0887 16.8111 12.1875 16.5625 12.1875H7.38125Z" fill="white"/>
</svg>
