<svg width="15" height="12" viewBox="0 0 15 12" fill="none" xmlns="http://www.w3.org/2000/svg">
<path d="M11.3176 9.85577L9.88404 11.2893C9.74571 11.4277 9.56966 11.4968 9.35588 11.4968C9.14211 11.4968 8.96605 11.4277 8.82773 11.2893C8.6894 11.151 8.62024 10.975 8.62024 10.7612C8.62024 10.5474 8.6894 10.3714 8.82773 10.233L10.2613 8.79946L8.82773 7.3659C8.6894 7.22757 8.62024 7.05152 8.62024 6.83775C8.62024 6.62397 8.6894 6.44792 8.82773 6.30959C8.96605 6.17127 9.14211 6.1021 9.35588 6.1021C9.56966 6.1021 9.74571 6.17127 9.88404 6.30959L11.3176 7.74315L12.7512 6.30959C12.8895 6.17127 13.0655 6.1021 13.2793 6.1021C13.4931 6.1021 13.6691 6.17127 13.8075 6.30959C13.9458 6.44792 14.015 6.62397 14.015 6.83775C14.015 7.05152 13.9458 7.22757 13.8075 7.3659L12.3739 8.79946L13.8075 10.233C13.9458 10.3714 14.015 10.5474 14.015 10.7612C14.015 10.975 13.9458 11.151 13.8075 11.2893C13.6691 11.4277 13.4931 11.4968 13.2793 11.4968C13.0655 11.4968 12.8895 11.4277 12.7512 11.2893L11.3176 9.85577ZM10.8272 2.89545L13.5057 0.216951C13.6566 0.0660496 13.8326 -0.00613167 14.0338 0.000407385C14.235 0.00694644 14.4111 0.0854153 14.562 0.235814C14.7003 0.386715 14.7695 0.562766 14.7695 0.763968C14.7695 0.96517 14.7003 1.14122 14.562 1.29212L11.3742 4.49878C11.2233 4.64968 11.0472 4.72513 10.846 4.72513C10.6448 4.72513 10.4688 4.64968 10.3179 4.49878L8.69569 2.87659C8.55736 2.73826 8.4882 2.56221 8.4882 2.34843C8.4882 2.13465 8.55736 1.9586 8.69569 1.82028C8.83402 1.68195 9.01007 1.61279 9.22385 1.61279C9.43762 1.61279 9.61367 1.68195 9.752 1.82028L10.8272 2.89545ZM0.754509 8.04496H6.03606C6.24983 8.04496 6.42915 8.11739 6.57402 8.26225C6.71888 8.40712 6.79106 8.58619 6.79056 8.79946C6.79006 9.01274 6.71763 9.19206 6.57326 9.33743C6.4289 9.48279 6.24983 9.55498 6.03606 9.55397H0.754509C0.540732 9.55397 0.361663 9.48154 0.217301 9.33667C0.0729383 9.19181 0.000505606 9.01274 2.60174e-06 8.79946C-0.000500403 8.58619 0.0719323 8.40712 0.217301 8.26225C0.362669 8.11739 0.541738 8.04496 0.754509 8.04496ZM0.754509 2.0089H6.03606C6.24983 2.0089 6.42915 2.08134 6.57402 2.2262C6.71888 2.37107 6.79106 2.55014 6.79056 2.76341C6.79006 2.97668 6.71763 3.15601 6.57326 3.30137C6.4289 3.44674 6.24983 3.51892 6.03606 3.51792H0.754509C0.540732 3.51792 0.361663 3.44548 0.217301 3.30062C0.0729383 3.15575 0.000505606 2.97668 2.60174e-06 2.76341C-0.000500403 2.55014 0.0719323 2.37107 0.217301 2.2262C0.362669 2.08134 0.541738 2.0089 0.754509 2.0089Z" fill="white"/>
</svg>
