<svg width="16" height="20" viewBox="0 0 16 20" fill="none" xmlns="http://www.w3.org/2000/svg">
<path d="M0.75 4.02915C0.75 2.88145 0.75 2.3076 1.00433 1.86901C1.22803 1.4834 1.58497 1.16988 2.024 0.973392C2.52333 0.75 3.17667 0.75 4.48333 0.75H11.0167C12.3233 0.75 12.9767 0.75 13.476 0.973392C13.915 1.16988 14.272 1.4834 14.4957 1.86901C14.75 2.3076 14.75 2.88145 14.75 4.02915V17.6632C14.75 18.1613 14.75 18.4103 14.6322 18.5466C14.5813 18.6058 14.5163 18.6547 14.4417 18.6897C14.3672 18.7248 14.2849 18.7451 14.2005 18.7495C14.0057 18.7597 13.77 18.6214 13.2987 18.3457L7.75 15.0963L2.20133 18.3447C1.73 18.6214 1.49433 18.7597 1.29833 18.7495C1.21414 18.745 1.13206 18.7245 1.05773 18.6895C0.983413 18.6545 0.918624 18.6057 0.867833 18.5466C0.75 18.4103 0.75 18.1613 0.75 17.6632V4.02915Z" fill="#E6E6E6" stroke="#E6E6E6" stroke-width="1.5" stroke-linecap="round" stroke-linejoin="round"/>
</svg>
