<svg width="25" height="25" viewBox="0 0 25 25" fill="none" xmlns="http://www.w3.org/2000/svg">
<path d="M19.4799 9.22728V7.1768C19.4799 5.48515 18.0958 4.10107 16.4042 4.10107H8.20223C6.51058 4.10107 5.1265 5.48515 5.1265 7.1768V9.22728C3.43486 9.22728 2.05078 10.6114 2.05078 12.303V17.4292C2.05078 19.1209 3.43486 20.5049 5.1265 20.5049V22.5554H7.17699V20.5049H17.4294V22.5554H19.4799V20.5049C21.1715 20.5049 22.5556 19.1209 22.5556 17.4292V12.303C22.5556 10.6114 21.1715 9.22728 19.4799 9.22728ZM7.17699 7.1768C7.17699 6.61292 7.63835 6.15156 8.20223 6.15156H16.4042C16.968 6.15156 17.4294 6.61292 17.4294 7.1768V10.027C16.804 10.5909 16.4042 11.4008 16.4042 12.303V14.3535H8.20223V12.303C8.20223 11.4008 7.80238 10.5909 7.17699 10.027V7.1768ZM20.5051 17.4292C20.5051 17.9931 20.0438 18.4545 19.4799 18.4545H5.1265C4.56262 18.4545 4.10126 17.9931 4.10126 17.4292V12.303C4.10126 11.7391 4.56262 11.2778 5.1265 11.2778C5.69039 11.2778 6.15175 11.7391 6.15175 12.303V16.404H18.4546V12.303C18.4546 11.7391 18.916 11.2778 19.4799 11.2778C20.0438 11.2778 20.5051 11.7391 20.5051 12.303V17.4292Z" fill="white"/>
</svg>
