<svg width="19" height="15" viewBox="0 0 19 15" fill="none" xmlns="http://www.w3.org/2000/svg">
<path d="M0 2.58603C0 1.90017 0.272456 1.2424 0.75743 0.75743C1.2424 0.272456 1.90017 0 2.58603 0H15.7513C16.4371 0 17.0949 0.272456 17.5799 0.75743C18.0648 1.2424 18.3373 1.90017 18.3373 2.58603V5.40715C18.3373 5.5942 18.263 5.77359 18.1307 5.90586C17.9984 6.03812 17.8191 6.11243 17.632 6.11243C17.3203 6.11243 17.0213 6.23627 16.8008 6.45671C16.5804 6.67716 16.4565 6.97614 16.4565 7.2879C16.4565 7.59965 16.5804 7.89863 16.8008 8.11908C17.0213 8.33952 17.3203 8.46336 17.632 8.46336C17.8191 8.46336 17.9984 8.53767 18.1307 8.66993C18.263 8.8022 18.3373 8.98159 18.3373 9.16864V11.9898C18.3373 12.6756 18.0648 13.3334 17.5799 13.8184C17.0949 14.3033 16.4371 14.5758 15.7513 14.5758H2.58603C1.90017 14.5758 1.2424 14.3033 0.75743 13.8184C0.272456 13.3334 0 12.6756 0 11.9898V9.16864C0 8.98159 0.074306 8.8022 0.206572 8.66993C0.338837 8.53767 0.518228 8.46336 0.70528 8.46336C1.01703 8.46336 1.31602 8.33952 1.53646 8.11908C1.7569 7.89863 1.88075 7.59965 1.88075 7.2879C1.88075 6.97614 1.7569 6.67716 1.53646 6.45671C1.31602 6.23627 1.01703 6.11243 0.70528 6.11243C0.518228 6.11243 0.338837 6.03812 0.206572 5.90586C0.074306 5.77359 0 5.5942 0 5.40715V2.58603ZM9.87392 3.5264C9.87392 3.33935 9.79962 3.15996 9.66735 3.02769C9.53508 2.89543 9.35569 2.82112 9.16864 2.82112C8.98159 2.82112 8.8022 2.89543 8.66993 3.02769C8.53767 3.15996 8.46336 3.33935 8.46336 3.5264V3.99659C8.46336 4.18364 8.53767 4.36303 8.66993 4.4953C8.8022 4.62756 8.98159 4.70187 9.16864 4.70187C9.35569 4.70187 9.53508 4.62756 9.66735 4.4953C9.79962 4.36303 9.87392 4.18364 9.87392 3.99659V3.5264ZM9.87392 7.0528C9.87392 6.86575 9.79962 6.68636 9.66735 6.55409C9.53508 6.42183 9.35569 6.34752 9.16864 6.34752C8.98159 6.34752 8.8022 6.42183 8.66993 6.55409C8.53767 6.68636 8.46336 6.86575 8.46336 7.0528V7.52299C8.46336 7.71004 8.53767 7.88943 8.66993 8.0217C8.8022 8.15396 8.98159 8.22827 9.16864 8.22827C9.35569 8.22827 9.53508 8.15396 9.66735 8.0217C9.79962 7.88943 9.87392 7.71004 9.87392 7.52299V7.0528ZM9.87392 10.5792C9.87392 10.3922 9.79962 10.2128 9.66735 10.0805C9.53508 9.94823 9.35569 9.87392 9.16864 9.87392C8.98159 9.87392 8.8022 9.94823 8.66993 10.0805C8.53767 10.2128 8.46336 10.3922 8.46336 10.5792V11.0494C8.46336 11.2364 8.53767 11.4158 8.66993 11.5481C8.8022 11.6804 8.98159 11.7547 9.16864 11.7547C9.35569 11.7547 9.53508 11.6804 9.66735 11.5481C9.79962 11.4158 9.87392 11.2364 9.87392 11.0494V10.5792Z" fill="#ECECEC"/>
</svg>
