<svg width="24" height="24" viewBox="0 0 24 24" fill="none" xmlns="http://www.w3.org/2000/svg">
<path d="M5.616 16.616C5.15533 16.616 4.771 16.4617 4.463 16.153C4.155 15.8443 4.00067 15.46 4 15V6.616C4 6.15533 4.15433 5.771 4.463 5.463C4.77167 5.155 5.156 5.00067 5.616 5H18.385C18.7297 5 19.0337 5.09333 19.297 5.28C19.5603 5.46667 19.7437 5.70667 19.847 6H15.635C14.617 6 13.763 6.345 13.073 7.035C12.383 7.725 12.038 8.57867 12.038 9.596V16.616H5.616ZM16.019 19C15.683 19 15.397 18.8823 15.161 18.647C14.9257 18.411 14.808 18.125 14.808 17.789V9.98C14.808 9.64 14.9257 9.35333 15.161 9.12C15.3963 8.88533 15.6823 8.768 16.019 8.768H19.977C20.3197 8.768 20.6077 8.885 20.841 9.119C21.075 9.353 21.192 9.63967 21.192 9.979V17.787C21.192 18.1237 21.0753 18.41 20.842 18.646C20.608 18.8813 20.3197 18.999 19.977 18.999L16.019 19ZM3 19V18H12.039V19H3ZM17.997 12.5C18.1903 12.5 18.3513 12.4333 18.48 12.3C18.6087 12.1653 18.673 12.0087 18.673 11.83C18.673 11.6367 18.6087 11.4757 18.48 11.347C18.3513 11.2183 18.1887 11.154 17.992 11.154C17.81 11.154 17.6537 11.2183 17.523 11.347C17.3923 11.4757 17.327 11.6383 17.327 11.835C17.327 12.017 17.3937 12.1733 17.527 12.304C17.661 12.4347 17.8177 12.5 17.997 12.5Z" fill="#777777"/>
</svg>
