<svg width="21" height="21" viewBox="0 0 21 21" fill="none" xmlns="http://www.w3.org/2000/svg">
<path fill-rule="evenodd" clip-rule="evenodd" d="M8.64964 18H12.353C14.9538 18 16.2546 18 17.1888 17.3875C17.592 17.1235 17.9392 16.7825 18.2105 16.3842C18.8346 15.4675 18.8346 14.19 18.8346 11.6367C18.8346 9.08337 18.8346 7.80587 18.2105 6.88921C17.9392 6.49087 17.592 6.14992 17.1888 5.88587C16.5888 5.49171 15.8371 5.35087 14.6863 5.30087C14.1371 5.30087 13.6646 4.89254 13.5571 4.36337C13.475 3.97576 13.2615 3.6284 12.9528 3.38C12.6442 3.13159 12.2592 2.99738 11.863 3.00004H9.13964C8.3163 3.00004 7.60714 3.57087 7.44547 4.36337C7.33797 4.89254 6.86547 5.30087 6.3163 5.30087C5.1663 5.35087 4.41464 5.49254 3.8138 5.88587C3.41092 6.15001 3.06403 6.49095 2.79297 6.88921C2.16797 7.80587 2.16797 9.08254 2.16797 11.6367C2.16797 14.1909 2.16797 15.4667 2.79214 16.3842C3.06214 16.7809 3.4088 17.1217 3.8138 17.3875C4.74797 18 6.0488 18 8.64964 18ZM10.5013 8.22754C8.5838 8.22754 7.0288 9.75337 7.0288 11.6359C7.0288 13.5184 8.58464 15.0467 10.5013 15.0467C12.418 15.0467 13.9738 13.52 13.9738 11.6375C13.9738 9.75504 12.418 8.22754 10.5013 8.22754ZM10.5013 9.59087C9.3513 9.59087 8.41797 10.5067 8.41797 11.6367C8.41797 12.7659 9.3513 13.6817 10.5013 13.6817C11.6513 13.6817 12.5846 12.7659 12.5846 11.6367C12.5846 10.5075 11.6513 9.59087 10.5013 9.59087ZM14.4363 8.9092C14.4363 8.53254 14.7471 8.22754 15.1313 8.22754H16.0563C16.4396 8.22754 16.7513 8.53254 16.7513 8.9092C16.7495 9.09162 16.6754 9.26588 16.5453 9.39369C16.4151 9.52151 16.2396 9.59243 16.0571 9.59087H15.1313C15.0409 9.59175 14.9512 9.57482 14.8674 9.54104C14.7835 9.50725 14.7072 9.45729 14.6426 9.39399C14.5781 9.33069 14.5266 9.2553 14.4912 9.17212C14.4558 9.08894 14.4372 8.9996 14.4363 8.9092Z" fill="white"/>
</svg>
