<svg width="18" height="18" viewBox="0 0 18 18" fill="none" xmlns="http://www.w3.org/2000/svg">
<path fill-rule="evenodd" clip-rule="evenodd" d="M8.84049 0.258587C8.96025 0.300055 9.07066 0.364723 9.1654 0.448893C9.26015 0.533063 9.33737 0.635083 9.39266 0.74912C9.44794 0.863157 9.48021 0.986974 9.48761 1.11349C9.49501 1.24001 9.4774 1.36674 9.43578 1.48644C9.06557 2.55303 9.11475 3.72048 9.57335 4.75216C9.67684 4.98608 9.68317 5.25153 9.59094 5.49012C9.49871 5.72871 9.31549 5.92088 9.08156 6.02437C8.84764 6.12787 8.58219 6.13419 8.34361 6.04197C8.10502 5.94974 7.91284 5.76651 7.80935 5.53259C7.15316 4.05477 7.08285 2.38286 7.61264 0.855159C7.65385 0.735172 7.71833 0.624497 7.80239 0.529474C7.88645 0.434452 7.98843 0.356951 8.10249 0.301413C8.21656 0.245874 8.34046 0.213389 8.4671 0.20582C8.59374 0.19825 8.72063 0.215745 8.84049 0.257301M5.81521 3.70687C5.85033 3.45352 5.78337 3.19658 5.62905 2.9926C5.47474 2.78861 5.24571 2.65428 4.99235 2.61916C4.73899 2.58404 4.48206 2.651 4.27808 2.80531C4.07409 2.95963 3.93976 3.18866 3.90464 3.44202C3.78156 4.32747 3.98641 5.22737 4.48064 5.9723C4.55071 6.07783 4.64088 6.16852 4.74599 6.2392C4.85111 6.30988 4.96912 6.35916 5.09329 6.38423C5.21746 6.40931 5.34534 6.40968 5.46965 6.38532C5.59396 6.36097 5.71225 6.31237 5.81778 6.2423C5.92331 6.17223 6.014 6.08206 6.08468 5.97695C6.15536 5.87183 6.20464 5.75382 6.22971 5.62965C6.25478 5.50548 6.25515 5.3776 6.2308 5.25329C6.20645 5.12898 6.15785 5.01069 6.08778 4.90516C5.85383 4.55234 5.7569 4.12618 5.81521 3.70687ZM13.3816 5.51587C13.0302 5.42585 12.6618 5.42578 12.3104 5.51566C11.959 5.60554 11.6358 5.78248 11.3708 6.03016L11.3554 6.04559L6.32692 11.074L6.32049 11.0804C6.07031 11.3379 5.88881 11.6541 5.79265 12C5.69649 12.3459 5.68875 12.7104 5.77015 13.06C5.85155 13.4097 6.01947 13.7333 6.25851 14.0011C6.49754 14.269 6.80003 14.4725 7.13821 14.593L15.1508 17.5797L15.1598 17.5836C15.5319 17.7154 15.9336 17.7401 16.3191 17.6548C16.7045 17.5694 17.0583 17.3775 17.34 17.1009C17.6217 16.8243 17.82 16.4741 17.9124 16.0903C18.0047 15.7064 17.9874 15.3044 17.8623 14.9299L14.8885 6.92373C14.7745 6.58189 14.5768 6.274 14.3134 6.0281C14.05 5.7822 13.7292 5.60612 13.3803 5.51587M4.21578 10.1702C3.81064 10.0768 3.38524 10.1377 3.02264 10.3412C2.79929 10.4658 2.53558 10.4966 2.28951 10.4268C2.04345 10.357 1.8352 10.1923 1.71057 9.96895C1.58593 9.7456 1.55513 9.48188 1.62494 9.23582C1.69474 8.98976 1.85943 8.78151 2.08278 8.65687C2.86107 8.22147 3.77326 8.09043 4.64264 8.28916C4.89207 8.34577 5.10881 8.49914 5.24516 8.71554C5.38151 8.93195 5.42631 9.19365 5.36971 9.44309C5.3131 9.69252 5.15973 9.90926 4.94333 10.0456C4.72692 10.182 4.46522 10.2268 4.21578 10.1702ZM1.36921 4.50016C1.02822 4.50016 0.701191 4.63562 0.460073 4.87674C0.218955 5.11785 0.0834961 5.44488 0.0834961 5.78587C0.0834961 6.12687 0.218955 6.45389 0.460073 6.69501C0.701191 6.93613 1.02822 7.07159 1.36921 7.07159C1.7102 7.07159 2.03723 6.93613 2.27835 6.69501C2.51947 6.45389 2.65492 6.12687 2.65492 5.78587C2.65492 5.44488 2.51947 5.11785 2.27835 4.87674C2.03723 4.63562 1.7102 4.50016 1.36921 4.50016Z" fill="#777777"/>
</svg>
