<svg width="24" height="24" viewBox="0 0 24 24" fill="none" xmlns="http://www.w3.org/2000/svg">
<path d="M20.0308 6.34199L12.1847 2.85276C12.1269 2.8256 12.0639 2.81152 12.0001 2.81152C11.9363 2.81152 11.8732 2.8256 11.8155 2.85276L3.96931 6.34199C3.88818 6.37739 3.81893 6.43536 3.76983 6.50901C3.72074 6.58266 3.69385 6.66888 3.69238 6.75738V9.23123C3.69238 13.7728 6.40623 19.2743 11.8339 21.1758C11.9417 21.2124 12.0585 21.2124 12.1662 21.1758C17.5939 19.2743 20.3078 13.7728 20.3078 9.23123V6.75738C20.3063 6.66888 20.2794 6.58266 20.2303 6.50901C20.1812 6.43536 20.112 6.37739 20.0308 6.34199ZM16.3275 9.39738L11.4536 15.6023C11.3828 15.6918 11.2939 15.7653 11.1927 15.8181C11.0916 15.8709 10.9804 15.9018 10.8665 15.9088L10.8185 15.9106C10.6039 15.9102 10.3982 15.825 10.2462 15.6734L7.73546 13.1626C7.58404 13.0108 7.49912 12.8051 7.49938 12.5907C7.49964 12.3763 7.58506 12.1708 7.73684 12.0194C7.88863 11.868 8.09435 11.783 8.30875 11.7833C8.52314 11.7836 8.72866 11.869 8.88007 12.0208L10.7465 13.8872L15.0573 8.39953C15.1921 8.23803 15.3845 8.1354 15.5937 8.11342C15.8028 8.09143 16.0124 8.15183 16.1778 8.28179C16.3432 8.41175 16.4514 8.60104 16.4795 8.8095C16.5076 9.01795 16.4534 9.22916 16.3284 9.3983L16.3275 9.39738Z" fill="#777777"/>
</svg>
