<svg width="18" height="14" viewBox="0 0 18 14" fill="none" xmlns="http://www.w3.org/2000/svg">
<path d="M10.666 4.49935H8.58268C7.89235 4.49935 7.33268 5.05899 7.33268 5.74935C7.33268 6.43968 7.89235 6.99935 8.58268 6.99935H9.41602C10.1063 6.99935 10.666 7.55902 10.666 8.24935C10.666 8.93968 10.1063 9.49935 9.41602 9.49935H7.33268M8.99935 3.66602V4.49935M8.99935 9.49935V10.3327M13.9993 6.99935H14.0077M3.99935 6.99935H4.00768M0.666016 3.83268V10.166C0.666016 11.0994 0.666016 11.5662 0.847674 11.9227C1.00746 12.2363 1.26242 12.4913 1.57603 12.651C1.93255 12.8327 2.39926 12.8327 3.33268 12.8327H14.666C15.5994 12.8327 16.0662 12.8327 16.4227 12.651C16.7363 12.4913 16.9913 12.2363 17.151 11.9227C17.3327 11.5662 17.3327 11.0994 17.3327 10.166V3.83268C17.3327 2.89927 17.3327 2.43255 17.151 2.07603C16.9913 1.76243 16.7363 1.50747 16.4227 1.34767C16.0662 1.16602 15.5994 1.16602 14.666 1.16602H3.33268C2.39927 1.16602 1.93255 1.16602 1.57603 1.34767C1.26243 1.50746 1.00746 1.76242 0.847674 2.07603C0.666016 2.43255 0.666016 2.89926 0.666016 3.83268ZM14.416 6.99935C14.416 7.22943 14.2294 7.41602 13.9993 7.41602C13.7693 7.41602 13.5827 7.22943 13.5827 6.99935C13.5827 6.76927 13.7693 6.58268 13.9993 6.58268C14.2294 6.58268 14.416 6.76927 14.416 6.99935ZM4.41602 6.99935C4.41602 7.22943 4.22947 7.41602 3.99935 7.41602C3.76923 7.41602 3.58268 7.22943 3.58268 6.99935C3.58268 6.76927 3.76923 6.58268 3.99935 6.58268C4.22947 6.58268 4.41602 6.76927 4.41602 6.99935Z" stroke="white" stroke-linecap="round" stroke-linejoin="round"/>
</svg>
