<svg width="32" height="32" viewBox="0 0 32 32" fill="none" xmlns="http://www.w3.org/2000/svg">
<rect width="32" height="32" rx="16" fill="#7D7D7D"/>
<g clip-path="url(#clip0_753_25616)">
<mask id="mask0_753_25616" style="mask-type:luminance" maskUnits="userSpaceOnUse" x="8" y="8" width="16" height="16">
<path d="M24 8H8V24H24V8Z" fill="white"/>
</mask>
<g mask="url(#mask0_753_25616)">
<path d="M21.0068 11.9L17.0468 9.61334C16.4001 9.24001 15.6001 9.24001 14.9468 9.61334L10.9934 11.9C10.3468 12.2733 9.94678 12.9667 9.94678 13.72V18.28C9.94678 19.0267 10.3468 19.72 10.9934 20.1L14.9534 22.3867C15.6001 22.76 16.4001 22.76 17.0534 22.3867L21.0134 20.1C21.6601 19.7267 22.0601 19.0333 22.0601 18.28V13.72C22.0534 12.9667 21.6534 12.28 21.0068 11.9ZM16.0001 12.8933C16.8601 12.8933 17.5534 13.5867 17.5534 14.4467C17.5534 15.3067 16.8601 16 16.0001 16C15.1401 16 14.4468 15.3067 14.4468 14.4467C14.4468 13.5933 15.1401 12.8933 16.0001 12.8933ZM17.7868 19.1067H14.2134C13.6734 19.1067 13.3601 18.5067 13.6601 18.06C14.1134 17.3867 14.9934 16.9333 16.0001 16.9333C17.0068 16.9333 17.8868 17.3867 18.3401 18.06C18.6401 18.5 18.3201 19.1067 17.7868 19.1067Z" fill="white"/>
</g>
</g>
<defs>
<clipPath id="clip0_753_25616">
<rect width="16" height="16" fill="white" transform="translate(8 8)"/>
</clipPath>
</defs>
</svg>