<svg width="23" height="20" viewBox="0 0 23 20" fill="none" xmlns="http://www.w3.org/2000/svg">
<path d="M16.5 9C13.7386 9 11.5 11.2386 11.5 14C11.5 16.7614 13.7386 19 16.5 19C19.2614 19 21.5 16.7614 21.5 14C21.5 11.2386 19.2614 9 16.5 9ZM16.5 9V7M16.5 7V6.2C16.5 5.0799 16.5 4.51984 16.282 4.09202C16.0903 3.71569 15.7843 3.40973 15.408 3.21799C14.9802 3 14.4201 3 13.3 3H4.7C3.5799 3 3.01984 3 2.59202 3.21799C2.21569 3.40973 1.90973 3.71569 1.71799 4.09202C1.5 4.51984 1.5 5.0799 1.5 6.2V7M16.5 7H1.5M1.5 7V13.8C1.5 14.9201 1.5 15.4802 1.71799 15.908C1.90973 16.2843 2.21569 16.5903 2.59202 16.782C3.01984 17 3.5799 17 4.7 17H12.5M4.5 1V3M13.5 1V3M14.5 14H16.5M16.5 14H18.5M16.5 14V12M16.5 14V16" stroke="white" stroke-width="2" stroke-linecap="round" stroke-linejoin="round"/>
</svg>
