<svg width="209" height="246" viewBox="0 0 209 246" fill="none" xmlns="http://www.w3.org/2000/svg">
<path fill-rule="evenodd" clip-rule="evenodd" d="M127.429 241.006L127.329 241.022L126.737 241.299L126.571 241.331L126.454 241.299L125.862 241.014C125.773 240.993 125.707 241.009 125.662 241.061L125.629 241.141L125.487 244.528L125.529 244.687L125.612 244.79L126.479 245.375L126.604 245.407L126.704 245.375L127.571 244.79L127.671 244.663L127.704 244.528L127.562 241.149C127.54 241.064 127.496 241.017 127.429 241.006ZM129.629 240.112L129.512 240.127L127.979 240.864L127.896 240.943L127.871 241.03L128.021 244.433L128.062 244.528L128.129 244.592L129.804 245.32C129.91 245.346 129.99 245.325 130.046 245.257L130.079 245.146L129.796 240.286C129.768 240.185 129.712 240.127 129.629 240.112ZM123.671 240.127C123.634 240.106 123.59 240.099 123.548 240.108C123.506 240.117 123.469 240.141 123.446 240.175L123.396 240.286L123.112 245.146C123.118 245.241 123.165 245.304 123.254 245.336L123.379 245.32L125.054 244.584L125.137 244.52L125.162 244.433L125.312 241.03L125.287 240.935L125.204 240.856L123.671 240.127Z" fill="#DBDBDB"/>
<path fill-rule="evenodd" clip-rule="evenodd" d="M130.112 82.3C125.148 80.788 119.81 80.788 114.845 82.3L60.3954 98.8908C58.4415 99.495 56.7914 100.763 55.7621 102.453L37.1204 133.038C36.4971 134.061 36.123 135.204 36.0256 136.383C35.9282 137.562 36.1099 138.746 36.5575 139.849C37.0051 140.952 37.7072 141.946 38.6121 142.758C39.5171 143.569 40.602 144.178 41.7871 144.539L101.287 162.682C103.098 163.234 105.054 163.181 106.829 162.532C108.604 161.882 110.092 160.675 111.045 159.112L114.145 154.03V172.37C114.145 173.617 113.835 174.847 113.24 175.958C112.645 177.07 111.782 178.032 110.721 178.766C109.66 179.501 108.431 179.987 107.135 180.185C105.839 180.383 104.512 180.287 103.262 179.906L54.6121 165.08V191.027C54.6104 194.38 55.7296 197.647 57.8084 200.357C59.8871 203.067 62.8181 205.08 66.1788 206.106L114.845 220.924C119.81 222.436 125.148 222.436 130.112 220.924L178.779 206.106C182.141 205.081 185.074 203.069 187.154 200.359C189.234 197.649 190.355 194.381 190.354 191.027L190.337 165.08L141.695 179.906C140.445 180.288 139.117 180.383 137.82 180.185C136.523 179.986 135.294 179.5 134.233 178.764C133.172 178.029 132.309 177.065 131.715 175.953C131.12 174.84 130.811 173.61 130.812 172.362V154.022L133.904 159.104C134.858 160.666 136.347 161.871 138.122 162.519C139.897 163.167 141.852 163.219 143.662 162.666L203.17 144.539C204.357 144.178 205.443 143.569 206.349 142.757C207.254 141.945 207.957 140.95 208.405 139.846C208.852 138.742 209.034 137.557 208.936 136.377C208.837 135.197 208.462 134.054 207.837 133.03L189.195 102.453C188.166 100.763 186.516 99.495 184.562 98.8908L130.112 82.3ZM154.72 106.426L122.479 116.249L90.2288 106.426L119.929 97.3711C121.584 96.8665 123.365 96.8665 125.02 97.3711L154.72 106.426Z" fill="#DBDBDB"/>
<path d="M21.9998 40.0003C23.3332 36.0003 25.9998 33.3337 29.9998 31.667V26.667H33.3332V31.3337H34.6665C38.3332 31.3337 41.3332 32.667 43.9998 35.3337L45.3332 36.667L49.9998 35.0003C50.9998 34.667 51.9998 34.3337 53.3332 34.3337C55.3332 34.3337 57.3332 35.0003 58.9998 36.3337C60.9998 37.667 61.9998 39.3337 62.6665 41.0003C63.3332 43.3337 63.3332 45.3337 62.6665 47.667C61.6665 50.0003 60.6665 51.667 58.9998 52.667C60.3332 57.667 59.3332 62.0003 55.6665 65.667C52.9998 68.3337 49.9998 69.667 46.3332 69.667C44.6665 69.667 43.6665 69.667 42.6665 69.3337C40.6665 72.0003 37.9998 73.667 34.6665 73.667C33.6665 73.667 32.3332 73.667 31.3332 73.3337C29.3332 72.667 27.9998 71.3337 26.6665 69.667C25.3332 67.667 24.6665 66.0003 24.6665 64.0003C24.6665 62.667 24.6665 61.667 24.9998 60.667L26.6665 55.3337L24.6665 54.0003C21.9998 51.3337 20.6665 47.667 20.9998 43.667H16.6665V40.0003H21.9998ZM54.3332 47.667C56.3332 46.667 56.9998 45.3337 56.3332 43.3337C55.6665 41.3337 54.3332 40.667 52.3332 41.3337L41.6665 45.3337C46.9998 48.0003 50.9998 48.667 54.3332 47.667ZM33.3332 66.3337C35.3332 67.0003 36.6665 66.3337 37.6665 64.3337C38.6665 61.0003 37.9998 57.0003 35.3332 51.667L31.3332 62.0003C30.6665 64.3337 31.3332 65.667 33.3332 66.3337ZM29.3332 48.667L31.3332 43.3337V43.0003L32.3332 42.0003H32.6665L37.9998 40.0003C36.6665 39.0003 35.3332 38.3337 33.6665 38.3337C31.9998 38.3337 30.3332 39.0003 28.9998 40.3337C27.6665 41.667 26.9998 43.0003 26.9998 44.667C27.6665 45.667 28.3332 47.3337 29.3332 48.667Z" fill="#DBDBDB"/>
<g clip-path="url(#clip0_2468_53919)">
<path d="M17.5537 0.521111C11.3037 0.521111 7.0144 8.43907 29.0537 18.7399L17.5537 0.521111L-16.9844 -27.5722C-16.9844 -36.9472 23.8037 0.521111 17.5537 0.521111ZM110.737 13.8766C109.39 13.9332 108.081 14.1891 106.987 14.4234L107.729 17.8609C108.823 17.6168 109.956 17.4625 110.913 17.3922L110.737 13.8766ZM59.5459 -3.57022C63.0029 -3.57022 -60.6244 -47.4511 -58.9838 -8.07207C-34.7065 -27.8728 -98.3193 -40.8051 -3.48437 6.42778C-58.3189 9.96294 -34.4844 -34.1152 -34.4844 -37.5722C-34.4844 -41.0234 56.0947 -3.57022 59.5459 -3.57022ZM114.624 14.1109L114.038 17.568C114.995 17.7691 115.952 18.0211 116.792 18.525L118.491 15.4391C117.3 14.8043 115.972 14.234 114.624 14.1109ZM103.394 15.4195C102.202 15.8844 101.011 16.3004 99.9951 16.7086L101.382 19.9313C102.456 19.4742 103.589 19.0758 104.546 18.7399L103.394 15.4195ZM121.694 18.0367L119.019 20.3219C119.722 21.1266 120.269 22.1188 120.698 22.9195L123.843 21.3375C123.179 20.0582 122.593 19.0895 121.694 18.0367ZM96.7334 18.2125C95.542 18.8199 94.5654 19.3609 93.5108 19.8922L95.2295 22.9781C96.2451 22.3922 97.3584 21.8258 98.2568 21.3766L96.7334 18.2125ZM90.4248 21.7086C89.3896 22.3141 88.374 22.9195 87.3779 23.5836L89.292 26.5133C90.249 25.8883 91.2451 25.3024 92.2217 24.7164L90.4248 21.7086ZM125.054 25.2047C123.901 25.4 122.729 25.5367 121.577 25.6734C121.655 26.65 121.597 27.7047 121.401 28.525L124.819 29.3258C125.015 27.9195 125.19 26.4742 125.054 25.2047ZM84.4092 25.5367C83.4326 26.2008 82.4756 26.8844 81.499 27.5484L83.5303 30.4195C84.4678 29.7359 85.4248 29.0914 86.3818 28.4274L84.4092 25.5367ZM78.6279 29.6578C77.6514 30.3609 76.6357 31.1422 75.7959 31.7867L77.9248 34.5797C78.999 33.7984 79.7412 33.2125 80.7178 32.4899L78.6279 29.6578ZM120.229 31.2203C119.644 32.1188 118.96 33.0172 118.276 33.7008L120.835 36.1422C121.675 35.1461 122.573 34.1305 123.198 33.1149L120.229 31.2203ZM73.0029 33.9742C72.0459 34.7164 71.0889 35.4781 70.249 36.1813L72.4756 38.8961C73.3936 38.1344 74.3311 37.3531 75.1904 36.7281L73.0029 33.9742ZM115.854 35.9469C114.956 36.6695 114.019 37.3727 113.159 37.9586L115.171 40.8492C116.206 40.1461 117.222 39.3844 118.101 38.6813L115.854 35.9469ZM67.5342 38.4664C66.6162 39.2086 65.7373 39.9899 64.8389 40.7516L67.124 43.4274C68.0029 42.6656 68.8818 41.9039 69.7803 41.1617L67.5342 38.4664ZM110.288 39.8336C109.292 40.4195 108.257 41.025 107.319 41.5328L108.999 44.6383C110.054 43.9938 111.245 43.4274 112.124 42.8414L110.288 39.8336ZM62.1631 43.0758C61.2842 43.857 60.4248 44.6383 59.5459 45.4391L61.9092 48.0563C62.7686 47.275 63.6475 46.4938 64.5068 45.7125L62.1631 43.0758ZM104.253 43.1539C103.218 43.6617 102.183 44.1891 101.147 44.6969L102.651 47.8609C103.862 47.275 104.761 46.7867 105.854 46.2789L104.253 43.1539ZM98.0029 46.1617C96.9287 46.65 95.8936 47.1188 94.7998 47.568L96.2256 50.7906C97.2998 50.3219 98.374 49.8336 99.4483 49.3453L98.0029 46.1617ZM56.9678 47.8609C55.9717 48.7399 55.2783 49.4234 54.3701 50.3024L56.8506 52.8414C57.7685 51.9625 58.5107 51.2008 59.3701 50.4586L56.9678 47.8609ZM91.5967 48.9938C90.5225 49.443 89.4482 49.9117 88.374 50.3609L89.7412 53.6227C90.835 53.1734 91.9092 52.7047 92.9834 52.2359L91.5967 48.9938ZM85.1318 51.7281C84.0576 52.1969 82.9834 52.6656 81.8896 53.0953L83.2568 56.357C84.3311 55.9078 85.4248 55.4391 86.499 54.9899L85.1318 51.7281ZM222 95.8103C215.75 95.8103 268.5 108.808 121.226 92.1969C282 117 228.25 95.8103 222 95.8103ZM78.6475 54.4625C77.5342 54.9703 76.3623 55.4391 75.4053 55.8492L76.792 59.0914C77.9443 58.6031 79.0381 58.1344 80.0146 57.7047L78.6475 54.4625ZM72.1631 57.236C71.1084 57.7242 69.8779 58.2711 68.9404 58.7008L70.3857 61.9039C71.5381 61.3961 72.5537 60.8883 73.5693 60.4586L72.1631 57.236ZM65.7178 60.1656C64.624 60.693 63.4912 61.2399 62.5146 61.7281L64.0967 64.8727C65.1514 64.3258 66.2451 63.818 67.2021 63.3492L65.7178 60.1656ZM222 95.8103C291.274 114.56 281.25 102.703 275 102.703C268.75 127.703 124.683 92.1969 121.226 92.1969C117.769 92.1969 249.25 122.959 243 97.9585C249.25 122.959 218.543 95.8103 222 95.8103ZM59.3506 63.3492C58.3154 63.9156 57.2803 64.5016 56.2256 65.107L57.9834 68.1539C58.9795 67.568 59.9951 67.0211 61.0107 66.4742L59.3506 63.3492ZM53.1592 67.0016C52.0635 67.6266 51.0049 68.4664 50.0928 69.0719L52.2217 71.8844C53.1924 71.1813 54.2373 70.4586 55.0732 69.9508L53.1592 67.0016ZM47.3193 71.4156C46.3818 72.275 45.458 73.2711 44.7412 74.1109L47.417 76.3961C48.1689 75.4781 48.8232 74.7945 49.7021 74.0133L47.3193 71.4156ZM89.8584 71.6695L90.1709 75.1656C91.1865 74.9899 92.2022 75.107 93.2178 75.2633L93.8232 71.8063C92.5342 71.6109 91.167 71.4742 89.8584 71.6695ZM82.5928 73.6227L83.9209 76.8844C84.9365 76.4352 85.9912 76.0836 87.0654 75.7516C86.6943 74.6383 86.4209 73.5055 86.1279 72.3727C84.8975 72.7242 83.667 73.193 82.5928 73.6227ZM97.7295 73.4469L95.7373 76.3375C96.5576 76.943 97.3584 77.5875 98.0029 78.3883L100.659 76.0836C99.6631 75.068 98.9014 74.1109 97.7295 73.4469ZM79.2725 75.2047C78.1982 75.7516 77.1631 76.3766 76.1279 76.982L77.9053 80.0094C78.9209 79.4625 79.917 78.818 80.9131 78.2906L79.2725 75.2047ZM42.5947 77.3531C42.0049 78.6227 41.5264 79.9899 41.3037 81.2008L44.7607 81.8063C44.9717 80.693 45.2744 79.8922 45.7178 78.9352C44.6455 78.4664 43.6221 77.9 42.5947 77.3531ZM73.0811 78.8766C72.085 79.5211 71.1084 80.1656 70.1318 80.8297L72.085 83.7594C73.0615 83.1149 74.0186 82.4508 74.9951 81.8063L73.0811 78.8766ZM102.905 79.1109L99.9561 81.025C100.581 81.9625 101.187 82.9391 101.753 83.9352L104.8 82.1774C104.116 81.0836 103.628 80.107 102.905 79.1109ZM67.2217 82.8219C66.2451 83.4664 65.2685 84.0914 64.3115 84.775L66.2646 87.7047C67.2021 87.0211 68.1982 86.3766 69.1943 85.7125L67.2217 82.8219ZM44.7998 84.6774C43.6689 84.9117 42.5283 85.107 41.3916 85.3219C41.5967 86.6891 42.1455 88.0172 42.6416 89.0719L45.8154 87.5484C45.3916 86.5719 44.9893 85.5563 44.7998 84.6774ZM106.538 85.2242L103.491 86.982C104.097 88.0367 104.8 89.1695 105.366 90.068L108.315 88.1734C107.651 87.1383 107.085 86.1617 106.538 85.2242ZM61.4209 86.6891C60.4443 87.2945 59.4873 87.8805 58.4717 88.4469L60.21 91.5133C61.2451 90.9078 62.2803 90.3024 63.2764 89.6578L61.4209 86.6891ZM47.4951 89.8727L45.0928 92.4508C46.1787 93.4859 47.5186 94.1695 48.9795 94.482L49.7607 91.0641C48.8936 90.8883 48.083 90.4586 47.4951 89.8727ZM55.5029 89.9313C54.5244 90.3805 53.5088 90.732 52.4561 90.9469L53.2568 94.3844C54.5107 94.1305 55.6904 93.6617 56.8701 93.1734L55.5029 89.9313ZM110.249 90.8688L107.534 93.0758C108.374 94.1109 109.409 95.107 110.308 95.8102L112.476 93.0367C111.616 92.3727 110.874 91.5719 110.249 90.8688ZM114.956 94.2867L114.077 97.7047C115.62 98.0172 116.772 98.1148 118.218 97.9586L117.788 94.4625C116.831 94.6187 115.894 94.5211 114.956 94.2867Z" fill="white"/>
</g>
<defs>
<clipPath id="clip0_2468_53919">
<rect width="100" height="100" fill="white" transform="translate(30)"/>
</clipPath>
</defs>
</svg>
