<svg width="22" height="18" viewBox="0 0 22 18" fill="none" xmlns="http://www.w3.org/2000/svg">
<path d="M9 6.08V3.25C8.59 3.25 8.25 2.91 8.25 2.5V0.25H6C1.59 0.25 0.25 1.59 0.25 6V6.5C0.25 6.91 0.59 7.25 1 7.25C1.96 7.25 2.75 8.04 2.75 9C2.75 9.96 1.96 10.75 1 10.75C0.59 10.75 0.25 11.09 0.25 11.5V12C0.25 16.41 1.59 17.75 6 17.75H8.25V15.5C8.25 15.09 8.59 14.75 9 14.75V11.92C8.59 11.92 8.25 11.58 8.25 11.17V6.83C8.25 6.42 8.59 6.08 9 6.08Z" fill="url(#paint0_linear_2686_35569)"/>
<path opacity="0.4" d="M19.25 9.5C19.25 10.46 20.04 11.25 21 11.25C21.41 11.25 21.75 11.59 21.75 12C21.75 16.41 20.41 17.75 16 17.75H9.75V15.5C9.75 15.09 9.41 14.75 9 14.75V11.92C9.41 11.92 9.75 11.58 9.75 11.17V6.83C9.75 6.42 9.41 6.08 9 6.08V3.25C9.41 3.25 9.75 2.91 9.75 2.5V0.25H16C20.41 0.25 21.75 1.59 21.75 6V7C21.75 7.41 21.41 7.75 21 7.75C20.04 7.75 19.25 8.54 19.25 9.5Z" fill="#2979FF"/>
<defs>
<linearGradient id="paint0_linear_2686_35569" x1="2.15705" y1="1.59615" x2="14.2322" y2="11.1355" gradientUnits="userSpaceOnUse">
<stop stop-color="#2979FF"/>
<stop offset="1" stop-color="#9DC1FF"/>
</linearGradient>
</defs>
</svg>
