<svg width="31" height="30" viewBox="0 0 31 30" fill="none" xmlns="http://www.w3.org/2000/svg">
<path fill-rule="evenodd" clip-rule="evenodd" d="M16.5634 7.47547C15.9975 6.91026 15.627 6.17888 15.5063 5.38817C15.3855 4.59746 15.5207 3.78886 15.8922 3.08047L13.6797 1.91797C13.0601 3.09823 12.8341 4.44568 13.0347 5.76351C13.2353 7.08134 13.852 8.30051 14.7947 9.24297L16.5634 7.47547ZM10.6522 2.75672C10.1728 5.01817 10.6078 7.37744 11.8622 9.31922L9.76344 10.6805C8.15004 8.18415 7.5901 5.15079 8.20594 2.24297L10.6522 2.75672ZM5.50094 7.49922H3.00094V4.99922H5.50094V7.49922ZM7.93844 15.6692C7.377 15.1073 6.65165 14.7382 5.86695 14.6151C5.08224 14.492 4.27872 14.6213 3.57219 14.9842L2.42969 12.7592C3.6071 12.1544 4.94611 11.9391 6.25378 12.1442C7.56144 12.3493 8.77023 12.9643 9.70594 13.9005L7.93844 15.6692ZM17.6884 9.59297L20.0922 7.18922L22.6884 12.093V27.5305L17.6884 24.8842V9.59297ZM24.5634 28.3505V15.6355L28.9647 23.948L24.5634 28.3505ZM15.8134 11.468L7.68969 19.5905L15.8134 23.8905V11.468Z" fill="white"/>
</svg>
