<svg width="32" height="32" viewBox="0 0 32 32" fill="none" xmlns="http://www.w3.org/2000/svg">
<rect width="32" height="32" rx="16" fill="#7D7D7D"/>
<g clip-path="url(#clip0_753_25618)">
<mask id="mask0_753_25618" style="mask-type:luminance" maskUnits="userSpaceOnUse" x="8" y="8" width="16" height="16">
<path d="M24 8H8V24H24V8Z" fill="white"/>
</mask>
<g mask="url(#mask0_753_25618)">
<path d="M18.7935 9.33334H13.2068C10.7802 9.33334 9.3335 10.78 9.3335 13.2067V18.7867C9.3335 21.22 10.7802 22.6667 13.2068 22.6667H18.7868C21.2135 22.6667 22.6602 21.22 22.6602 18.7933V13.2067C22.6668 10.78 21.2202 9.33334 18.7935 9.33334ZM15.3002 19.6733C15.1068 19.8667 14.7402 20.0533 14.4735 20.0933L12.8335 20.3267C12.7735 20.3333 12.7135 20.34 12.6535 20.34C12.3802 20.34 12.1268 20.2467 11.9468 20.0667C11.7268 19.8467 11.6335 19.5267 11.6868 19.1733L11.9202 17.5333C11.9602 17.26 12.1402 16.9 12.3402 16.7067L15.3135 13.7333C15.3668 13.8733 15.4202 14.0133 15.4935 14.1733C15.5602 14.3133 15.6335 14.46 15.7135 14.5933C15.7802 14.7067 15.8535 14.8133 15.9135 14.8933C15.9868 15.0067 16.0735 15.1133 16.1268 15.1733C16.1602 15.22 16.1868 15.2533 16.2002 15.2667C16.3668 15.4667 16.5602 15.6533 16.7268 15.7933C16.7735 15.84 16.8002 15.8667 16.8135 15.8733C16.9135 15.9533 17.0135 16.0333 17.1002 16.0933C17.2068 16.1733 17.3135 16.2467 17.4268 16.3067C17.5602 16.3867 17.7068 16.46 17.8535 16.5333C18.0068 16.6 18.1468 16.66 18.2868 16.7067L15.3002 19.6733ZM19.5802 15.3933L18.9668 16.0133C18.9268 16.0533 18.8735 16.0733 18.8202 16.0733C18.8002 16.0733 18.7735 16.0733 18.7602 16.0667C17.4068 15.68 16.3268 14.6 15.9402 13.2467C15.9202 13.1733 15.9402 13.0933 15.9935 13.0467L16.6135 12.4267C17.6268 11.4133 18.5935 11.4333 19.5868 12.4267C20.0935 12.9333 20.3402 13.42 20.3402 13.9267C20.3335 14.4067 20.0868 14.8867 19.5802 15.3933Z" fill="white"/>
</g>
</g>
<defs>
<clipPath id="clip0_753_25618">
<rect width="16" height="16" fill="white" transform="translate(8 8)"/>
</clipPath>
</defs>
</svg>