<svg width="21" height="21" viewBox="0 0 21 21" fill="none" xmlns="http://www.w3.org/2000/svg">
<path d="M10.2533 0C11.4109 0 12.3641 0.87549 12.4867 2.00046L14.25 2C15.4409 2 16.4156 2.92516 16.4948 4.09595L16.5 4.25V9.1739C16.0185 9.0602 15.5163 9 15 9V4.25C15 3.8703 14.7178 3.55651 14.3518 3.50685L14.25 3.5L12.1176 3.50082C11.7141 4.09953 11.0297 4.4933 10.2533 4.4933H6.74665C5.97031 4.4933 5.28594 4.09953 4.88237 3.50082L2.75 3.5C2.3703 3.5 2.05651 3.78215 2.00685 4.14823L2 4.25V17.7546C2 18.1343 2.28215 18.4481 2.64823 18.4977L2.75 18.5046H9.2346C9.5224 19.0557 9.8869 19.5604 10.314 20.0046H2.75C1.55914 20.0046 0.58436 19.0794 0.50519 17.9086L0.5 17.7546V4.25C0.5 3.05914 1.42516 2.08436 2.59595 2.00519L2.75 2L4.51334 2.00046C4.63595 0.87549 5.58906 0 6.74665 0H10.2533ZM10.2533 1.5H6.74665C6.33429 1.5 6 1.83429 6 2.24665C6 2.65902 6.33429 2.9933 6.74665 2.9933H10.2533C10.6657 2.9933 11 2.65902 11 2.24665C11 1.83429 10.6657 1.5 10.2533 1.5Z" fill="white"/>
<path d="M5.75 11.9961H9.5247C8.8761 13.0074 8.5 14.2101 8.5 15.5006C8.5 15.8403 8.5261 16.1739 8.5763 16.4995L8.5 16.4998C5.97204 16.4998 4.5 15.591 4.5 13.7434V13.2461C4.5 12.5558 5.05964 11.9961 5.75 11.9961Z" fill="white"/>
<path d="M8.5 5.99609C9.8807 5.99609 11 7.11538 11 8.49607C11 9.87677 9.8807 10.9961 8.5 10.9961C7.11929 10.9961 6 9.87677 6 8.49607C6 7.11538 7.11929 5.99609 8.5 5.99609Z" fill="white"/>
<path d="M20.5 15.5C20.5 12.4624 18.0376 10 15 10C11.9624 10 9.5 12.4624 9.5 15.5C9.5 18.5376 11.9624 21 15 21C18.0376 21 20.5 18.5376 20.5 15.5ZM15.5006 16L15.5011 18.5035C15.5011 18.7797 15.2773 19.0035 15.0011 19.0035C14.725 19.0035 14.5011 18.7797 14.5011 18.5035L14.5006 16H11.9961C11.72 16 11.4961 15.7762 11.4961 15.5C11.4961 15.2239 11.72 15 11.9961 15H14.5005L14.5 12.4993C14.5 12.2231 14.7239 11.9993 15 11.9993C15.2761 11.9993 15.5 12.2231 15.5 12.4993L15.5005 15H18.003C18.2792 15 18.503 15.2239 18.503 15.5C18.503 15.7762 18.2792 16 18.003 16H15.5006Z" fill="white"/>
</svg>
