<svg width="16" height="16" viewBox="0 0 16 16" fill="none" xmlns="http://www.w3.org/2000/svg">
<g clip-path="url(#clip0_29_2196)">
<mask id="mask0_29_2196" style="mask-type:luminance" maskUnits="userSpaceOnUse" x="0" y="0" width="16" height="16">
<path d="M16 0H0V16H16V0Z" fill="white"/>
</mask>
<g mask="url(#mask0_29_2196)">
<path d="M13.0068 3.89998L9.04676 1.61331C8.4001 1.23998 7.6001 1.23998 6.94676 1.61331L2.99344 3.89998C2.34678 4.27331 1.94678 4.96665 1.94678 5.71998V10.28C1.94678 11.0266 2.34678 11.72 2.99344 12.1L6.95343 14.3866C7.6001 14.76 8.4001 14.76 9.05343 14.3866L13.0134 12.1C13.6601 11.7266 14.0601 11.0333 14.0601 10.28V5.71998C14.0534 4.96665 13.6534 4.27998 13.0068 3.89998ZM8.0001 4.89331C8.8601 4.89331 9.55343 5.58665 9.55343 6.44665C9.55343 7.30665 8.8601 7.99998 8.0001 7.99998C7.1401 7.99998 6.44678 7.30665 6.44678 6.44665C6.44678 5.59331 7.1401 4.89331 8.0001 4.89331ZM9.78676 11.1066H6.21344C5.67344 11.1066 5.36011 10.5066 5.66011 10.06C6.11344 9.38665 6.99343 8.93331 8.0001 8.93331C9.00676 8.93331 9.88676 9.38665 10.3401 10.06C10.6401 10.5 10.3201 11.1066 9.78676 11.1066Z" fill="white"/>
</g>
</g>
<defs>
<clipPath id="clip0_29_2196">
<rect width="16" height="16" fill="white"/>
</clipPath>
</defs>
</svg>
