<svg width="20" height="22" viewBox="0 0 20 22" fill="none" xmlns="http://www.w3.org/2000/svg">
<path fill-rule="evenodd" clip-rule="evenodd" d="M6.94634 20.131L6.89153 20.0782L6.89059 20.0773C6.81297 20.0018 6.7341 19.9249 6.65418 19.8466C5.28264 18.5024 3.57246 16.7226 2.35023 14.6263C1.12338 12.5222 0.354062 10.0395 0.963002 7.32543C3.09157 -2.11568 16.9199 -2.10462 19.0374 7.33546C19.6641 10.1287 18.8312 12.6736 17.5405 14.8144C16.2547 16.9472 14.4749 18.745 13.0994 20.0778C12.0958 21.055 11.1261 21.7318 10.0298 21.7444C8.92854 21.7571 7.95486 21.0975 6.95063 20.1352L6.94634 20.131Z" fill="#2979FF" fill-opacity="0.25"/>
<path fill-rule="evenodd" clip-rule="evenodd" d="M6.75 8.5C6.75 6.70507 8.2051 5.25 10 5.25C11.7949 5.25 13.25 6.70507 13.25 8.5C13.25 10.2949 11.7949 11.75 10 11.75C8.2051 11.75 6.75 10.2949 6.75 8.5Z" fill="url(#paint0_linear_2686_8634)"/>
<defs>
<linearGradient id="paint0_linear_2686_8634" x1="8.16667" y1="5.75" x2="12.3333" y2="12.3333" gradientUnits="userSpaceOnUse">
<stop stop-color="#2979FF"/>
<stop offset="1" stop-color="#9DC1FF"/>
</linearGradient>
</defs>
</svg>
