<svg width="21" height="20" viewBox="0 0 21 20" fill="none" xmlns="http://www.w3.org/2000/svg">
<path d="M3.35742 0C1.70057 0 0.357422 1.34315 0.357422 3V15C0.357422 16.6569 1.70057 18 3.35742 18H9.5218C9.1341 17.3945 8.8441 16.7204 8.6739 16H3.35742C2.80514 16 2.35742 15.5523 2.35742 15V3C2.35742 2.44772 2.80514 2 3.35742 2H15.3574C15.9097 2 16.3574 2.44772 16.3574 3V8.142C17.075 8.2944 17.7488 8.5653 18.3574 8.9331V3C18.3574 1.34315 17.0143 0 15.3574 0H3.35742Z" fill="white"/>
<path d="M15 20C18.0376 20 20.5 17.5376 20.5 14.5C20.5 11.4624 18.0376 9 15 9C11.9624 9 9.5 11.4624 9.5 14.5C9.5 17.5376 11.9624 20 15 20ZM11.6911 16.7482C11.255 16.1075 11 15.3335 11 14.5C11 12.2909 12.7909 10.5 15 10.5C15.8335 10.5 16.6075 10.755 17.2482 11.1911L11.6911 16.7482ZM12.7518 17.8089L18.3089 12.2518C18.745 12.8925 19 13.6665 19 14.5C19 16.7091 17.2091 18.5 15 18.5C14.1665 18.5 13.3925 18.245 12.7518 17.8089Z" fill="white"/>
</svg>
