<svg width="21" height="20" viewBox="0 0 21 20" fill="none" xmlns="http://www.w3.org/2000/svg">
<path d="M11.8313 14.5832C11.4763 14.4467 11.0771 14.6239 10.9406 14.9796C10.8041 15.3347 10.9813 15.7339 11.3363 15.8704C11.4184 15.9013 11.5017 15.9166 11.5838 15.9166C11.8609 15.9166 12.1222 15.7483 12.2277 15.4739C12.3642 15.1188 12.1871 14.7204 11.8313 14.5832Z" fill="white"/>
<path d="M12.4996 12.8449C12.1439 12.7083 11.7454 12.8856 11.6089 13.2413C11.4717 13.5964 11.6489 13.9955 12.0047 14.132C12.086 14.1631 12.1695 14.1782 12.2522 14.1782C12.5293 14.1782 12.7899 14.01 12.8954 13.7356C13.0318 13.3805 12.8547 12.9813 12.4996 12.8449Z" fill="white"/>
<path d="M16.0555 13.1049L14.9938 12.6965C14.6386 12.5599 14.2395 12.7371 14.1028 13.0925C13.9661 13.448 14.1435 13.8468 14.4988 13.9835L15.5606 14.3919C15.642 14.4232 15.7256 14.438 15.8079 14.438C16.0849 14.438 16.3461 14.2698 16.4515 13.9958C16.5882 13.6404 16.4109 13.2416 16.0555 13.1049Z" fill="white"/>
<path d="M20.0579 12.2071C19.6625 12.0551 19.3501 11.7581 19.1781 11.3712C19.0061 10.9841 18.9951 10.5533 19.1471 10.158C19.2128 9.98726 19.2079 9.79756 19.1337 9.63049C19.0724 9.49278 18.9679 9.38046 18.8376 9.30827C19.064 9.18349 19.324 9.11231 19.6002 9.11231C19.981 9.11231 20.2897 8.80362 20.2897 8.42288V3.87271C20.2897 3.49197 19.981 3.18329 19.6002 3.18329C18.7259 3.18329 18.0146 2.47197 18.0146 1.59763C18.0146 1.21689 17.7059 0.908203 17.3252 0.908203H3.67479C3.29405 0.908203 2.98536 1.21689 2.98536 1.59763C2.98536 2.47197 2.27405 3.18329 1.39971 3.18329C1.01897 3.18329 0.710281 3.49197 0.710281 3.87271V8.42288C0.710281 8.67453 0.845567 8.89399 1.04691 9.0144L0.546173 10.3163C0.409405 10.6717 0.586779 11.0706 0.942132 11.2073C1.75809 11.5211 2.16671 12.4404 1.85284 13.2564C1.71614 13.6118 1.89351 14.0107 2.24887 14.1473L14.9894 19.0475C15.0708 19.0788 15.1545 19.0937 15.2367 19.0937C15.5137 19.0937 15.7749 18.9256 15.8803 18.6516C16.1143 18.0432 16.7093 17.6345 17.3608 17.6345C17.5548 17.6345 17.7462 17.6703 17.9295 17.7408C18.1002 17.8064 18.2899 17.8016 18.457 17.7273C18.6242 17.653 18.7549 17.5155 18.8204 17.3448L20.4538 13.098C20.5905 12.7427 20.4132 12.3438 20.0579 12.2071ZM2.08914 4.48113C3.17116 4.22248 4.02462 3.36894 4.28328 2.28699H16.7167C16.9754 3.36901 17.8289 4.22248 18.9109 4.48113V7.81426C17.8289 8.07292 16.9754 8.92638 16.7167 10.0084H4.28328C4.02462 8.92638 3.17116 8.07292 2.08914 7.81426V4.48113ZM17.7521 16.2817C17.6227 16.2644 17.4921 16.2557 17.3607 16.2557C16.3778 16.2557 15.4639 16.7532 14.9179 17.5428L3.3117 13.0788C3.45863 11.9761 2.96846 10.8731 2.05149 10.2434L2.36119 9.4381C2.74025 9.72813 2.98536 10.1848 2.98536 10.6978C2.98536 11.0786 3.29405 11.3873 3.67479 11.3873H12.3356C12.3129 11.4238 12.293 11.4627 12.2771 11.5044C12.1399 11.8594 12.3178 12.2586 12.6728 12.3951C12.7542 12.4262 12.8384 12.4413 12.9203 12.4413C13.1975 12.4413 13.4588 12.273 13.5635 11.9987C13.6446 11.7891 13.6151 11.5645 13.5048 11.3873H17.3252C17.469 11.3873 17.6024 11.3432 17.7129 11.2679C17.7552 11.4935 17.8225 11.716 17.9181 11.9311C18.1442 12.4397 18.5 12.8651 18.9483 13.1717L17.7521 16.2817Z" fill="white"/>
<path d="M12.7754 4.09956C13.1566 4.09956 13.4648 3.79074 13.4648 3.41013C13.4648 3.02959 13.1566 2.7207 12.7754 2.7207C12.3948 2.7207 12.0859 3.02959 12.0859 3.41013C12.0859 3.79074 12.3948 4.09956 12.7754 4.09956Z" fill="white"/>
<path d="M12.7754 5.96089C13.1566 5.96089 13.4648 5.65206 13.4648 5.27146C13.4648 4.89018 13.1566 4.58203 12.7754 4.58203C12.3948 4.58203 12.0859 4.89018 12.0859 5.27146C12.0859 5.65206 12.3948 5.96089 12.7754 5.96089Z" fill="white"/>
<path d="M12.7754 9.68354C13.1566 9.68354 13.4648 9.37472 13.4648 8.99412C13.4648 8.61358 13.1566 8.30469 12.7754 8.30469C12.3948 8.30469 12.0859 8.61358 12.0859 8.99412C12.0859 9.37472 12.3948 9.68354 12.7754 9.68354Z" fill="white"/>
<path d="M12.7754 7.82221C13.1566 7.82221 13.4648 7.51339 13.4648 7.13279C13.4648 6.75225 13.1566 6.44336 12.7754 6.44336C12.3948 6.44336 12.0859 6.75225 12.0859 7.13279C12.0859 7.51339 12.3948 7.82221 12.7754 7.82221Z" fill="white"/>
<path d="M15.0508 6.83784H16.1883C16.569 6.83784 16.8777 6.52915 16.8777 6.14841C16.8777 5.76767 16.569 5.45898 16.1883 5.45898H15.0508C14.67 5.45898 14.3613 5.76767 14.3613 6.14841C14.3613 6.52915 14.67 6.83784 15.0508 6.83784Z" fill="white"/>
</svg>
