<svg width="24" height="24" viewBox="0 0 24 24" fill="none" xmlns="http://www.w3.org/2000/svg">
<path d="M15.0006 15.0006V14.5006H14.5006V15.0006H15.0006ZM20.6466 21.3546C20.7405 21.4485 20.8679 21.5013 21.0006 21.5013C21.1334 21.5013 21.2607 21.4485 21.3546 21.3546C21.4485 21.2607 21.5013 21.1334 21.5013 21.0006C21.5013 20.8679 21.4485 20.7405 21.3546 20.6466L20.6466 21.3546ZM15.0006 9.00063H14.5006V9.50063H15.0006V9.00063ZM21.3546 3.35463C21.4485 3.26075 21.5013 3.13341 21.5013 3.00063C21.5013 2.86786 21.4485 2.74052 21.3546 2.64663C21.2607 2.55274 21.1334 2.5 21.0006 2.5C20.8679 2.5 20.7405 2.55274 20.6466 2.64663L21.3546 3.35463ZM9.00063 15.0006H9.50063V14.5006H9.00063V15.0006ZM2.64663 20.6466C2.55274 20.7405 2.5 20.8679 2.5 21.0006C2.5 21.1334 2.55274 21.2607 2.64663 21.3546C2.74052 21.4485 2.86786 21.5013 3.00063 21.5013C3.13341 21.5013 3.26075 21.4485 3.35463 21.3546L2.64663 20.6466ZM9.00063 9.00063V9.50063H9.50063V9.00063H9.00063ZM3.35463 2.64663C3.30814 2.60014 3.25295 2.56327 3.19221 2.53811C3.13148 2.51295 3.06638 2.5 3.00063 2.5C2.93489 2.5 2.86979 2.51295 2.80905 2.53811C2.74831 2.56327 2.69312 2.60014 2.64663 2.64663C2.60014 2.69312 2.56327 2.74831 2.53811 2.80905C2.51295 2.86979 2.5 2.93489 2.5 3.00063C2.5 3.06638 2.51295 3.13148 2.53811 3.19221C2.56327 3.25295 2.60014 3.30814 2.64663 3.35463L3.35463 2.64663ZM15.5006 20.0006V15.0006H14.5006V20.0006H15.5006ZM15.0006 15.5006H20.0006V14.5006H15.0006V15.5006ZM14.6466 15.3546L20.6466 21.3546L21.3546 20.6466L15.3546 14.6466L14.6466 15.3546ZM14.5006 4.00063V9.00063H15.5006V4.00063H14.5006ZM15.0006 9.50063H20.0006V8.50063H15.0006V9.50063ZM15.3546 9.35463L21.3546 3.35463L20.6466 2.64663L14.6466 8.64663L15.3546 9.35463ZM9.50063 20.0006V15.0006H8.50063V20.0006H9.50063ZM9.00063 14.5006H4.00063V15.5006H9.00063V14.5006ZM8.64663 14.6466L2.64663 20.6466L3.35463 21.3546L9.35463 15.3546L8.64663 14.6466ZM8.50063 4.00063V9.00063H9.50063V4.00063H8.50063ZM9.00063 8.50063H4.00063V9.50063H9.00063V8.50063ZM9.35463 8.64663L3.35463 2.64663L2.64663 3.35463L8.64663 9.35463L9.35463 8.64663Z" fill="white"/>
</svg>
