<svg width="12" height="12" viewBox="0 0 12 12" fill="none" xmlns="http://www.w3.org/2000/svg">
<path fill-rule="evenodd" clip-rule="evenodd" d="M6.53044 8.02994C6.38981 8.17039 6.19919 8.24928 6.00044 8.24928C5.80169 8.24928 5.61106 8.17039 5.47044 8.02994L2.64144 5.20194C2.50081 5.06125 2.42183 4.87045 2.42188 4.67152C2.42192 4.47259 2.50099 4.28183 2.64169 4.14119C2.78239 4.00056 2.97319 3.92158 3.17212 3.92163C3.37104 3.92168 3.56181 4.00075 3.70244 4.14144L6.00044 6.43944L8.29844 4.14144C8.43983 4.00476 8.62924 3.92907 8.82589 3.93069C9.02254 3.9323 9.21069 4.01109 9.34981 4.15008C9.48893 4.28907 9.5679 4.47715 9.5697 4.67379C9.5715 4.87044 9.49599 5.05993 9.35944 5.20144L6.53094 8.03045L6.53044 8.02994Z" fill="white"/>
</svg>
