<svg width="12" height="12" viewBox="0 0 12 12" fill="none" xmlns="http://www.w3.org/2000/svg">
<path d="M6.5 6.5C7.03043 6.5 7.53914 6.71071 7.91421 7.08579C8.28929 7.46086 8.5 7.96957 8.5 8.5V9.25C8.5 9.44891 8.42098 9.63968 8.28033 9.78033C8.13968 9.92098 7.94891 10 7.75 10H1.75C1.55109 10 1.36032 9.92098 1.21967 9.78033C1.07902 9.63968 1 9.44891 1 9.25V8.5C1 7.96957 1.21071 7.46086 1.58579 7.08579C1.96086 6.71071 2.46957 6.5 3 6.5H6.5ZM9.5 6.5C9.89782 6.5 10.2794 6.65804 10.5607 6.93934C10.842 7.22064 11 7.60218 11 8V8.75C11 8.94891 10.921 9.13968 10.7803 9.28033C10.6397 9.42098 10.4489 9.5 10.25 9.5H9.5V8.5C9.5 8.11189 9.40964 7.7291 9.23607 7.38197C9.0625 7.03483 8.81049 6.73287 8.5 6.5H9.5ZM4.75 1.5C5.34674 1.5 5.91903 1.73705 6.34099 2.15901C6.76295 2.58097 7 3.15326 7 3.75C7 4.34674 6.76295 4.91903 6.34099 5.34099C5.91903 5.76295 5.34674 6 4.75 6C4.15326 6 3.58097 5.76295 3.15901 5.34099C2.73705 4.91903 2.5 4.34674 2.5 3.75C2.5 3.15326 2.73705 2.58097 3.15901 2.15901C3.58097 1.73705 4.15326 1.5 4.75 1.5ZM9 3C9.39782 3 9.77936 3.15804 10.0607 3.43934C10.342 3.72064 10.5 4.10218 10.5 4.5C10.5 4.89782 10.342 5.27936 10.0607 5.56066C9.77936 5.84196 9.39782 6 9 6C8.60218 6 8.22064 5.84196 7.93934 5.56066C7.65804 5.27936 7.5 4.89782 7.5 4.5C7.5 4.10218 7.65804 3.72064 7.93934 3.43934C8.22064 3.15804 8.60218 3 9 3Z" fill="white"/>
</svg>
