<svg width="12" height="12" viewBox="0 0 12 12" fill="none" xmlns="http://www.w3.org/2000/svg">
<path fill-rule="evenodd" clip-rule="evenodd" d="M11.7959 5.02709C11.8685 4.98242 11.926 4.91713 11.9613 4.83957C11.9966 4.76201 12.0079 4.6757 11.9939 4.59166L11.4282 1.21452C11.4188 1.15842 11.3983 1.10476 11.368 1.05665C11.3376 1.00855 11.298 0.96697 11.2514 0.93434C11.2048 0.90171 11.1522 0.878681 11.0966 0.866596C11.041 0.854511 10.9836 0.853611 10.9276 0.863951L7.72191 1.45966C7.63981 1.47498 7.56397 1.51394 7.50372 1.57177C7.44346 1.6296 7.40142 1.70378 7.38275 1.78518C7.36409 1.86659 7.36961 1.95167 7.39865 2.02998C7.42769 2.10828 7.47897 2.1764 7.54619 2.22595L8.96219 3.26995L6.52277 6.75424L4.29591 5.19252C4.1796 5.11111 4.03574 5.07919 3.89591 5.10378C3.75609 5.12837 3.63175 5.20746 3.55019 5.32367L0.0959089 10.254C0.0555555 10.3116 0.0269487 10.3766 0.0117217 10.4453C-0.00350526 10.514 -0.0050542 10.585 0.00716334 10.6543C0.0193809 10.7236 0.0451256 10.7898 0.0829277 10.8491C0.12073 10.9084 0.169849 10.9597 0.22748 11.0001C0.343872 11.0816 0.487872 11.1135 0.627801 11.0888C0.697087 11.0766 0.763288 11.0509 0.822624 11.0131C0.88196 10.9753 0.93327 10.9262 0.973623 10.8685L4.11934 6.37709L6.34619 7.93881C6.4626 8.02013 6.60654 8.05191 6.74637 8.02716C6.88621 8.00241 7.01049 7.92315 7.09191 7.80681L9.82362 3.90681L11.3159 5.00738C11.3847 5.05806 11.4671 5.08701 11.5525 5.09053C11.6378 5.09404 11.7223 5.07195 11.7951 5.02709" fill="white"/>
</svg>
