<svg width="12" height="12" viewBox="0 0 12 12" fill="none" xmlns="http://www.w3.org/2000/svg">
<path d="M11.4885 4.25152L10.4543 3.21722C10.3708 3.1349 10.2595 3.08683 10.1424 3.08249C10.0253 3.07815 9.91075 3.11786 9.82144 3.19378C9.68356 3.31114 9.50662 3.37242 9.32569 3.36548C9.14476 3.35853 8.97304 3.28387 8.84456 3.15628C8.71704 3.02782 8.64242 2.85615 8.63548 2.67527C8.62853 2.49439 8.68977 2.31751 8.80706 2.17964C8.88299 2.09033 8.9227 1.97582 8.91836 1.85868C8.91402 1.74154 8.86595 1.63028 8.78362 1.54683L7.74839 0.51136C7.6609 0.424041 7.54235 0.375 7.41874 0.375C7.29514 0.375 7.17658 0.424041 7.08909 0.51136L5.44027 2.15995C5.33849 2.26213 5.26172 2.38647 5.21597 2.52323C5.20706 2.54953 5.19222 2.57342 5.17259 2.59306C5.15296 2.61269 5.12906 2.62753 5.10277 2.63644C4.96594 2.68218 4.84159 2.75904 4.73948 2.86097L0.51136 7.08909C0.424041 7.17658 0.375 7.29514 0.375 7.41874C0.375 7.54235 0.424041 7.6609 0.51136 7.74839L1.54683 8.78269C1.63028 8.86501 1.74154 8.91308 1.85868 8.91742C1.97582 8.92176 2.09033 8.88205 2.17964 8.80613C2.31719 8.68782 2.49437 8.62586 2.67568 8.63266C2.85698 8.63947 3.02901 8.71454 3.15731 8.84284C3.2856 8.97113 3.36067 9.14316 3.36748 9.32447C3.37428 9.50577 3.31233 9.68295 3.19402 9.8205C3.11809 9.90981 3.07838 10.0243 3.08272 10.1415C3.08706 10.2586 3.13513 10.3699 3.21745 10.4533L4.25175 11.4876C4.33924 11.5749 4.45779 11.624 4.5814 11.624C4.705 11.624 4.82356 11.5749 4.91105 11.4876L9.13917 7.25948C9.24107 7.15745 9.31793 7.03318 9.3637 6.89644C9.37257 6.87005 9.38742 6.84608 9.4071 6.8264C9.42679 6.80672 9.45076 6.79187 9.47714 6.783C9.61385 6.73726 9.73811 6.66049 9.84019 6.5587L11.4888 4.90988C11.5758 4.8224 11.6246 4.70402 11.6246 4.58065C11.6245 4.45727 11.5756 4.33893 11.4885 4.25152ZM6.13613 3.55659C6.1013 3.59143 6.05996 3.61906 6.01446 3.63791C5.96895 3.65676 5.92018 3.66646 5.87093 3.66646C5.82168 3.66646 5.77291 3.65676 5.7274 3.63791C5.6819 3.61906 5.64056 3.59143 5.60573 3.55659L5.33597 3.28683C5.26735 3.21615 5.22931 3.12131 5.23005 3.0228C5.23079 2.9243 5.27026 2.83004 5.33993 2.7604C5.4096 2.69076 5.50388 2.65133 5.60238 2.65064C5.70089 2.64994 5.79571 2.68803 5.86636 2.75667L6.13613 3.0262C6.17096 3.06103 6.19859 3.10237 6.21744 3.14787C6.23629 3.19338 6.24599 3.24215 6.24599 3.2914C6.24599 3.34065 6.23629 3.38942 6.21744 3.43492C6.19859 3.48043 6.17096 3.52177 6.13613 3.55659ZM7.16738 4.58784C7.09706 4.65812 7.00171 4.69759 6.9023 4.69759C6.80288 4.69759 6.70754 4.65812 6.63722 4.58784L6.37941 4.33003C6.30907 4.2597 6.26956 4.1643 6.26956 4.06484C6.26956 3.96537 6.30907 3.86998 6.37941 3.79964C6.44974 3.72931 6.54513 3.68979 6.6446 3.68979C6.74407 3.68979 6.83946 3.72931 6.9098 3.79964L7.16761 4.05745C7.20256 4.09227 7.2303 4.13365 7.24923 4.17921C7.26817 4.22477 7.27792 4.27362 7.27794 4.32295C7.27797 4.37229 7.26825 4.42114 7.24936 4.46672C7.23047 4.5123 7.20276 4.5537 7.16784 4.58855L7.16738 4.58784ZM8.19863 5.61909C8.1638 5.65392 8.12246 5.68155 8.07696 5.70041C8.03145 5.71926 7.98268 5.72896 7.93343 5.72896C7.88418 5.72896 7.83541 5.71926 7.7899 5.70041C7.7444 5.68155 7.70306 5.65392 7.66823 5.61909L7.41042 5.36128C7.34181 5.2906 7.30376 5.19576 7.3045 5.09726C7.30524 4.99875 7.34472 4.9045 7.41439 4.83486C7.48406 4.76522 7.57833 4.72579 7.67684 4.72509C7.77534 4.72439 7.87016 4.76248 7.94081 4.83113L8.19863 5.08894C8.23367 5.1237 8.26151 5.16504 8.28055 5.21059C8.29958 5.25614 8.30944 5.30499 8.30955 5.35436C8.30966 5.40372 8.30002 5.45262 8.28118 5.49825C8.26235 5.54389 8.23469 5.58535 8.1998 5.62027L8.19863 5.61909ZM9.23995 6.663C9.20513 6.69783 9.16379 6.72546 9.11828 6.74431C9.07278 6.76316 9.02401 6.77287 8.97476 6.77287C8.9255 6.77287 8.87673 6.76316 8.83123 6.74431C8.78573 6.72546 8.74439 6.69783 8.70956 6.663L8.44144 6.39347C8.40588 6.35875 8.37757 6.31731 8.35817 6.27155C8.33876 6.22579 8.32865 6.17664 8.32841 6.12694C8.32817 6.07724 8.33782 6.02799 8.35678 5.98205C8.37575 5.93611 8.40366 5.8944 8.43889 5.85934C8.47412 5.82428 8.51596 5.79657 8.56199 5.77783C8.60802 5.75909 8.65732 5.74968 8.70702 5.75016C8.75672 5.75064 8.80583 5.761 8.85149 5.78062C8.89715 5.80025 8.93845 5.82875 8.973 5.86448L9.24136 6.13378C9.27618 6.16862 9.30379 6.20998 9.32262 6.25549C9.34145 6.301 9.35113 6.34977 9.35111 6.39903C9.35109 6.44828 9.34136 6.49704 9.32249 6.54254C9.30362 6.58803 9.27597 6.62936 9.24113 6.66417L9.23995 6.663Z" fill="white"/>
</svg>
