<svg width="20" height="20" viewBox="0 0 20 20" fill="none" xmlns="http://www.w3.org/2000/svg">
<g clip-path="url(#clip0_1445_15740)">
<path d="M9.5013 19.1673C4.87047 18.1382 1.16797 13.769 1.16797 9.16732V4.16732L9.5013 0.833984L17.8346 4.16732V9.16732C17.8346 13.7707 14.1321 18.1382 9.5013 19.1673ZM2.83464 5.00065V9.16732C2.88226 11.0941 3.55994 12.9522 4.76395 14.4572C5.96796 15.9622 7.63198 17.0312 9.5013 17.5007C11.3706 17.0312 13.0346 15.9622 14.2387 14.4572C15.4427 12.9522 16.1203 11.0941 16.168 9.16732V5.00065L9.5013 2.50065L2.83464 5.00065Z" fill="#D9D9D9"/>
<path d="M9.5013 9.16667C10.6519 9.16667 11.5846 8.23393 11.5846 7.08333C11.5846 5.93274 10.6519 5 9.5013 5C8.35071 5 7.41797 5.93274 7.41797 7.08333C7.41797 8.23393 8.35071 9.16667 9.5013 9.16667Z" fill="#D9D9D9"/>
<path d="M5.33203 12.5C5.74264 13.2486 6.34486 13.8746 7.07701 14.3139C7.80916 14.7532 8.64493 14.99 9.4987 15C10.3525 14.99 11.1882 14.7532 11.9204 14.3139C12.6525 13.8746 13.2548 13.2486 13.6654 12.5C13.6445 10.92 10.8804 10 9.4987 10C8.10953 10 5.35286 10.92 5.33203 12.5Z" fill="#D9D9D9"/>
</g>
<defs>
<clipPath id="clip0_1445_15740">
<rect width="20" height="20" fill="white"/>
</clipPath>
</defs>
</svg>
