<svg width="22" height="22" viewBox="0 0 22 22" fill="none" xmlns="http://www.w3.org/2000/svg">
<path d="M11.927 1.91449C13.3725 0.00928822 15.3821 0 15.3821 0C15.3821 0 15.681 1.79122 14.245 3.51673C12.7117 5.35919 10.9688 5.05771 10.9688 5.05771C10.9688 5.05771 10.6416 3.60867 11.927 1.91449ZM11.1527 6.31245C11.8963 6.31245 13.2765 5.29024 15.0729 5.29024C18.1652 5.29024 19.3817 7.49061 19.3817 7.49061C19.3817 7.49061 17.0025 8.70707 17.0025 11.6588C17.0025 14.9885 19.9664 16.1361 19.9664 16.1361C19.9664 16.1361 17.8945 21.9677 15.0959 21.9677C13.8106 21.9677 12.8113 21.1015 11.457 21.1015C10.0768 21.1015 8.70724 22 7.81521 22C5.25972 22.0001 2.03125 16.4682 2.03125 12.0215C2.03125 7.64655 4.76394 5.35153 7.32709 5.35153C8.99337 5.35153 10.2864 6.31245 11.1527 6.31245Z" fill="#999999"/>
</svg>
