<svg width="20" height="20" viewBox="0 0 20 20" fill="none" xmlns="http://www.w3.org/2000/svg">
<path fill-rule="evenodd" clip-rule="evenodd" d="M10 0C7.213 0 4.737 1.257 2.974 2.813C2.09 3.594 1.36 4.47 0.846 5.344C0.34 6.201 0 7.13 0 8C0 8.87 0.34 9.799 0.846 10.656C1.36 11.529 2.089 12.406 2.974 13.187C4.737 14.743 7.214 16 10 16C12.787 16 15.263 14.743 17.026 13.187C17.911 12.406 18.64 11.529 19.154 10.656C19.66 9.799 20 8.87 20 8C20 7.13 19.66 6.201 19.154 5.344C18.64 4.471 17.911 3.594 17.026 2.813C15.263 1.257 12.786 0 10 0ZM12 8C12.36 8 12.697 7.905 12.989 7.739C13.0423 8.3522 12.9057 8.96695 12.5977 9.49986C12.2897 10.0328 11.8252 10.4581 11.2673 10.718C10.7094 10.978 10.085 11.0601 9.47889 10.9531C8.87275 10.8461 8.31418 10.5553 7.87894 10.1201C7.44371 9.68482 7.15289 9.12625 7.04592 8.52011C6.93895 7.91396 7.02101 7.28959 7.28097 6.73167C7.54094 6.17375 7.96622 5.7093 8.49914 5.40131C9.03205 5.09332 9.6468 4.95671 10.26 5.01C10.0866 5.31436 9.9962 5.65892 9.99781 6.0092C9.99942 6.35948 10.093 6.70319 10.2692 7.00595C10.4454 7.3087 10.698 7.55987 11.0017 7.73432C11.3055 7.90877 11.6497 8.00039 12 8Z" fill="#93989E"/>
</svg>
