<svg width="22" height="22" viewBox="0 0 22 22" fill="none" xmlns="http://www.w3.org/2000/svg">
<path d="M20.6239 11.2139C20.6239 10.4225 20.5584 9.84497 20.4165 9.24609H11.1953V12.818H16.608C16.4989 13.7057 15.9096 15.0425 14.6 15.9408L14.5817 16.0604L17.4973 18.2739L17.6993 18.2936C19.5544 16.6146 20.6239 14.1441 20.6239 11.2139Z" fill="#4285F4"/>
<path d="M11.1957 20.6257C13.8474 20.6257 16.0736 19.7702 17.6996 18.2943L14.6004 15.9415C13.771 16.5083 12.6579 16.904 11.1957 16.904C8.59851 16.904 6.39414 15.225 5.60836 12.9043L5.49318 12.9139L2.46152 15.2132L2.42188 15.3212C4.03694 18.4653 7.35441 20.6257 11.1957 20.6257Z" fill="#34A853"/>
<path d="M5.60908 12.9039C5.40174 12.305 5.28175 11.6633 5.28175 11.0003C5.28175 10.3372 5.40174 9.69552 5.59817 9.09663L5.59268 8.96903L2.52302 6.63281L2.42259 6.67963C1.75695 7.9844 1.375 9.44953 1.375 11.0003C1.375 12.5509 1.75695 14.016 2.42259 15.3208L5.60908 12.9039Z" fill="#FBBC05"/>
<path d="M11.1957 5.09664C13.04 5.09664 14.284 5.87733 14.9934 6.52974L17.7652 3.8775C16.0628 2.32681 13.8475 1.375 11.1957 1.375C7.35441 1.375 4.03694 3.53526 2.42188 6.6794L5.59747 9.09638C6.39417 6.77569 8.59851 5.09664 11.1957 5.09664Z" fill="#EB4335"/>
</svg>
