<svg width="12" height="15" viewBox="0 0 12 15" fill="none" xmlns="http://www.w3.org/2000/svg">
<path fill-rule="evenodd" clip-rule="evenodd" d="M2.99984 4.16658V3.83325C2.99984 3.0376 3.31591 2.27454 3.87852 1.71193C4.44113 1.14932 5.20419 0.833252 5.99984 0.833252C6.79549 0.833252 7.55855 1.14932 8.12116 1.71193C8.68377 2.27454 8.99984 3.0376 8.99984 3.83325V4.16658H10.6665C11.0345 4.16658 11.3332 4.46592 11.3332 4.83792V12.8386C11.3332 13.5719 10.7365 14.1666 10.0038 14.1666H1.99584C1.64351 14.1666 1.30559 14.0267 1.05633 13.7777C0.807068 13.5287 0.666857 13.1909 0.666504 12.8386V4.83859C0.666504 4.46659 0.963171 4.16658 1.33317 4.16658H2.99984ZM3.99984 4.16658H7.99984V3.83325C7.99984 3.30282 7.78912 2.79411 7.41405 2.41904C7.03898 2.04397 6.53027 1.83325 5.99984 1.83325C5.4694 1.83325 4.9607 2.04397 4.58562 2.41904C4.21055 2.79411 3.99984 3.30282 3.99984 3.83325V4.16658ZM2.99984 4.16658V6.83325H3.99984V4.16658H2.99984ZM7.99984 4.16658V6.83325H8.99984V4.16658H7.99984Z" fill="#282828"/>
</svg>
