<svg width="26" height="27" viewBox="0 0 26 27" fill="none" xmlns="http://www.w3.org/2000/svg">
<g clip-path="url(#clip0_899_12762)">
<path d="M23.0207 13.5H9.63609M4.91167 13.5H2.979M4.91167 13.5C4.91167 12.8736 5.16049 12.2729 5.60339 11.83C6.04628 11.3871 6.64698 11.1383 7.27334 11.1383C7.89969 11.1383 8.50039 11.3871 8.94329 11.83C9.38619 12.2729 9.635 12.8736 9.635 13.5C9.635 14.1263 9.38619 14.727 8.94329 15.1699C8.50039 15.6128 7.89969 15.8616 7.27334 15.8616C6.64698 15.8616 6.04628 15.6128 5.60339 15.1699C5.16049 14.727 4.91167 14.1263 4.91167 13.5ZM23.0207 20.6575H16.7937M16.7937 20.6575C16.7937 21.284 16.5443 21.8854 16.1013 22.3284C15.6583 22.7714 15.0574 23.0203 14.4309 23.0203C13.8046 23.0203 13.2039 22.7704 12.761 22.3275C12.3181 21.8846 12.0693 21.2839 12.0693 20.6575M16.7937 20.6575C16.7937 20.031 16.5443 19.4308 16.1013 18.9878C15.6583 18.5448 15.0574 18.2959 14.4309 18.2959C13.8046 18.2959 13.2039 18.5447 12.761 18.9876C12.3181 19.4305 12.0693 20.0312 12.0693 20.6575M12.0693 20.6575H2.979M23.0207 6.34238H19.6569M14.9325 6.34238H2.979M14.9325 6.34238C14.9325 5.71603 15.1813 5.11533 15.6242 4.67243C16.0671 4.22953 16.6678 3.98071 17.2942 3.98071C17.6043 3.98071 17.9114 4.0418 18.1979 4.16048C18.4845 4.27917 18.7448 4.45313 18.9641 4.67243C19.1834 4.89173 19.3574 5.15208 19.4761 5.43861C19.5948 5.72514 19.6558 6.03224 19.6558 6.34238C19.6558 6.65252 19.5948 6.95962 19.4761 7.24615C19.3574 7.53268 19.1834 7.79303 18.9641 8.01233C18.7448 8.23163 18.4845 8.40559 18.1979 8.52427C17.9114 8.64296 17.6043 8.70405 17.2942 8.70405C16.6678 8.70405 16.0671 8.45523 15.6242 8.01233C15.1813 7.56943 14.9325 6.96873 14.9325 6.34238Z" stroke="white" stroke-width="1.5" stroke-miterlimit="10" stroke-linecap="round"/>
</g>
<defs>
<clipPath id="clip0_899_12762">
<rect width="26" height="26" fill="white" transform="translate(0 0.5)"/>
</clipPath>
</defs>
</svg>
