<svg width="26" height="26" viewBox="0 0 26 26" fill="none" xmlns="http://www.w3.org/2000/svg">
<path d="M12.9276 12.4943C14.8776 12.4943 16.3942 10.9054 16.3942 8.95544C16.3942 7.00544 14.8053 5.48877 12.8553 5.48877C10.9053 5.48877 9.38867 7.07766 9.38867 8.95544C9.38867 10.9054 10.9776 12.4943 12.9276 12.4943ZM12.8553 6.93321C12.9276 6.93321 12.9276 6.93321 12.8553 6.93321C14.0109 6.93321 14.9498 7.8721 14.9498 9.02766C14.9498 10.1832 14.0109 11.0499 12.8553 11.0499C11.6998 11.0499 10.8331 10.111 10.8331 9.02766C10.8331 7.8721 11.772 6.93321 12.8553 6.93321Z" fill="#131313"/>
<path d="M23.6168 12.061C22.2446 10.8332 20.4391 10.1832 18.5613 10.2554H17.9835C17.8391 10.8332 17.6224 11.3388 17.3335 11.7721C17.7668 11.6999 18.1279 11.6999 18.5613 11.6999C19.9335 11.6277 21.3057 12.061 22.3891 12.8554V18.0554H23.8335V12.2777L23.6168 12.061Z" fill="#131313"/>
<path d="M16.8998 5.63325C17.2609 4.76658 18.272 4.33325 19.2109 4.69436C20.0776 5.05547 20.5109 6.06658 20.1498 7.00547C19.8609 7.65547 19.2109 8.0888 18.5609 8.0888C18.4165 8.0888 18.1998 8.0888 18.0553 8.01658C18.1276 8.37769 18.1276 8.7388 18.1276 9.02769V9.46102C18.272 9.46102 18.4165 9.53325 18.5609 9.53325C20.3665 9.53325 21.8109 8.0888 21.8109 6.35547C21.8109 4.54991 20.3664 3.10547 18.6331 3.10547C17.4776 3.10547 16.4664 3.68325 15.8887 4.69436C16.2498 4.91102 16.6109 5.19991 16.8998 5.63325Z" fill="#131313"/>
<path d="M8.6665 11.8444C8.37761 11.411 8.16095 10.9055 8.0165 10.3277H7.43873C5.56095 10.2555 3.75539 10.9055 2.38317 12.061L2.1665 12.2777V18.0555H3.61095V12.8555C4.7665 12.061 6.0665 11.6277 7.43873 11.6999C7.87206 11.6999 8.30539 11.7722 8.6665 11.8444Z" fill="#131313"/>
<path d="M7.43894 9.4612C7.58338 9.4612 7.72783 9.4612 7.87227 9.38898V8.95564C7.87227 8.59453 7.87227 8.23342 7.94449 7.94453C7.80005 8.01675 7.58338 8.01675 7.43894 8.01675C6.50005 8.01675 5.70561 7.22231 5.70561 6.28342C5.70561 5.34453 6.50005 4.55009 7.43894 4.55009C8.16116 4.55009 8.81116 4.98342 9.10005 5.63342C9.38894 5.27231 9.82227 4.9112 10.1834 4.62231C9.24449 3.10564 7.29449 2.60009 5.77783 3.53898C4.26116 4.47787 3.75561 6.42787 4.69449 7.94453C5.27227 8.88342 6.28338 9.4612 7.43894 9.4612Z" fill="#131313"/>
<path d="M18.8499 16.3944L18.7055 16.1777C17.2611 14.5888 15.2388 13.6499 13.0722 13.7221C10.9055 13.6499 8.81106 14.5888 7.36661 16.1777L7.22217 16.3944V21.8833C7.22217 22.5333 7.72772 23.111 8.44995 23.111H17.6944C18.3444 23.111 18.9222 22.5333 18.9222 21.8833V16.3944H18.8499ZM17.4055 21.6666H8.66661V16.8999C9.82217 15.7444 11.4111 15.1666 13.0722 15.1666C14.6611 15.0944 16.2499 15.7444 17.4055 16.8999V21.6666Z" fill="#131313"/>
</svg>
