<svg width="26" height="26" viewBox="0 0 26 26" fill="none" xmlns="http://www.w3.org/2000/svg">
<path d="M23.8332 13.2211V14.8688C23.8332 19.0938 23.8332 21.2074 22.5635 22.5204C21.2938 23.8334 19.2518 23.8334 15.1665 23.8334H10.8332C6.74792 23.8334 4.70475 23.8334 3.43617 22.5204C2.16759 21.2074 2.1665 19.0949 2.1665 14.8688V13.2211C2.1665 10.7413 2.1665 9.502 2.72984 8.475C3.291 7.44691 4.31909 6.80991 6.37417 5.53375L8.54084 4.18933C10.7129 2.84058 11.7995 2.16675 12.9998 2.16675C14.2002 2.16675 15.2857 2.84058 17.4588 4.18933L19.6255 5.53375C21.6806 6.80991 22.7087 7.44691 23.2709 8.475" fill="white"/>
<path d="M9.75049 17.3335C10.6713 18.016 11.7926 18.4168 13.0005 18.4168C14.2084 18.4168 15.3297 18.016 16.2505 17.3335" stroke="#131313" stroke-linecap="round"/>
</svg>
