<svg width="26" height="19" viewBox="0 0 26 19" fill="none" xmlns="http://www.w3.org/2000/svg">
<path d="M5.51318 0.675012C5.07095 0.261547 4.33883 0.226194 3.87431 0.659022C1.48149 2.88865 0 5.97444 0 9.38306C0 12.9243 1.59898 16.1169 4.15758 18.3633C4.62497 18.7736 5.3374 18.7301 5.77016 18.3255C6.27481 17.8538 6.21341 17.1034 5.72687 16.6685C3.6734 14.8333 2.39516 12.248 2.39516 9.38306C2.39516 6.62636 3.57854 4.12883 5.49714 2.30905C5.96054 1.86953 6.00749 1.13718 5.51318 0.675012Z" fill="#D40000"/>
<path d="M8.32646 3.30483C7.89664 2.90296 7.1784 2.85276 6.71587 3.28066C5.03455 4.83617 3.99219 6.99601 3.99219 9.38278C3.99219 11.9081 5.15895 14.179 7.01471 15.7493C7.48051 16.1434 8.16902 16.0826 8.5848 15.6939C9.10879 15.204 9.01014 14.433 8.51908 14.0002C7.2061 12.8427 6.38735 11.2024 6.38735 9.38278C6.38735 7.66494 7.11698 6.10721 8.30316 4.96442C8.76031 4.52401 8.83452 3.77985 8.32646 3.30483Z" fill="#D40000"/>
<path d="M17.2224 3.30483C17.6522 2.90296 18.3704 2.85276 18.833 3.28066C20.5143 4.83617 21.5567 6.99601 21.5567 9.38278C21.5567 11.9081 20.3899 14.179 18.5341 15.7493C18.0683 16.1434 17.3798 16.0826 16.964 15.6939C16.4401 15.204 16.5386 14.433 17.0298 14.0002C18.3428 12.8427 19.1615 11.2024 19.1615 9.38278C19.1615 7.66494 18.4319 6.10721 17.2457 4.96442C16.7885 4.52401 16.7143 3.77985 17.2224 3.30483Z" fill="#D40000"/>
<path d="M20.0353 0.675012C20.4776 0.261547 21.2097 0.226194 21.6742 0.659022C24.067 2.88865 25.5485 5.97444 25.5485 9.38306C25.5485 12.9243 23.9495 16.1169 21.391 18.3633C20.9236 18.7736 20.2111 18.7301 19.7784 18.3255C19.2736 17.8538 19.3351 17.1034 19.8216 16.6685C21.8751 14.8333 23.1533 12.248 23.1533 9.38306C23.1533 6.62636 21.9699 4.12883 20.0513 2.30905C19.5879 1.86953 19.5409 1.13718 20.0353 0.675012Z" fill="#D40000"/>
<path d="M12.7741 7.14307C11.4513 7.14307 10.3789 8.14567 10.3789 9.38245C10.3789 10.6192 11.4513 11.6218 12.7741 11.6218C14.0968 11.6218 15.1692 10.6192 15.1692 9.38245C15.1692 8.14567 14.0968 7.14307 12.7741 7.14307Z" fill="#D40000"/>
</svg>
