<svg width="11" height="9" viewBox="0 0 11 9" fill="none" xmlns="http://www.w3.org/2000/svg">
<g clip-path="url(#clip0_950_29857)">
<path d="M2.37372 0.160142C2.18332 -0.0431863 1.8681 -0.0605716 1.6681 0.152279C0.637863 1.24873 0 2.76623 0 4.44247C0 6.18392 0.688449 7.75394 1.79006 8.85865C1.9913 9.0604 2.29804 9.03903 2.48437 8.84007C2.70165 8.60808 2.67521 8.23908 2.46573 8.02522C1.5816 7.1227 1.03125 5.85134 1.03125 4.44247C1.03125 3.08682 1.54076 1.85862 2.36682 0.963706C2.56634 0.747566 2.58655 0.387419 2.37372 0.160142Z" fill="#D40000"/>
<path d="M3.58489 1.45224C3.39983 1.25461 3.09059 1.22992 2.89145 1.44035C2.16754 2.2053 1.71875 3.26744 1.71875 4.44117C1.71875 5.68305 2.22111 6.79979 3.02011 7.57199C3.22066 7.76582 3.51711 7.73593 3.69612 7.54476C3.92173 7.30388 3.87925 6.92468 3.66783 6.71184C3.10252 6.14264 2.75 5.33601 2.75 4.44117C2.75 3.5964 3.06415 2.83036 3.57486 2.26837C3.77169 2.05179 3.80364 1.68584 3.58489 1.45224Z" fill="#D40000"/>
<path d="M7.41438 1.45224C7.59945 1.25461 7.90869 1.22992 8.10786 1.44035C8.83173 2.2053 9.28053 3.26744 9.28053 4.44117C9.28053 5.68305 8.77817 6.79979 7.97916 7.57199C7.77861 7.76582 7.48216 7.73593 7.30314 7.54476C7.07757 7.30388 7.11999 6.92468 7.33146 6.71184C7.8968 6.14264 8.24928 5.33601 8.24928 4.44117C8.24928 3.5964 7.93516 2.83036 7.42441 2.26837C7.22758 2.05179 7.19561 1.68584 7.41438 1.45224Z" fill="#D40000"/>
<path d="M8.62508 0.160142C8.81552 -0.0431863 9.13074 -0.0605716 9.33073 0.152279C10.3609 1.24873 10.9988 2.76623 10.9988 4.44247C10.9988 6.18392 10.3103 7.75394 9.20877 8.85865C9.00754 9.0604 8.70077 9.03903 8.51446 8.84007C8.29714 8.60808 8.32361 8.23908 8.53309 8.02522C9.41722 7.1227 9.96756 5.85134 9.96756 4.44247C9.96756 3.08682 9.45805 1.85862 8.63195 0.963706C8.43244 0.747566 8.41223 0.387419 8.62508 0.160142Z" fill="#D40000"/>
<path d="M5.5 3.33984C4.93045 3.33984 4.46875 3.83289 4.46875 4.4411C4.46875 5.04929 4.93045 5.54235 5.5 5.54235C6.06953 5.54235 6.53125 5.04929 6.53125 4.4411C6.53125 3.83289 6.06953 3.33984 5.5 3.33984Z" fill="#D40000"/>
</g>
<defs>
<clipPath id="clip0_950_29857">
<rect width="11" height="9" fill="white"/>
</clipPath>
</defs>
</svg>
