<svg width="26" height="26" viewBox="0 0 26 26" fill="none" xmlns="http://www.w3.org/2000/svg">
<path d="M20.5831 4.77197H10.4355C9.78908 4.77197 9.16909 5.02878 8.71197 5.4859C8.25485 5.94302 7.99805 6.56301 7.99805 7.20947V14.3833C7.99805 15.0298 8.25485 15.6498 8.71197 16.1069C9.16909 16.564 9.78908 16.8208 10.4355 16.8208H13.841L19.0155 19.1635V16.8213H20.5831C21.2296 16.8213 21.8496 16.5645 22.3067 16.1074C22.7638 15.6503 23.0206 15.0303 23.0206 14.3838V7.20947C23.0206 6.56301 22.7638 5.94302 22.3067 5.4859C21.8496 5.02878 21.2296 4.77197 20.5831 4.77197Z" stroke="#131313" stroke-linecap="round" stroke-linejoin="round"/>
<path d="M13.0919 16.8815V17.9075C13.0919 18.8608 12.3228 19.63 11.3748 19.63H9.16484L5.72525 21.2279V19.63H4.69609C3.74817 19.63 2.979 18.8608 2.979 17.9075V13.1841C2.979 12.2362 3.74817 11.467 4.69609 11.467H7.90275" stroke="#131313" stroke-linecap="round" stroke-linejoin="round"/>
</svg>
