<svg width="16" height="14" viewBox="0 0 16 14" fill="none" xmlns="http://www.w3.org/2000/svg">
<path fill-rule="evenodd" clip-rule="evenodd" d="M6.54347 0.884372C7.89269 0.587953 9.30199 0.74505 10.5528 1.3313C11.7555 1.89499 12.7471 2.82517 13.3864 3.98633L11.3907 3.63442C11.1899 3.59902 10.9985 3.73307 10.963 3.93382C10.9277 4.13457 11.0617 4.32601 11.2624 4.36141L14.1704 4.87416C14.3712 4.90956 14.5626 4.77551 14.598 4.57476L15.1108 1.6668C15.1461 1.46605 15.0121 1.27461 14.8114 1.2392C14.6106 1.20381 14.4192 1.33786 14.3838 1.53861L14.0193 3.60542C13.3043 2.31923 12.2017 1.28886 10.8661 0.662866C9.46809 0.0076493 7.89298 -0.167926 6.38505 0.163359C4.87711 0.494651 3.52063 1.3143 2.52604 2.49515C1.53144 3.67601 0.954307 5.15207 0.884178 6.69441C0.874913 6.89801 1.03249 7.0706 1.23613 7.0799C1.43977 7.08913 1.61236 6.93152 1.62162 6.72793C1.6232 6.69316 1.62507 6.65839 1.62723 6.62369C1.63222 6.60428 1.63551 6.58412 1.63693 6.56353C1.63831 6.54352 1.63789 6.52366 1.63579 6.50432C1.74139 5.20569 2.24893 3.97005 3.09065 2.97071C3.98056 1.91415 5.19424 1.18079 6.54347 0.884372ZM1.07239 8.61094C1.09761 8.71746 1.12533 8.82347 1.15557 8.92889C1.18581 9.0343 1.21848 9.1389 1.25355 9.24262C1.31886 9.43574 1.5345 9.52787 1.72389 9.45249C1.9133 9.37712 2.00462 9.16275 1.94051 8.96926C1.91377 8.88858 1.88865 8.80723 1.86517 8.72536C1.8417 8.64349 1.8199 8.56126 1.79982 8.47865C1.75164 8.28059 1.56058 8.1472 1.36002 8.18367C1.15945 8.22013 1.02544 8.41258 1.07239 8.61094ZM14.2789 9.90258C14.3634 9.71707 14.2692 9.50232 14.0795 9.42769C13.8898 9.35306 13.6765 9.44688 13.5909 9.63188C13.5552 9.70902 13.5178 9.7855 13.4789 9.86124C13.4401 9.93698 13.3996 10.0119 13.3578 10.0859C13.2574 10.2633 13.3054 10.4913 13.4767 10.602C13.6479 10.7126 13.8772 10.664 13.9787 10.4872C14.0332 10.3922 14.0856 10.296 14.1357 10.1984C14.1857 10.1008 14.2335 10.0022 14.2789 9.90258ZM2.23188 11.1296C2.2964 11.2181 2.36305 11.3051 2.43179 11.3905C2.50052 11.476 2.57118 11.5598 2.6437 11.6418C2.77875 11.7945 3.01325 11.7959 3.15863 11.6529C3.30401 11.51 3.30511 11.277 3.17101 11.1235C3.11509 11.0595 3.06042 10.9943 3.00705 10.9279C2.95368 10.8616 2.90172 10.7942 2.85118 10.7258C2.72999 10.5619 2.50218 10.513 2.33142 10.6243C2.16067 10.7356 2.11171 10.965 2.23188 11.1296ZM12.6534 12.1489C12.8032 12.0107 12.7995 11.7762 12.6536 11.6339C12.5077 11.4916 12.2747 11.4954 12.124 11.6327C12.0612 11.69 11.9972 11.746 11.9319 11.8008C11.8667 11.8556 11.8004 11.9089 11.7332 11.9609C11.5719 12.0855 11.5278 12.3144 11.6428 12.4827C11.7577 12.6511 11.988 12.6951 12.1501 12.5715C12.2372 12.5051 12.3227 12.4366 12.4067 12.3661C12.4907 12.2955 12.5729 12.2231 12.6534 12.1489ZM4.27694 13.0022C4.37069 13.0586 4.46584 13.113 4.56234 13.1652C4.65883 13.2173 4.75643 13.2671 4.85505 13.3146C5.03873 13.403 5.25543 13.3134 5.33407 13.1253C5.41269 12.9373 5.32341 12.722 5.14028 12.6325C5.06391 12.5951 4.98825 12.5562 4.91333 12.5157C4.83841 12.4752 4.76439 12.4332 4.69132 12.3898C4.51607 12.2857 4.28711 12.3289 4.17285 12.4977C4.05859 12.6665 4.10235 12.8969 4.27694 13.0022ZM10.2843 13.5897C10.4759 13.5203 10.5635 13.3028 10.4841 13.115C10.4047 12.9272 10.1884 12.8405 9.99635 12.9087C9.91625 12.9371 9.83549 12.9639 9.75414 12.9892C9.67279 13.0143 9.59107 13.0379 9.50891 13.0597C9.31188 13.1121 9.18255 13.3059 9.2233 13.5057C9.26398 13.7054 9.45923 13.8354 9.65655 13.7842C9.76249 13.7567 9.8679 13.7268 9.97265 13.6943C10.0775 13.6618 10.1813 13.6269 10.2843 13.5897ZM6.88791 13.9356C6.99621 13.9513 7.10502 13.9646 7.21413 13.9753C7.32331 13.986 7.43256 13.994 7.54189 13.9995C7.74549 14.0099 7.91055 13.8433 7.91011 13.6394C7.90974 13.4356 7.74401 13.2718 7.54049 13.2602C7.45559 13.2554 7.37077 13.2489 7.28603 13.2406C7.20128 13.2323 7.11676 13.2223 7.03253 13.2106C6.83063 13.1825 6.63633 13.311 6.5964 13.511C6.55653 13.7109 6.68616 13.9063 6.88791 13.9356ZM7.84404 4.41196V6.99567H10.4284C10.6323 6.99567 10.7975 7.16096 10.7975 7.36478C10.7975 7.56867 10.6323 7.73388 10.4284 7.73388H7.10583V4.41196C7.10583 4.20811 7.27104 4.04286 7.47494 4.04286C7.67875 4.04286 7.84404 4.20811 7.84404 4.41196Z" fill="#FF842C"/>
</svg>
