<svg width="14" height="14" viewBox="0 0 14 14" fill="none" xmlns="http://www.w3.org/2000/svg">
<path d="M13.252 0.915676L0.904763 5.03243C0.854208 5.04924 0.809965 5.08104 0.777914 5.12359C0.745862 5.16615 0.727519 5.21745 0.725321 5.27069C0.723124 5.32392 0.737176 5.37656 0.76561 5.42161C0.794045 5.46667 0.835516 5.502 0.884513 5.52293L5.42201 7.46768C5.44579 7.47797 5.47183 7.48193 5.49759 7.47917C5.52335 7.47641 5.54796 7.46702 5.56901 7.45193L10.0173 4.27343C10.1553 4.17593 10.3248 4.34543 10.2273 4.48343L7.04876 8.93168C7.03392 8.95272 7.02474 8.97722 7.02212 9.00284C7.01949 9.02845 7.0235 9.05431 7.03376 9.07793L8.97776 13.6154C8.99862 13.6644 9.03389 13.706 9.0789 13.7345C9.1239 13.763 9.17652 13.7771 9.22974 13.775C9.28297 13.7728 9.33429 13.7546 9.3769 13.7226C9.4195 13.6906 9.45137 13.6464 9.46826 13.5959L13.585 1.24793C13.6005 1.20164 13.6028 1.15196 13.5916 1.10445C13.5804 1.05694 13.5562 1.0135 13.5217 0.978984C13.4872 0.944473 13.4437 0.920267 13.3962 0.909083C13.3487 0.8979 13.2983 0.900183 13.252 0.915676Z" fill="#282828"/>
</svg>
