<svg width="16" height="13" viewBox="0 0 16 13" fill="none" xmlns="http://www.w3.org/2000/svg">
<path d="M0.6875 2.75C0.6875 2.20299 0.904799 1.67839 1.29159 1.29159C1.67839 0.904798 2.20299 0.6875 2.75 0.6875H13.25C13.797 0.6875 14.3216 0.904798 14.7084 1.29159C15.0952 1.67839 15.3125 2.20299 15.3125 2.75V5C15.3125 5.14918 15.2532 5.29226 15.1477 5.39775C15.0423 5.50324 14.8992 5.5625 14.75 5.5625C14.5014 5.5625 14.2629 5.66127 14.0871 5.83709C13.9113 6.0129 13.8125 6.25136 13.8125 6.5C13.8125 6.74864 13.9113 6.9871 14.0871 7.16291C14.2629 7.33873 14.5014 7.4375 14.75 7.4375C14.8992 7.4375 15.0423 7.49676 15.1477 7.60225C15.2532 7.70774 15.3125 7.85082 15.3125 8V10.25C15.3125 10.797 15.0952 11.3216 14.7084 11.7084C14.3216 12.0952 13.797 12.3125 13.25 12.3125H2.75C2.20299 12.3125 1.67839 12.0952 1.29159 11.7084C0.904799 11.3216 0.6875 10.797 0.6875 10.25V8C0.6875 7.85082 0.746763 7.70774 0.852252 7.60225C0.957742 7.49676 1.10082 7.4375 1.25 7.4375C1.49864 7.4375 1.7371 7.33873 1.91291 7.16291C2.08873 6.9871 2.1875 6.74864 2.1875 6.5C2.1875 6.25136 2.08873 6.0129 1.91291 5.83709C1.7371 5.66127 1.49864 5.5625 1.25 5.5625C1.10082 5.5625 0.957742 5.50324 0.852252 5.39775C0.746763 5.29226 0.6875 5.14918 0.6875 5V2.75ZM8.5625 3.5C8.5625 3.35082 8.50324 3.20774 8.39775 3.10225C8.29226 2.99676 8.14918 2.9375 8 2.9375C7.85082 2.9375 7.70774 2.99676 7.60225 3.10225C7.49676 3.20774 7.4375 3.35082 7.4375 3.5V3.875C7.4375 4.02418 7.49676 4.16726 7.60225 4.27275C7.70774 4.37824 7.85082 4.4375 8 4.4375C8.14918 4.4375 8.29226 4.37824 8.39775 4.27275C8.50324 4.16726 8.5625 4.02418 8.5625 3.875V3.5ZM8.5625 6.3125C8.5625 6.16332 8.50324 6.02024 8.39775 5.91475C8.29226 5.80926 8.14918 5.75 8 5.75C7.85082 5.75 7.70774 5.80926 7.60225 5.91475C7.49676 6.02024 7.4375 6.16332 7.4375 6.3125V6.6875C7.4375 6.83668 7.49676 6.97976 7.60225 7.08525C7.70774 7.19074 7.85082 7.25 8 7.25C8.14918 7.25 8.29226 7.19074 8.39775 7.08525C8.50324 6.97976 8.5625 6.83668 8.5625 6.6875V6.3125ZM8.5625 9.125C8.5625 8.97582 8.50324 8.83274 8.39775 8.72725C8.29226 8.62176 8.14918 8.5625 8 8.5625C7.85082 8.5625 7.70774 8.62176 7.60225 8.72725C7.49676 8.83274 7.4375 8.97582 7.4375 9.125V9.5C7.4375 9.64918 7.49676 9.79226 7.60225 9.89775C7.70774 10.0032 7.85082 10.0625 8 10.0625C8.14918 10.0625 8.29226 10.0032 8.39775 9.89775C8.50324 9.79226 8.5625 9.64918 8.5625 9.5V9.125Z" fill="#282828"/>
</svg>
