<svg width="16" height="13" viewBox="0 0 16 13" fill="none" xmlns="http://www.w3.org/2000/svg">
<path fill-rule="evenodd" clip-rule="evenodd" d="M10.4581 4.31501C10.1666 4.19496 9.8657 4.09183 9.55757 4.00635C8.61739 3.73106 7.64872 3.53081 6.66427 3.40823C5.8691 3.30593 5.06371 3.27189 4.26043 3.30665C3.54452 3.34144 2.84311 3.44581 2.17697 3.67877C1.69838 3.84409 1.28702 4.08595 0.971259 4.43915C0.956097 4.45195 0.948515 4.46447 0.933683 4.47728C0.929728 4.48034 0.914566 4.48034 0.907315 4.48368C0.884572 4.45195 0.910941 4.42634 0.926103 4.40018C1.47622 3.37038 2.28244 2.51983 3.42783 1.91865C4.10221 1.56546 4.84054 1.33946 5.60919 1.17719C6.4721 0.996006 7.34985 0.942011 8.23518 0.982368C8.71296 1.00362 9.18799 1.05685 9.6558 1.14157C9.70458 1.15103 9.75732 1.1733 9.81401 1.15103L9.81005 1.14797C9.80247 1.1797 9.8328 1.17024 9.85158 1.1733C10.0665 1.22089 10.2774 1.27182 10.4884 1.32276C11.5102 1.58049 12.466 1.9526 13.3029 2.52233C13.3217 2.53486 13.3405 2.55016 13.3669 2.54766H13.3629C13.3629 2.55467 13.366 2.56143 13.3716 2.56659C13.3772 2.57175 13.385 2.57493 13.3932 2.57549C13.6721 2.79175 13.9509 3.01135 14.1919 3.25933C14.9053 3.98367 15.359 4.86497 15.4994 5.79959C15.6389 6.69022 15.5258 7.55887 15.1075 8.388C14.9114 8.77932 14.6477 9.13251 14.2835 9.42837C14.1968 9.49517 14.1213 9.58089 13.9931 9.6001C13.9895 9.55863 14.031 9.5461 14.0574 9.52384C14.1425 9.44956 14.2206 9.36971 14.2908 9.28503C14.6639 8.84612 14.7506 8.34987 14.6863 7.82801C14.6641 7.6002 14.5952 7.37737 14.4826 7.1695C14.2944 6.73615 13.9849 6.37349 13.6022 6.05203C13.5719 6.0242 13.5455 5.99469 13.5155 5.96853C12.6299 5.23682 11.5827 4.72777 10.4597 4.31418" fill="#626262"/>
<path fill-rule="evenodd" clip-rule="evenodd" d="M11.0462 10.7739C11.0989 10.8154 11.1589 10.7931 11.2156 10.7901C11.9452 10.7683 12.6691 10.6722 13.3716 10.504C13.3867 10.5006 13.4019 10.504 13.4319 10.5006C13.3989 10.5563 13.3416 10.5802 13.3 10.612C12.7463 11.0225 12.1464 11.3787 11.4842 11.6557C10.738 11.9641 9.95812 12.1709 9.13311 12.2505C9.06998 12.2568 9.00801 12.2696 8.94853 12.2886C8.91557 12.2633 8.87305 12.2697 8.83547 12.2727C8.71483 12.2791 8.59057 12.295 8.46993 12.295C8.19504 12.295 7.91982 12.2983 7.64591 12.2791C7.39706 12.2633 7.14458 12.2474 6.89968 12.2157C6.39963 12.1554 5.90676 12.0585 5.42665 11.9259C5.36265 11.906 5.29513 11.8953 5.22691 11.8942C5.12144 11.8338 4.99322 11.8107 4.87291 11.7701C3.77268 11.4043 2.78187 10.8984 1.96049 10.17C1.18574 9.49492 0.682161 8.63113 0.521083 7.70098C0.472301 7.43379 0.434396 7.16353 0.445932 6.89384C0.46472 6.40399 0.566239 5.93307 0.879038 5.51001C0.969351 5.38588 1.06362 5.26481 1.207 5.17603C1.19184 5.19829 1.18063 5.22056 1.16547 5.24282C0.934742 5.53256 0.88662 5.85374 0.969352 6.18773C1.08241 6.64919 1.35763 7.03717 1.74196 7.3745C1.99806 7.65116 2.2957 7.89302 2.60092 8.12848C3.47034 8.79533 4.45651 9.34482 5.52455 9.75751C6.1464 9.99987 6.7902 10.1999 7.44979 10.3556C7.50253 10.3681 7.55164 10.3904 7.60438 10.3523C7.61954 10.4224 7.69469 10.4127 7.74381 10.4224C8.32499 10.5488 8.91523 10.6433 9.51084 10.7055C9.86069 10.7447 10.2128 10.768 10.5656 10.7753C10.6711 10.7787 10.7729 10.7753 10.8748 10.7945C10.9036 10.8022 10.934 10.8045 10.964 10.8012C10.9939 10.7979 11.0227 10.789 11.0481 10.7753" fill="#626262"/>
<path fill-rule="evenodd" clip-rule="evenodd" d="M11.0463 10.7738C10.9906 10.8017 10.9241 10.8097 10.8614 10.7961C10.7593 10.7819 10.6559 10.7756 10.5525 10.7772C10.1985 10.7738 9.84814 10.739 9.49777 10.707C8.90161 10.6479 8.31114 10.5533 7.73073 10.424C7.67767 10.4145 7.60614 10.424 7.59131 10.3541C7.72315 10.198 7.86983 10.0519 7.98288 9.88626C8.06957 9.80666 8.12989 9.71148 8.19779 9.61907C8.40161 9.35014 8.58534 9.07071 8.74791 8.78243C8.94369 8.48964 9.09828 8.17791 9.25287 7.86925C9.74621 6.8715 10.1198 5.83447 10.3679 4.77374C10.4009 4.62428 10.4131 4.46758 10.4668 4.32202C11.5898 4.73561 12.637 5.24466 13.515 5.97638C13.5459 6.00356 13.5749 6.03228 13.6017 6.06238C13.5941 6.08464 13.5826 6.10997 13.5754 6.13224C13.5035 6.45676 13.4106 6.77238 13.3041 7.08661C13.1871 7.427 13.0404 7.75792 12.897 8.08857C12.8743 8.12976 12.8519 8.17207 12.8291 8.21577C12.5846 8.71765 12.2959 9.20339 11.9656 9.66889C11.8337 9.85342 11.6943 10.0346 11.5585 10.2161C11.3851 10.3975 11.2157 10.5851 11.0463 10.7727" fill="#626262"/>
<path fill-rule="evenodd" clip-rule="evenodd" d="M1.72816 7.37587C1.34779 7.03882 1.06894 6.65056 0.955881 6.18938C0.873149 5.85539 0.922921 5.53699 1.152 5.24447C1.16788 5.2232 1.18166 5.20086 1.1932 5.17767C1.31746 5.03851 1.48721 4.94527 1.66059 4.85621C2.13885 4.60822 2.66655 4.45849 3.21271 4.35356C4.05149 4.20161 4.91125 4.14915 5.76718 4.1977C6.66191 4.24432 7.54699 4.37996 8.40406 4.60182C8.42647 4.60823 8.45284 4.60822 8.46998 4.63995C8.33451 4.65916 8.19871 4.65582 8.06687 4.66779C7.48562 4.73219 6.91161 4.83673 6.35059 4.98034C5.34067 5.22527 4.36503 5.54033 3.45003 5.98899C3.04159 6.18188 2.66315 6.41691 2.32343 6.68869C2.08209 6.88891 1.88103 7.12102 1.72816 7.37587Z" fill="#626262"/>
<path fill-rule="evenodd" clip-rule="evenodd" d="M13.3629 2.55633C13.3366 2.56273 13.3178 2.54686 13.299 2.53072C12.4624 1.96127 11.5095 1.58915 10.4845 1.33142C10.2735 1.27743 10.0589 1.22956 9.84798 1.18196C9.8404 1.1661 9.83645 1.14383 9.80645 1.15636L9.81008 1.1597C9.83282 1.12157 9.79129 1.10876 9.7725 1.08956C9.38041 0.733173 8.85484 0.501789 8.28432 0.434387C7.75694 0.36759 7.2444 0.421584 6.73515 0.532914C6.68242 0.513709 6.6333 0.567982 6.58057 0.532914C6.9461 0.300514 7.36438 0.166918 7.80506 0.0937194C9.07867 -0.116136 10.2956 0.0207986 11.4334 0.561581C12.3451 0.997436 12.9707 1.65289 13.3511 2.47366C13.3586 2.49899 13.3814 2.5246 13.3623 2.55716" fill="#626262"/>
<path fill-rule="evenodd" clip-rule="evenodd" d="M11.5547 10.2107C11.6902 10.0295 11.8296 9.84891 11.9614 9.66355C12.2923 9.19808 12.5808 8.71203 12.8243 8.20959L12.8922 8.08545C12.9374 8.06959 12.9826 8.05762 13.0277 8.03786C13.5702 7.8216 14.064 7.54467 14.478 7.17896C14.5875 7.38754 14.655 7.61011 14.6777 7.83747C14.7417 8.35905 14.655 8.85224 14.2822 9.29449C14.2095 9.3775 14.1314 9.45712 14.0485 9.53301C14.0221 9.55528 13.9806 9.57142 13.9842 9.60955V9.60621C13.9618 9.60621 13.9513 9.61262 13.9513 9.63182C13.9322 9.63182 13.9209 9.63822 13.9209 9.65715C13.9094 9.65473 13.8972 9.65561 13.8863 9.65963C13.8754 9.66366 13.8664 9.67061 13.8606 9.67941C13.8109 9.72365 13.7506 9.75839 13.6836 9.78128C13.2278 9.97611 12.738 10.0835 12.2334 10.1534C12.0089 10.1837 11.7825 10.2028 11.5553 10.2107" fill="#626262"/>
<path fill-rule="evenodd" clip-rule="evenodd" d="M5.21727 11.8965C5.28531 11.8991 5.35256 11.9099 5.41701 11.9285C5.89718 12.0607 6.39004 12.1576 6.89004 12.2179C7.13889 12.2496 7.38742 12.2655 7.63627 12.2817C7.91117 12.2975 8.18639 12.2975 8.46029 12.2975C8.58093 12.2975 8.70519 12.2817 8.82583 12.2753C8.86341 12.2719 8.90494 12.2655 8.93889 12.2911C8.23056 12.6346 7.47707 12.8734 6.66689 12.9591C5.5894 13.0768 4.56464 12.9496 3.6302 12.4534C3.04251 12.1417 2.59787 11.7247 2.34473 11.1711C2.35249 11.1612 2.36132 11.1519 2.3711 11.1433C3.13579 11.9101 4.0966 12.1105 5.21562 11.8973" fill="#626262"/>
<path fill-rule="evenodd" clip-rule="evenodd" d="M8.7401 8.77796C8.58551 9.07076 8.38972 9.34435 8.18998 9.61488C8.12208 9.707 8.06176 9.80247 7.9754 9.88207C6.62631 9.57118 5.39489 9.05628 4.26038 8.36214C3.84459 8.10874 3.44704 7.83467 3.06983 7.54137C3.02468 7.5063 2.96798 7.47763 2.93799 7.4267L2.94919 7.41724C2.96897 7.4196 2.98806 7.42497 3.00556 7.4331C3.88726 7.84029 4.83291 8.11388 5.79372 8.34628C6.46051 8.51062 7.14051 8.63396 7.8284 8.71534C8.13047 8.75208 8.43496 8.773 8.7401 8.77796Z" fill="#626262"/>
<path fill-rule="evenodd" clip-rule="evenodd" d="M6.57767 0.532541C6.6304 0.56427 6.67918 0.513337 6.73192 0.532541C6.66798 0.56427 6.59645 0.574011 6.50977 0.592937C6.52097 0.551745 6.54273 0.535603 6.57767 0.532541Z" fill="#626262"/>
<path fill-rule="evenodd" clip-rule="evenodd" d="M2.37565 11.1483C2.36588 11.1567 2.35712 11.166 2.34949 11.1759C2.31679 11.1507 2.31221 11.116 2.30469 11.0781C2.32291 11.0831 2.33916 11.0922 2.35168 11.1044C2.3642 11.1166 2.37249 11.1315 2.37565 11.1474" fill="#626262"/>
<path fill-rule="evenodd" clip-rule="evenodd" d="M13.8604 9.67633C13.8657 9.66712 13.8747 9.65981 13.8858 9.65571C13.8969 9.65161 13.9094 9.65098 13.921 9.65394C13.9193 9.65912 13.9163 9.66392 13.9122 9.66798C13.908 9.67205 13.9029 9.67527 13.897 9.67742C13.8912 9.67957 13.8849 9.68059 13.8785 9.6804C13.8722 9.68021 13.866 9.67882 13.8604 9.67633Z" fill="#626262"/>
<path fill-rule="evenodd" clip-rule="evenodd" d="M13.9507 9.62833C13.9507 9.6096 13.9618 9.60327 13.9833 9.60327C13.9944 9.63081 13.9719 9.63081 13.9507 9.62833Z" fill="#626262"/>
<path fill-rule="evenodd" clip-rule="evenodd" d="M13.389 2.58123C13.3704 2.57821 13.3594 2.57189 13.3594 2.55377C13.389 2.54772 13.3854 2.5697 13.389 2.58123Z" fill="#016794"/>
<path fill-rule="evenodd" clip-rule="evenodd" d="M2.94137 7.42979C2.93031 7.42649 2.91177 7.42347 2.92283 7.41084C2.93389 7.3982 2.94527 7.41084 2.95243 7.42018L2.94137 7.42979Z" fill="#626262"/>
<path fill-rule="evenodd" clip-rule="evenodd" d="M13.9209 9.65365C13.9209 9.63454 13.932 9.62817 13.9511 9.62817C13.9583 9.65032 13.9396 9.65032 13.9209 9.65365Z" fill="#626262"/>
</svg>
