<svg width="16" height="16" viewBox="0 0 16 16" fill="none" xmlns="http://www.w3.org/2000/svg">
<path d="M13.32 3.99125L12.9781 4.33313C12.8041 4.50717 12.568 4.60495 12.3219 4.60495C12.0757 4.60495 11.8397 4.50717 11.6656 4.33313C11.4916 4.15908 11.3938 3.92302 11.3938 3.67687C11.3938 3.43073 11.4916 3.19467 11.6656 3.02063L12.0075 2.67875L9.82875 0.5L7.07875 3.25L6.95375 3.62781L6.57594 3.75281L0.5 9.82875L2.68 12.0087L3.02187 11.6669C3.19592 11.4928 3.43198 11.395 3.67812 11.395C3.92427 11.395 4.16033 11.4928 4.33437 11.6669C4.50842 11.8409 4.6062 12.077 4.6062 12.3231C4.6062 12.5693 4.50842 12.8053 4.33437 12.9794L3.9925 13.3212L6.17125 15.5L12.2463 9.425L12.3713 9.04719L12.7491 8.92219L15.4991 6.17219L13.32 3.99125ZM6.8025 4.16094L7.48594 3.4775L8.51719 4.50875L7.83344 5.19219L6.8025 4.16094ZM8.14625 5.50469L8.83 4.82094L9.84625 5.83719L9.1625 6.52094L8.14625 5.50469ZM9.47625 6.83469L10.16 6.15094L11.1763 7.16719L10.4937 7.8525L9.47625 6.83469ZM11.8378 9.19594L10.8066 8.16469L11.49 7.48094L12.5212 8.51219L11.8378 9.19594Z" fill="white"/>
</svg>
