<svg width="22" height="22" viewBox="0 0 22 22" fill="none" xmlns="http://www.w3.org/2000/svg">
<path d="M9.16537 8.32464V5.73047C8.78953 5.73047 8.47787 5.4188 8.47787 5.04297V2.98047H6.41537C2.37286 2.98047 1.14453 4.2088 1.14453 8.2513V8.70964C1.14453 9.08547 1.4562 9.39714 1.83203 9.39714C2.71203 9.39714 3.4362 10.1213 3.4362 11.0013C3.4362 11.8813 2.71203 12.6055 1.83203 12.6055C1.4562 12.6055 1.14453 12.9171 1.14453 13.293V13.7513C1.14453 17.7938 2.37286 19.0221 6.41537 19.0221H8.47787V16.9596C8.47787 16.5838 8.78953 16.2721 9.16537 16.2721V13.678C8.78953 13.678 8.47787 13.3663 8.47787 12.9905V9.01214C8.47787 8.6363 8.78953 8.32464 9.16537 8.32464Z" fill="url(#paint0_linear_1919_37875)"/>
<path opacity="0.4" d="M18.5599 11.4596C18.5599 12.3396 19.2841 13.0638 20.1641 13.0638C20.5399 13.0638 20.8516 13.3755 20.8516 13.7513C20.8516 17.7938 19.6232 19.0221 15.5807 19.0221H9.85156V16.9596C9.85156 16.5838 9.5399 16.2721 9.16406 16.2721V13.678C9.5399 13.678 9.85156 13.3663 9.85156 12.9905V9.01214C9.85156 8.6363 9.5399 8.32464 9.16406 8.32464V5.73047C9.5399 5.73047 9.85156 5.4188 9.85156 5.04297V2.98047H15.5807C19.6232 2.98047 20.8516 4.2088 20.8516 8.2513V9.16797C20.8516 9.5438 20.5399 9.85547 20.1641 9.85547C19.2841 9.85547 18.5599 10.5796 18.5599 11.4596Z" fill="#9575CD"/>
<defs>
<linearGradient id="paint0_linear_1919_37875" x1="5.15495" y1="2.98047" x2="5.15495" y2="19.0221" gradientUnits="userSpaceOnUse">
<stop stop-color="#B3B8E2"/>
<stop offset="0.5" stop-color="#8860D9"/>
<stop offset="1" stop-color="#9575CD"/>
</linearGradient>
</defs>
</svg>
