<svg width="24" height="24" viewBox="0 0 24 24" fill="none" xmlns="http://www.w3.org/2000/svg">
<path fill-rule="evenodd" clip-rule="evenodd" d="M14.8812 5.27734H9.12125C7.00048 5.27734 5.28125 6.99657 5.28125 9.11734V14.8773C5.28125 16.9981 7.00048 18.7173 9.12125 18.7173H14.8812C17.002 18.7173 18.7212 16.9981 18.7212 14.8773V9.11734C18.7212 6.99657 17.002 5.27734 14.8812 5.27734Z" stroke="white" stroke-width="1.5" stroke-linecap="round" stroke-linejoin="round"/>
<path fill-rule="evenodd" clip-rule="evenodd" d="M12.0011 14.8772C10.4105 14.8772 9.12109 13.5878 9.12109 11.9972C9.12109 10.4066 10.4105 9.11719 12.0011 9.11719C13.5917 9.11719 14.8811 10.4066 14.8811 11.9972C14.8811 12.761 14.5776 13.4935 14.0375 14.0336C13.4974 14.5737 12.7649 14.8772 12.0011 14.8772Z" stroke="white" stroke-width="1.5" stroke-linecap="round" stroke-linejoin="round"/>
<path d="M15.8428 7.19719C15.3126 7.19719 14.8828 7.62699 14.8828 8.15719C14.8828 8.68738 15.3126 9.11719 15.8428 9.11719C16.373 9.11719 16.8028 8.68738 16.8028 8.15719C16.8028 7.62699 16.373 7.19719 15.8428 7.19719Z" fill="white"/>
<path d="M15.8394 7.67672C15.5743 7.67672 15.3594 7.89162 15.3594 8.15672C15.3594 8.42182 15.5743 8.63672 15.8394 8.63672C16.1045 8.63672 16.3194 8.42182 16.3194 8.15672C16.3194 7.89162 16.1045 7.67672 15.8394 7.67672Z" stroke="white" stroke-linecap="round"/>
</svg>
