<svg width="16" height="16" viewBox="0 0 16 16" fill="none" xmlns="http://www.w3.org/2000/svg">
<g clip-path="url(#clip0_1854_37324)">
<path d="M4.20334 6.09036C5.36313 6.09036 6.30222 5.15061 6.30222 3.98951C6.30222 3.26587 6.55697 2.60313 5.99771 2.22723C5.66241 1.99868 4.19024 1.89062 3.7554 1.89062C3.23805 1.89062 2.56549 2.31237 2.19941 2.62343C1.74427 3.00785 2.10314 3.34642 2.10314 3.98886C2.10314 5.15061 3.04158 6.09036 4.20334 6.09036ZM2.74034 3.78388C3.12606 3.71381 3.38801 3.84085 3.38801 3.84085L4.03241 3.52717C4.03241 3.52717 3.70432 4.0013 3.99902 3.84085C4.6552 3.62082 5.38932 3.7125 5.7626 3.78584C5.7757 3.8677 5.78749 3.95153 5.78749 4.03863C5.78749 4.90307 5.10118 5.60182 4.24918 5.60182C3.40177 5.60182 2.7148 4.90307 2.7148 4.03863C2.7148 3.95153 2.72659 3.8677 2.74034 3.78388Z" fill="white"/>
<path d="M14.4517 3.6949C14.4419 3.57506 14.4321 3.45587 14.4059 3.34061C14.3227 2.60453 13.6639 1.10878 11.7733 1.15332C10.1439 1.19195 9.78834 2.41854 9.70255 3.1651C9.64492 3.34847 9.60759 3.54035 9.59515 3.74009C7.47596 4.11009 7.7091 6.26072 9.00314 6.29739C8.88002 5.17427 9.41572 4.49975 9.622 4.28298C9.81257 5.44277 10.8139 6.33406 12.0267 6.33406C13.1767 6.33406 14.1367 5.53315 14.3967 4.46242C14.5952 4.81212 14.9285 5.52856 14.8473 6.29805C16.8859 6.28036 15.8826 3.94965 14.4517 3.6949ZM12.0267 5.64251C11.0739 5.64251 10.2985 4.87499 10.2769 3.92607C10.6246 3.79968 10.8826 3.19719 10.8826 3.19719C10.8826 3.19719 11.0889 3.26792 11.0889 3.94834C11.4498 4.07408 12.0765 2.89136 12.0765 2.89136V3.82326C12.474 3.93197 13.7274 3.78789 13.7274 3.78789L13.7739 3.82719C13.7746 3.84683 13.7798 3.86713 13.7798 3.88744C13.7811 4.85535 12.9953 5.64251 12.0267 5.64251Z" fill="white"/>
<path d="M12.5363 6.39844H11.5049H10.6437L8.12181 9.43708L5.68107 6.43642H2.90635L0 9.62699L0.609037 10.255L2.68959 8.47964V11.923H3.10675V14.5405H2.84152V14.8477H4.04977V14.5405V11.923H4.50229V14.5405V14.8477H5.70792V14.5405H5.44335V11.923H5.94957V8.54448L7.61297 10.2524L8.29273 10.0848L8.66929 10.1791L10.5534 8.02254L10.6608 8.87715L8.91094 11.8844H10.9293V14.5026H10.664V14.8071H11.871V14.5026H11.8723V11.8844H12.3235V14.5026V14.8071H13.5311V14.5026H13.2659V11.8844H14.8304L13.2888 8.87715L13.3733 7.82542L14.8461 9.79922L15.8219 9.55626L13.4866 6.39844H12.5363Z" fill="white"/>
</g>
<defs>
<clipPath id="clip0_1854_37324">
<rect width="16" height="16" fill="white"/>
</clipPath>
</defs>
</svg>
