<svg width="24" height="24" viewBox="0 0 24 24" fill="none" xmlns="http://www.w3.org/2000/svg">
<g clip-path="url(#clip0_1849_34202)">
<mask id="mask0_1849_34202" style="mask-type:luminance" maskUnits="userSpaceOnUse" x="0" y="0" width="24" height="24">
<path d="M24 0H0V24H24V0Z" fill="white"/>
</mask>
<g mask="url(#mask0_1849_34202)">
<path d="M16.44 3.10156C14.63 3.10156 13.01 3.98156 12 5.33156C10.99 3.98156 9.37 3.10156 7.56 3.10156C4.49 3.10156 2 5.60156 2 8.69156C2 9.88156 2.19 10.9816 2.52 12.0016C4.1 17.0016 8.97 19.9916 11.38 20.8116C11.72 20.9316 12.28 20.9316 12.62 20.8116C15.03 19.9916 19.9 17.0016 21.48 12.0016C21.81 10.9816 22 9.88156 22 8.69156C22 5.60156 19.51 3.10156 16.44 3.10156Z" fill="url(#paint0_linear_1849_34202)"/>
</g>
</g>
<defs>
<linearGradient id="paint0_linear_1849_34202" x1="12" y1="3.10156" x2="12" y2="20.9016" gradientUnits="userSpaceOnUse">
<stop stop-color="#B3B8E2"/>
<stop offset="0.5" stop-color="#8860D9"/>
<stop offset="1" stop-color="#9575CD"/>
</linearGradient>
<clipPath id="clip0_1849_34202">
<rect width="24" height="24" fill="white"/>
</clipPath>
</defs>
</svg>
