<svg width="24" height="24" viewBox="0 0 24 24" fill="none" xmlns="http://www.w3.org/2000/svg">
<path fill-rule="evenodd" clip-rule="evenodd" d="M8.94634 21.131L8.89153 21.0782L8.89059 21.0773C8.81297 21.0018 8.7341 20.9249 8.65418 20.8466C7.28264 19.5024 5.57246 17.7226 4.35023 15.6263C3.12338 13.5222 2.35406 11.0395 2.963 8.32543C5.09157 -1.11568 18.9199 -1.10462 21.0374 8.33546C21.6641 11.1287 20.8312 13.6736 19.5405 15.8144C18.2547 17.9472 16.4749 19.745 15.0994 21.0778C14.0958 22.055 13.1261 22.7318 12.0298 22.7444C10.9285 22.7571 9.95486 22.0975 8.95063 21.1352L8.94634 21.131Z" fill="#9575CD" fill-opacity="0.5"/>
<path fill-rule="evenodd" clip-rule="evenodd" d="M8.75 9.5C8.75 7.70507 10.2051 6.25 12 6.25C13.7949 6.25 15.25 7.70507 15.25 9.5C15.25 11.2949 13.7949 12.75 12 12.75C10.2051 12.75 8.75 11.2949 8.75 9.5Z" fill="url(#paint0_linear_1919_37872)"/>
<defs>
<linearGradient id="paint0_linear_1919_37872" x1="12" y1="6.25" x2="12" y2="12.75" gradientUnits="userSpaceOnUse">
<stop stop-color="#B3B8E2"/>
<stop offset="0.5" stop-color="#8860D9"/>
<stop offset="1" stop-color="#9575CD"/>
</linearGradient>
</defs>
</svg>
