<svg width="16" height="16" viewBox="0 0 16 16" fill="none" xmlns="http://www.w3.org/2000/svg">
<g clip-path="url(#clip0_1854_37334)">
<path d="M2.33333 8.9987C1.97971 8.9987 1.64057 8.85822 1.39052 8.60817C1.14048 8.35813 1 8.01899 1 7.66536V5.66536C1 5.31174 1.14048 4.9726 1.39052 4.72256C1.64057 4.47251 1.97971 4.33203 2.33333 4.33203C2.68696 4.33203 3.02609 4.47251 3.27614 4.72256C3.52619 4.9726 3.66667 5.31174 3.66667 5.66536V7.66536C3.66667 8.01899 3.52619 8.35813 3.27614 8.60817C3.02609 8.85822 2.68696 8.9987 2.33333 8.9987ZM7.33333 4.66536V2.66536C7.33333 2.31174 7.19286 1.9726 6.94281 1.72256C6.69276 1.47251 6.35362 1.33203 6 1.33203C5.64638 1.33203 5.30724 1.47251 5.05719 1.72256C4.80714 1.9726 4.66667 2.31174 4.66667 2.66536V4.66536C4.66667 5.01899 4.80714 5.35813 5.05719 5.60817C5.30724 5.85822 5.64638 5.9987 6 5.9987C6.35362 5.9987 6.69276 5.85822 6.94281 5.60817C7.19286 5.35813 7.33333 5.01899 7.33333 4.66536ZM13.6667 8.9987C14.0203 8.9987 14.3594 8.85822 14.6095 8.60817C14.8595 8.35813 15 8.01899 15 7.66536V5.66536C15 5.31174 14.8595 4.9726 14.6095 4.72256C14.3594 4.47251 14.0203 4.33203 13.6667 4.33203C13.313 4.33203 12.9739 4.47251 12.7239 4.72256C12.4738 4.9726 12.3333 5.31174 12.3333 5.66536V7.66536C12.3333 8.01899 12.4738 8.35813 12.7239 8.60817C12.9739 8.85822 13.313 8.9987 13.6667 8.9987ZM10 5.9987C10.3536 5.9987 10.6928 5.85822 10.9428 5.60817C11.1929 5.35813 11.3333 5.01899 11.3333 4.66536V2.66536C11.3333 2.31174 11.1929 1.9726 10.9428 1.72256C10.6928 1.47251 10.3536 1.33203 10 1.33203C9.64638 1.33203 9.30724 1.47251 9.05719 1.72256C8.80714 1.9726 8.66667 2.31174 8.66667 2.66536V4.66536C8.66667 5.01899 8.80714 5.35813 9.05719 5.60817C9.30724 5.85822 9.64638 5.9987 10 5.9987ZM4.7 14.632C4.7 14.632 7 14.2987 7.96667 14.2987C8.93333 14.2987 11.5667 14.632 11.5667 14.632C13.4 14.632 14.3 12.532 13.0333 11.332L9.4 7.26536C8.99879 6.91375 8.48348 6.7199 7.95 6.7199C7.41652 6.7199 6.90121 6.91375 6.5 7.26536L2.9 11.332C1.6 12.532 2.86667 14.632 4.7 14.632Z" fill="white"/>
</g>
<defs>
<clipPath id="clip0_1854_37334">
<rect width="16" height="16" fill="white"/>
</clipPath>
</defs>
</svg>
