<svg width="24" height="24" viewBox="0 0 24 24" fill="none" xmlns="http://www.w3.org/2000/svg">
<path d="M2.40033 10.7982C3.06506 9.90746 3.95168 9.20658 4.97178 8.76542C4.41334 8.25554 4.02209 7.58875 3.84939 6.85254C3.67668 6.11633 3.73059 5.34511 4.00403 4.64008C4.27747 3.93506 4.75767 3.32918 5.38162 2.90194C6.00556 2.47471 6.74408 2.24609 7.50028 2.24609C8.25647 2.24609 8.995 2.47471 9.61894 2.90194C10.2429 3.32918 10.7231 3.93506 10.9965 4.64008C11.27 5.34511 11.3239 6.11633 11.1512 6.85254C10.9785 7.58875 10.5872 8.25554 10.0288 8.76542C10.7652 9.08305 11.4343 9.53816 12.0003 10.1064C12.5662 9.53813 13.2353 9.08302 13.9718 8.76542C13.4133 8.25554 13.0221 7.58875 12.8494 6.85254C12.6767 6.11633 12.7306 5.34511 13.004 4.64008C13.2775 3.93506 13.7577 3.32918 14.3816 2.90194C15.0056 2.47471 15.7441 2.24609 16.5003 2.24609C17.2565 2.24609 17.995 2.47471 18.6189 2.90194C19.2429 3.32918 19.7231 3.93506 19.9965 4.64008C20.27 5.34511 20.3239 6.11633 20.1512 6.85254C19.9785 7.58875 19.5872 8.25554 19.0288 8.76542C20.0488 9.20655 20.9353 9.90736 21.6 10.798C21.6593 10.8767 21.7025 10.9664 21.7271 11.0618C21.7517 11.1572 21.7573 11.2566 21.7435 11.3542C21.7297 11.4518 21.6967 11.5457 21.6466 11.6305C21.5965 11.7154 21.5301 11.7895 21.4513 11.8487C21.3725 11.9079 21.2828 11.951 21.1874 11.9755C21.0919 12 20.9925 12.0055 20.895 11.9915C20.7974 11.9776 20.7035 11.9446 20.6187 11.8944C20.5339 11.8442 20.4599 11.7777 20.4007 11.6989C19.9466 11.0934 19.3576 10.6019 18.6806 10.2634C18.0036 9.92497 17.2571 9.74877 16.5002 9.74879C15.7433 9.74881 14.9967 9.92505 14.3197 10.2635C13.6427 10.6021 13.0538 11.0935 12.5997 11.699C12.5984 11.7007 12.597 11.702 12.5957 11.7037C12.5806 11.7235 12.5644 11.7425 12.5473 11.7607C12.5417 11.7667 12.536 11.7724 12.5302 11.7781C12.5171 11.7912 12.5034 11.8039 12.4891 11.8162C12.4808 11.8234 12.4725 11.8304 12.464 11.8372C12.4595 11.8407 12.4555 11.8446 12.4509 11.8481C12.4423 11.8545 12.4333 11.8598 12.4246 11.8658C12.4151 11.8724 12.4057 11.8791 12.3959 11.8852C12.3805 11.8947 12.3648 11.9032 12.349 11.9115C12.3411 11.9157 12.3335 11.9203 12.3256 11.9241C12.277 11.9475 12.2261 11.9655 12.1737 11.9779C12.1661 11.9797 12.1585 11.9809 12.1508 11.9824C12.1326 11.9862 12.1144 11.9895 12.0959 11.9918C12.0856 11.9932 12.0753 11.994 12.0649 11.9949C12.0494 11.9962 12.0339 11.9972 12.0184 11.9975C12.0121 11.9977 12.0058 11.9986 11.9995 11.9986C11.9952 11.9986 11.9909 11.9977 11.9867 11.9976C11.9544 11.9971 11.9221 11.9946 11.8901 11.99C11.8813 11.9887 11.8726 11.9866 11.8638 11.985C11.8373 11.9801 11.8111 11.9738 11.7853 11.9661C11.7765 11.9634 11.7676 11.9613 11.7588 11.9583C11.728 11.9476 11.6979 11.935 11.6687 11.9204C11.66 11.9161 11.6513 11.9117 11.6427 11.9069C11.6124 11.8907 11.5834 11.8724 11.5557 11.8521C11.5537 11.8507 11.5515 11.8497 11.5496 11.8483C11.5386 11.8401 11.5288 11.831 11.5184 11.8224C11.5124 11.8173 11.5062 11.8125 11.5004 11.8073C11.4848 11.7934 11.4702 11.7788 11.456 11.7639C11.4536 11.7613 11.4509 11.7588 11.4485 11.7562C11.428 11.7342 11.4088 11.711 11.3911 11.6868C10.9359 11.0837 10.3467 10.5947 9.67006 10.2584C8.99344 9.92206 8.24792 9.7476 7.49232 9.74879C6.73673 9.74998 5.99175 9.92679 5.3162 10.2652C4.64065 10.6037 4.05301 11.0945 3.59968 11.699C3.48021 11.8581 3.30246 11.9632 3.10553 11.9911C2.90859 12.0191 2.70861 11.9677 2.54957 11.8483C2.39052 11.7288 2.28545 11.5511 2.25746 11.3541C2.22948 11.1572 2.28087 10.9572 2.40033 10.7982ZM19.0288 18.5154C19.5872 18.0055 19.9785 17.3387 20.1512 16.6025C20.3239 15.8663 20.27 15.0951 19.9965 14.3901C19.7231 13.6851 19.2429 13.0792 18.6189 12.6519C17.995 12.2247 17.2565 11.9961 16.5003 11.9961C15.7441 11.9961 15.0056 12.2247 14.3816 12.6519C13.7577 13.0792 13.2775 13.6851 13.004 14.3901C12.7306 15.0951 12.6767 15.8663 12.8494 16.6025C13.0221 17.3387 13.4133 18.0055 13.9718 18.5154C13.2353 18.833 12.5662 19.2881 12.0003 19.8564C11.4343 19.2882 10.7652 18.8331 10.0288 18.5154C10.5872 18.0055 10.9785 17.3387 11.1512 16.6025C11.3239 15.8663 11.27 15.0951 10.9965 14.3901C10.7231 13.6851 10.2429 13.0792 9.61894 12.6519C8.995 12.2247 8.25647 11.9961 7.50028 11.9961C6.74408 11.9961 6.00556 12.2247 5.38162 12.6519C4.75767 13.0792 4.27747 13.6851 4.00403 14.3901C3.73059 15.0951 3.67668 15.8663 3.84939 16.6025C4.02209 17.3387 4.41334 18.0055 4.97178 18.5154C3.95168 18.9566 3.06506 19.6575 2.40033 20.5482C2.31665 20.6596 2.26566 20.7921 2.25307 20.9308C2.24048 21.0696 2.2668 21.2091 2.32906 21.3338C2.39133 21.4584 2.48708 21.5632 2.60559 21.6365C2.7241 21.7098 2.86067 21.7486 3 21.7486L11.9974 21.7484L12 21.7486L21.0004 21.7484C21.1397 21.7484 21.2763 21.7096 21.3948 21.6363C21.5133 21.5631 21.6091 21.4582 21.6714 21.3336C21.7336 21.2089 21.7599 21.0694 21.7473 20.9306C21.7347 20.7919 21.6837 20.6594 21.6 20.548C20.9353 19.6574 20.0488 18.9566 19.0288 18.5154Z" fill="white"/>
</svg>
