<svg width="16" height="16" viewBox="0 0 16 16" fill="none" xmlns="http://www.w3.org/2000/svg">
<g clip-path="url(#clip0_1854_37346)">
<path fill-rule="evenodd" clip-rule="evenodd" d="M6.39075 10.0673V5.57788C7.98452 6.32782 9.21887 7.05228 10.6788 7.83335C9.47467 8.50111 7.98452 9.25037 6.39075 10.0673ZM15.2728 3.34506C14.9979 2.98286 14.5293 2.70091 14.0305 2.60756C12.5642 2.32912 3.41679 2.32833 1.95132 2.60756C1.55129 2.68256 1.19507 2.86382 0.889066 3.14546C-0.40029 4.34218 0.00373294 10.7598 0.314518 11.7994C0.445206 12.2493 0.614152 12.5738 0.82692 12.7869C1.10105 13.0685 1.47637 13.2624 1.90749 13.3494C3.11476 13.5991 9.33443 13.7387 14.005 13.3869C14.4353 13.3119 14.8162 13.1117 15.1166 12.8181C16.3087 11.6262 16.2275 4.84814 15.2728 3.34506Z" fill="white"/>
</g>
<defs>
<clipPath id="clip0_1854_37346">
<rect width="16" height="16" fill="white"/>
</clipPath>
</defs>
</svg>
